<svg xmlns="http://www.w3.org/2000/svg" viewBox="0 0 500 500"><g id="freepik--Floor--inject-159"><ellipse id="freepik--floor--inject-159" cx="250" cy="337.3" rx="243.71" ry="153.03" style="fill:#f5f5f5"></ellipse></g><g id="freepik--Shadows--inject-159"><path id="freepik--Shadow--inject-159" d="M404,332.82l-13.38,7.72-2.3-1c-8.12-3.59-16.46-6.61-24.53-10.14a115.54,115.54,0,0,1-11-5.53c-2.54-1.46-8.82-5.25-11.4-6.5-8.47-4.1-13.08-8-23.06-6.23a24,24,0,0,0-2.82.67c-4.86,1.46-9.52,6.56-5.58,11.42,4.58,5.64,11.4,9.22,18,12.16s12.22,5.43,18,9.68c2.47,1.83,5.24,3.08,7.77,4.78,3.26,2.21,6.47,4.38,9.77,6.41l-7,4L404,387.76l47.57-27.47Z" style="fill:#e6e6e6"></path><path id="freepik--shadow--inject-159" d="M209.88,250.49l-43.63-25.15a1.12,1.12,0,0,1,0-2.12l71.29-41.38a4.06,4.06,0,0,1,3.67,0L284.83,207a1.13,1.13,0,0,1,0,2.13l-71.29,41.38A4.06,4.06,0,0,1,209.88,250.49Z" style="fill:#e6e6e6"></path><path id="freepik--shadow--inject-159" d="M190.44,469.26l-88-50.89c-1.47-.85-1.47-2.22,0-3.07l163.5-94.73a5.87,5.87,0,0,1,5.32,0l88,50.88c1.47.85,1.47,2.22,0,3.07l-163.5,94.74A5.85,5.85,0,0,1,190.44,469.26Z" style="fill:#e6e6e6"></path><path id="freepik--shadow--inject-159" d="M119.16,404.62l-64.54-37.1a1.3,1.3,0,0,1,0-2.46l82.7-48a4.7,4.7,0,0,1,4.26,0l64.54,37.09a1.31,1.31,0,0,1,0,2.47l-82.7,48A4.67,4.67,0,0,1,119.16,404.62Z" style="fill:#e6e6e6"></path><path id="freepik--shadow--inject-159" d="M103.5,431.35c-11.17,6.18-11.16,16.2,0,22.38s29.26,6.18,40.43,0,11.16-16.2,0-22.38S114.66,425.17,103.5,431.35Z" style="fill:#e6e6e6"></path></g><g id="freepik--Window--inject-159"><g id="freepik--window--inject-159"><g id="freepik--window--inject-159"><polygon points="33.38 188 35.89 188.17 120.23 139.47 118.98 138.56 33.38 188" style="fill:#fafafa"></polygon><polygon points="118.98 138.56 35.89 186.55 35.89 75.8 118.98 27.82 118.98 138.56" style="fill:#fff"></polygon><path d="M122.74,22.76,33.38,74.35V192.52l89.36-51.6Zm-2.51,116.71-84.34,48.7V75.8l84.34-48.69Z" style="fill:#f0f0f0"></path><polygon points="120.23 139.47 118.98 138.56 118.98 27.82 120.23 27.11 120.23 139.47" style="fill:#e0e0e0"></polygon><polygon points="122.74 22.76 121.49 22.04 32.12 73.63 33.38 74.35 122.74 22.76" style="fill:#fafafa"></polygon><polygon points="32.12 73.63 33.38 74.35 33.38 192.52 32.12 191.79 32.12 73.63" style="fill:#e0e0e0"></polygon><polygon points="35.89 131.05 118.97 83.03 120.23 83.79 35.89 132.48 35.89 131.05" style="fill:#fafafa"></polygon><polygon points="120.23 83.79 120.23 86.59 35.89 135.29 35.89 132.48 120.23 83.79" style="fill:#f0f0f0"></polygon></g><g id="freepik--Blinds--inject-159"><polygon points="35.89 77.9 118.97 29.92 119.64 32.86 35.89 81.25 35.89 77.9" style="fill:#f0f0f0"></polygon><polygon points="35.89 77.9 35.89 79.25 119.24 31.09 118.97 29.92 35.89 77.9" style="fill:#e0e0e0"></polygon><polygon points="35.89 82.58 118.97 34.61 119.64 37.55 35.89 85.93 35.89 82.58" style="fill:#f0f0f0"></polygon><polygon points="35.89 82.58 35.89 83.93 119.24 35.77 118.97 34.61 35.89 82.58" style="fill:#e0e0e0"></polygon><polygon points="35.89 87.27 118.97 39.29 119.64 42.23 35.89 90.61 35.89 87.27" style="fill:#f0f0f0"></polygon><polygon points="35.89 87.27 35.89 88.61 119.24 40.46 118.97 39.29 35.89 87.27" style="fill:#e0e0e0"></polygon><polygon points="35.89 91.95 118.97 43.97 119.64 46.91 35.89 95.3 35.89 91.95" style="fill:#f0f0f0"></polygon><polygon points="35.89 91.95 35.89 93.29 119.24 45.14 118.97 43.97 35.89 91.95" style="fill:#e0e0e0"></polygon><polygon points="35.89 96.63 118.97 48.65 119.64 51.59 35.89 99.98 35.89 96.63" style="fill:#f0f0f0"></polygon><polygon points="35.89 96.63 35.89 97.98 119.24 49.82 118.97 48.65 35.89 96.63" style="fill:#e0e0e0"></polygon><polygon points="35.89 101.31 118.97 53.34 119.64 56.28 35.89 104.66 35.89 101.31" style="fill:#f0f0f0"></polygon><polygon points="35.89 101.31 35.89 102.66 119.24 54.5 118.97 53.34 35.89 101.31" style="fill:#e0e0e0"></polygon><polygon points="35.89 106 118.97 58.02 119.64 60.96 35.89 109.34 35.89 106" style="fill:#f0f0f0"></polygon><polygon points="35.89 106 35.89 107.34 119.24 59.19 118.97 58.02 35.89 106" style="fill:#e0e0e0"></polygon><polygon points="35.89 110.68 118.97 62.7 119.64 65.64 35.89 114.03 35.89 110.68" style="fill:#f0f0f0"></polygon><polygon points="35.89 110.68 35.89 112.02 119.24 63.87 118.97 62.7 35.89 110.68" style="fill:#e0e0e0"></polygon><polygon points="35.89 115.36 118.97 67.38 119.64 70.32 35.89 118.71 35.89 115.36" style="fill:#f0f0f0"></polygon><polygon points="35.89 115.36 35.89 116.71 119.24 68.55 118.97 67.38 35.89 115.36" style="fill:#e0e0e0"></polygon><polygon points="35.89 120.04 118.97 72.07 119.64 75.01 35.89 123.39 35.89 120.04" style="fill:#f0f0f0"></polygon><polygon points="35.89 120.04 35.89 121.39 119.24 73.23 118.97 72.07 35.89 120.04" style="fill:#e0e0e0"></polygon></g></g></g><g id="freepik--Board--inject-159"><g id="freepik--board--inject-159"><g id="freepik--board--inject-159"><path d="M355.49,24.48l-.88.51V146.35c0,2.87,1.74,6.2,3.89,7.44l119.58,69a2.53,2.53,0,0,0,2.44.27l1-.58a3.45,3.45,0,0,0,1.33-3.14V98Z" style="fill:#e0e0e0"></path><path d="M478.08,222.82l-119.58-69c-2.15-1.24-3.89-4.57-3.89-7.44V25L482,98.53V219.88C482,222.75,480.23,224.07,478.08,222.82Z" style="fill:#fafafa"></path><path d="M355.61,26.72,481,99.1V219.88c0,1.11-.35,2.41-1.35,2.41a2.16,2.16,0,0,1-1.05-.33L359,152.93c-1.84-1.07-3.39-4.08-3.39-6.58V26.72m-1-1.73V146.35c0,2.87,1.74,6.2,3.89,7.44l119.58,69a3.12,3.12,0,0,0,1.55.47c1.38,0,2.35-1.27,2.35-3.41V98.53L354.61,25Z" style="fill:#e0e0e0"></path></g><g id="freepik--sticky-notes--inject-159"><g id="freepik--notes-shadows--inject-159" style="opacity:0.15"><polygon points="443.81 173.23 435.1 168.2 435.1 154.8 443.81 159.82 443.81 173.23"></polygon><polygon points="456.45 180.53 447.75 175.5 447.75 162.1 456.45 167.12 456.45 180.53"></polygon><polygon points="469.1 187.83 460.39 182.8 460.39 169.4 469.1 174.43 469.1 187.83"></polygon><polygon points="443.81 191.66 435.1 186.63 435.1 173.23 443.81 178.26 443.81 191.66"></polygon><polygon points="458.37 198.05 448.06 194.39 446.99 181.92 457.29 185.57 458.37 198.05"></polygon><polygon points="470.05 206.61 461.34 201.58 461.34 188.18 470.05 193.2 470.05 206.61"></polygon></g><g id="freepik--Notes--inject-159"><g id="freepik--Note--inject-159"><path d="M433.91,167.75l6,3.37c.67.37,1.11-.71,1.11-1.36.68.43,2,.69,2.12-.16l.56-7.6-9.05-5.23Z" style="fill:#fff"></path><polygon points="434.67 156.77 443.72 162 443.72 160.32 434.67 155.09 434.67 156.77" style="fill:#f0f0f0"></polygon><polygon points="442.88 170.06 440.4 171.15 441.17 169.13 442.88 170.06" style="fill:#f0f0f0"></polygon></g><g id="freepik--note--inject-159"><polygon points="446.56 175.06 455.57 180.18 456.37 169.3 447.32 164.07 446.56 175.06" style="fill:#f0f0f0"></polygon><polygon points="447.32 164.07 456.37 169.3 456.37 167.62 447.32 162.39 447.32 164.07" style="fill:#e0e0e0"></polygon><polygon points="447.32 164.07 456.37 169.3 456.37 167.62 447.32 162.39 447.32 164.07" style="fill:#e6e6e6;opacity:0.1"></polygon></g><g id="freepik--note--inject-159"><polygon points="459.96 201.24 468.96 206.36 469.77 195.48 460.72 190.25 459.96 201.24" style="fill:#f0f0f0"></polygon><polygon points="460.72 190.25 469.77 195.48 469.77 193.8 460.72 188.57 460.72 190.25" style="fill:#e0e0e0"></polygon><polygon points="460.72 190.25 469.77 195.48 469.77 193.8 460.72 188.57 460.72 190.25" style="fill:#e6e6e6;opacity:0.1"></polygon></g><g id="freepik--note--inject-159"><polygon points="447.89 194.97 457.63 198.49 456.58 187.63 446.77 184.02 447.89 194.97" style="fill:#f0f0f0"></polygon><polygon points="446.77 184.02 456.58 187.63 456.29 185.98 446.48 182.36 446.77 184.02" style="fill:#e0e0e0"></polygon><polygon points="446.77 184.02 456.58 187.63 456.29 185.98 446.48 182.36 446.77 184.02" style="fill:#e6e6e6;opacity:0.1"></polygon></g><g id="freepik--note--inject-159"><polygon points="433.91 186.07 442.92 191.19 443.72 180.31 434.67 175.08 433.91 186.07" style="fill:#fff"></polygon><polygon points="434.67 175.08 443.72 180.31 443.72 178.63 434.67 173.4 434.67 175.08" style="fill:#e0e0e0"></polygon><polygon points="434.67 175.08 443.72 180.31 443.72 178.63 434.67 173.4 434.67 175.08" style="fill:#f0f0f0"></polygon></g><g id="freepik--note--inject-159"><path d="M459.21,182.36l6,3.36c.67.37,1.11-.71,1.12-1.36.67.43,2.05.7,2.12-.16l.56-7.6L460,171.37Z" style="fill:#fff"></path><polygon points="459.96 171.37 469.01 176.6 469.02 174.92 459.96 169.69 459.96 171.37" style="fill:#f0f0f0"></polygon><polygon points="468.17 184.66 465.69 185.75 466.46 183.73 468.17 184.66" style="fill:#f0f0f0"></polygon></g></g></g><g id="freepik--Chart--inject-159"><polygon points="459.63 164.92 404.84 133.29 404.84 70.9 459.63 102.53 459.63 164.92" style="opacity:0.15"></polygon><path d="M457.39,164.21l.25-.14a1.62,1.62,0,0,0,.73-1.26V104.14a1.64,1.64,0,0,0-.73-1.27L404.82,72.32a1.63,1.63,0,0,0-1.46,0l-.25.14a1.64,1.64,0,0,0-.73,1.27V132.4a1.62,1.62,0,0,0,.73,1.26l52.82,30.55A1.57,1.57,0,0,0,457.39,164.21Z" style="fill:#f0f0f0"></path><path d="M458.36,104.14v58.67a1.62,1.62,0,0,1-.72,1.26l-.25.15a1.63,1.63,0,0,1-1.3.07c.33.09.57-.09.57-.5V105.12a1.37,1.37,0,0,0-.22-.71l1.72-1A1.63,1.63,0,0,1,458.36,104.14Z" style="fill:#e0e0e0"></path><path d="M403.11,73.3l52.82,30.56a1.62,1.62,0,0,1,.73,1.26v58.67c0,.47-.33.66-.73.42l-52.82-30.55a1.62,1.62,0,0,1-.73-1.26V73.73C402.38,73.26,402.71,73.07,403.11,73.3Z" style="fill:#fafafa"></path><path d="M408.76,81.65A2.75,2.75,0,0,1,410,83.81c0,.79-.56,1.12-1.25.72a2.78,2.78,0,0,1-1.24-2.16C407.52,81.57,408.08,81.25,408.76,81.65Z" style="fill:#e0e0e0"></path><path d="M411,84.08a2,2,0,0,0,.92,1.53l8.51,4.91c.51.29.92.08.92-.46a2,2,0,0,0-.92-1.53l-8.51-4.91C411.38,83.33,411,83.53,411,84.08Z" style="fill:#ebebeb"></path><path d="M408.76,87.62A2.75,2.75,0,0,1,410,89.78c0,.8-.56,1.12-1.25.72a2.77,2.77,0,0,1-1.24-2.16C407.52,87.54,408.08,87.22,408.76,87.62Z" style="fill:#e0e0e0"></path><path d="M408.76,87.62A2.75,2.75,0,0,1,410,89.78c0,.8-.56,1.12-1.25.72a2.77,2.77,0,0,1-1.24-2.16C407.52,87.54,408.08,87.22,408.76,87.62Z" style="opacity:0.30000000000000004"></path><path d="M411,90.06a2,2,0,0,0,.92,1.52l8.51,4.91c.51.29.92.09.92-.46a2,2,0,0,0-.92-1.53l-8.51-4.91C411.38,89.3,411,89.51,411,90.06Z" style="fill:#ebebeb"></path><g id="freepik--chart--inject-159"><path d="M429.14,117.91v-17.2c-4.57-2.59-8.72,0-10.17,6.11-1.79,7.51,1.19,19.23,6.71,25.45Z" style="fill:#e0e0e0"></path><path d="M429.69,134.91a8.07,8.07,0,0,0,2.78,1l-2.78-14.79-2.78,11.57A13.23,13.23,0,0,0,429.69,134.91Z" style="fill:#e6e6e6"></path><path d="M429.69,134.91a8.07,8.07,0,0,0,2.78,1l-2.78-14.79-2.78,11.57A13.23,13.23,0,0,0,429.69,134.91Z" style="fill:#ebebeb"></path><path d="M433.7,136.91c3,.11,5.47-2.28,6.53-6.29l-9.67-10.42Z" style="fill:#e6e6e6"></path><path d="M433.7,136.91c3,.11,5.47-2.28,6.53-6.29l-9.67-10.42Z" style="fill:#f0f0f0"></path><path d="M440,128.63a19.66,19.66,0,0,0,.37-4.07c0-8.81-4.51-18.64-10.16-22.35v15.86Z" style="fill:#e6e6e6"></path><path d="M440,128.63a19.66,19.66,0,0,0,.37-4.07c0-8.81-4.51-18.64-10.16-22.35v15.86Z" style="fill:#ebebeb"></path><path d="M421.85,108.25l-.66-.39a.55.55,0,0,1-.17-.29c0-.13,0-.21.05-.17l.66.38a.57.57,0,0,1,.17.3.19.19,0,0,1,0,.17S421.88,108.26,421.85,108.25Zm-1.32-.77-.66-.38a.6.6,0,0,1-.17-.29c0-.13,0-.21.05-.17l.66.38a.53.53,0,0,1,.17.29c0,.09,0,.15,0,.17S420.56,107.5,420.53,107.48Zm-1.31-.76-.66-.38c-.07,0-.14-.17-.18-.29s0-.21.05-.17l.66.38a.53.53,0,0,1,.17.29c0,.09,0,.15,0,.17S419.24,106.73,419.22,106.72ZM417.9,106l-.67-.38a.64.64,0,0,1-.17-.3c0-.13,0-.2.05-.17l.66.39a.5.5,0,0,1,.17.29c0,.09,0,.15,0,.17S417.92,106,417.9,106Zm-1.33-.76-.66-.38a.64.64,0,0,1-.17-.3c0-.13,0-.21.05-.17l.66.38a.57.57,0,0,1,.17.3.19.19,0,0,1,0,.17Zm-1.31-.76-.49-.29a.56.56,0,0,1-.18-.29c0-.13,0-.21.05-.17l.49.28a.57.57,0,0,1,.17.3.19.19,0,0,1,0,.17S415.28,104.45,415.26,104.44Z" style="fill:#fff"></path><path d="M444.3,120l-.66-.38a.57.57,0,0,1-.17-.3c0-.13,0-.2,0-.17l.66.39a.5.5,0,0,1,.18.29c0,.09,0,.15,0,.17A0,0,0,0,1,444.3,120Zm-1.32-.76-.66-.38a.57.57,0,0,1-.17-.3c0-.13,0-.21,0-.17l.66.38a.57.57,0,0,1,.18.3.23.23,0,0,1,0,.17Zm-1.32-.76-.66-.39a.5.5,0,0,1-.17-.29c0-.13,0-.21.05-.17l.65.38a.57.57,0,0,1,.18.3.23.23,0,0,1,0,.17A0,0,0,0,1,441.66,118.5Zm-1.32-.77-.66-.38a.53.53,0,0,1-.17-.29c0-.13,0-.21,0-.17l.66.38c.07,0,.14.17.18.29s0,.15,0,.17ZM439,117l-.66-.38a.57.57,0,0,1-.17-.3c0-.13,0-.2,0-.16l.66.38a.5.5,0,0,1,.18.29c0,.09,0,.15,0,.17A0,0,0,0,1,439,117Zm-1.32-.76-.47-.27a.57.57,0,0,1-.17-.3c0-.13,0-.2,0-.17l.47.27a.57.57,0,0,1,.18.3c0,.09,0,.15,0,.17A0,0,0,0,1,437.7,116.21Z" style="fill:#fff"></path><path d="M422.93,108.67a1.09,1.09,0,0,0-.4-.86c-.23-.13-.41,0-.41.39a1.05,1.05,0,0,0,.41.86C422.75,109.19,422.93,109,422.93,108.67Z" style="fill:#455a64"></path><path d="M437.42,115.85A1.07,1.07,0,0,0,437,115c-.22-.13-.4.05-.4.39a1.07,1.07,0,0,0,.4.86C437.24,116.37,437.42,116.2,437.42,115.85Z" style="fill:#455a64"></path><path d="M430.1,133.45a1.05,1.05,0,0,0-.41-.86c-.22-.13-.41,0-.41.39a1.1,1.1,0,0,0,.41.86C429.92,134,430.1,133.79,430.1,133.45Z" style="fill:#455a64"></path><path d="M446.42,121.3a.25.25,0,0,0,.11.12c.05,0,.09,0,.11,0a.28.28,0,0,0,0-.12v-.39a.85.85,0,0,0,0-.17.25.25,0,0,0-.11-.12s-.09,0-.11,0a.33.33,0,0,0,0,.13v.39A1,1,0,0,0,446.42,121.3Z" style="fill:#e6e6e6"></path><g style="opacity:0.75"><path d="M446.42,121.3a.25.25,0,0,0,.11.12c.05,0,.09,0,.11,0a.28.28,0,0,0,0-.12v-.39a.85.85,0,0,0,0-.17.25.25,0,0,0-.11-.12s-.09,0-.11,0a.33.33,0,0,0,0,.13v.39A1,1,0,0,0,446.42,121.3Z" style="fill:#fff"></path></g><path d="M442.89,142.73l-.66-.38a.64.64,0,0,1-.17-.3c0-.13,0-.2.05-.17l.66.39a.5.5,0,0,1,.17.29c0,.09,0,.15,0,.17S442.92,142.74,442.89,142.73Zm-1.32-.76-.66-.38a.64.64,0,0,1-.17-.3c0-.13,0-.21.05-.17l.66.38a.57.57,0,0,1,.17.3.19.19,0,0,1,0,.17Zm-1.31-.76-.67-.39a.55.55,0,0,1-.17-.29c0-.13,0-.21.05-.17l.66.38a.57.57,0,0,1,.17.3.19.19,0,0,1,0,.17Zm-1.33-.77-.66-.38a.6.6,0,0,1-.17-.29c0-.13,0-.21,0-.17l.66.38a.53.53,0,0,1,.17.29c0,.09,0,.15,0,.17S439,140.46,438.93,140.44Zm-1.32-.76-.66-.38a.64.64,0,0,1-.17-.3c0-.13,0-.2.05-.16l.66.38a.5.5,0,0,1,.17.29c0,.09,0,.15,0,.17Zm-1-1.18a.72.72,0,0,1-.13-.34v-1c0-.1.06-.1.13,0a.67.67,0,0,1,.12.34v1s0,.05,0,.06S436.65,138.56,436.61,138.5Zm0-2a.65.65,0,0,1-.13-.34v-1c0-.1.06-.1.13,0a.64.64,0,0,1,.12.34v1s0,.06,0,.07S436.65,136.53,436.61,136.46Zm0-2a.69.69,0,0,1-.13-.34v-1c0-.1.06-.1.13,0a.67.67,0,0,1,.12.34v1s0,0,0,.06S436.65,134.49,436.61,134.43Z" style="fill:#fff"></path><path d="M437,132.88a1.1,1.1,0,0,0-.4-.87c-.23-.12-.41.05-.41.4a1.07,1.07,0,0,0,.41.86C436.83,133.4,437,133.22,437,132.88Z" style="fill:#455a64"></path><path d="M429.76,138.74l-.27-.16a.56.56,0,0,1-.18-.29c0-.13,0-.21.05-.17l.2.12v-.51c0-.09.06-.09.13,0a.72.72,0,0,1,.13.35v.6a.08.08,0,0,1,0,.06Zm-.93-.54-.66-.38a.6.6,0,0,1-.18-.29c0-.13,0-.21.05-.17l.66.38a.53.53,0,0,1,.17.29c0,.09,0,.15,0,.17S428.85,138.22,428.83,138.2Zm.86-1.14a.7.7,0,0,1-.12-.34v-1c0-.09.05-.09.12,0a.72.72,0,0,1,.13.34v1a.08.08,0,0,1,0,.06S429.74,137.12,429.69,137.06Zm-2.18.38-.66-.38a.64.64,0,0,1-.18-.3c0-.13,0-.2.05-.16l.66.38a.5.5,0,0,1,.17.29c0,.09,0,.15,0,.17Zm2.18-2.41a.72.72,0,0,1-.13-.34v-1c0-.1.06-.1.13,0a.69.69,0,0,1,.13.34v1a.08.08,0,0,1,0,.06S429.74,135.09,429.69,135Zm-3.5,1.65-.66-.38a.64.64,0,0,1-.18-.3c0-.12,0-.2,0-.17l.66.38a.57.57,0,0,1,.17.3c0,.09,0,.15,0,.17Zm-1.32-.76-.66-.38a.64.64,0,0,1-.18-.3c0-.13,0-.2.05-.17l.66.38a.57.57,0,0,1,.17.3c0,.08,0,.15,0,.17S424.89,135.93,424.87,135.92Zm-1.32-.77-.66-.38a.56.56,0,0,1-.18-.29c0-.13,0-.21.05-.17l.66.38a.57.57,0,0,1,.17.3.19.19,0,0,1,0,.17S423.57,135.17,423.55,135.15Z" style="fill:#fff"></path><path d="M422.27,134.39s0-.08,0-.17a.53.53,0,0,0-.17-.29l-.66-.38c-.06,0-.08,0-.05.16a.59.59,0,0,0,.18.3l.66.38S422.26,134.4,422.27,134.39Z" style="fill:#fff"></path><path d="M421,133.63s0-.08,0-.17a.5.5,0,0,0-.17-.29l-.66-.39c-.06,0-.08,0-.05.17a.64.64,0,0,0,.18.3l.66.38Z" style="fill:#fff"></path><path d="M419.63,132.87s0-.09,0-.17a.57.57,0,0,0-.17-.3l-.66-.38c-.06,0-.08,0-.05.17a.56.56,0,0,0,.18.29l.66.39Z" style="fill:#fff"></path><path d="M418.31,132.1a.17.17,0,0,0,0-.16.57.57,0,0,0-.17-.3l-.66-.38c-.06,0-.08,0-.05.17a.6.6,0,0,0,.18.29l.66.38S418.3,132.12,418.31,132.1Z" style="fill:#fff"></path><path d="M452.72,128.82l-7.58-4.45a1.25,1.25,0,0,1-.53-1c0-.37.24-.54.53-.37l7.65,4.37a1.18,1.18,0,0,1,.49,1C453.26,128.8,453,129,452.72,128.82Z" style="fill:#f0f0f0"></path><path d="M452.2,150.92l-7.58-4.44a1.25,1.25,0,0,1-.53-1c0-.37.23-.54.52-.37l7.66,4.37a1.18,1.18,0,0,1,.49,1C452.74,150.91,452.49,151.09,452.2,150.92Z" style="fill:#f0f0f0"></path><path d="M416.4,134.49l-7.58-4.44a1.31,1.31,0,0,1-.53-1c0-.37.24-.54.53-.37l7.65,4.37a1.18,1.18,0,0,1,.49,1C417,134.47,416.69,134.66,416.4,134.49Z" style="fill:#f0f0f0"></path><path d="M414.1,108.39l-7.58-4.45a1.25,1.25,0,0,1-.53-1c0-.37.23-.54.52-.37l7.65,4.36a1.24,1.24,0,0,1,.5,1C414.64,108.37,414.39,108.56,414.1,108.39Z" style="fill:#f0f0f0"></path></g></g><g id="freepik--Sheet--inject-159"><polygon points="426.64 180.14 408.77 169.83 408.77 139.79 426.64 150.11 426.64 180.14" style="opacity:0.15"></polygon><path d="M425.33,180.43l-17-9.8a1,1,0,0,1-.45-.78v-29c0-.28.2-.4.45-.26l17,9.8a1,1,0,0,1,.45.78v29C425.78,180.45,425.58,180.57,425.33,180.43Z" style="fill:#fff"></path><path d="M423.62,154.78,410.09,147a1,1,0,0,1-.51-.7c0-.22.23-.28.51-.12L423.62,154a1,1,0,0,1,.5.71C424.12,154.88,423.9,154.94,423.62,154.78Z" style="fill:#e0e0e0"></path><path d="M423.62,156.92l-13.53-7.82a1,1,0,0,1-.51-.7c0-.23.23-.28.51-.12l13.53,7.81a1,1,0,0,1,.5.71C424.12,157,423.9,157.08,423.62,156.92Z" style="fill:#e0e0e0"></path><path d="M423.62,161.36l-13.53-7.81a1,1,0,0,1-.51-.7c0-.23.23-.29.51-.12l13.53,7.81a1,1,0,0,1,.5.7C424.12,161.47,423.9,161.52,423.62,161.36Z" style="fill:#e0e0e0"></path><path d="M423.62,163.5l-13.53-7.81a1,1,0,0,1-.51-.7c0-.23.23-.29.51-.13l13.53,7.82a1,1,0,0,1,.5.7C424.12,163.61,423.9,163.66,423.62,163.5Z" style="fill:#e0e0e0"></path><path d="M423.62,170.08l-13.53-7.81a1,1,0,0,1-.51-.7c0-.23.23-.28.51-.12l13.53,7.81a1,1,0,0,1,.5.7C424.12,170.19,423.9,170.24,423.62,170.08Z" style="fill:#e0e0e0"></path><path d="M423.62,167.94l-13.53-7.81a1,1,0,0,1-.51-.7c0-.23.23-.28.51-.12l13.53,7.81a1,1,0,0,1,.5.7C424.12,168.05,423.9,168.1,423.62,167.94Z" style="fill:#e0e0e0"></path><g id="freepik--Pushpin--inject-159"><path d="M415.86,148.24l0,0,.06.05c.05,0,.07,0,.11,0l.34-.2.48-.29.55-.33c.05,0-.05-.22-.11-.19l-.56.31-.49.27-.34.19s-.08,0-.08.09a.09.09,0,0,0,0,.07Z" style="fill:#e0e0e0"></path><path d="M415.51,148.48c.27.46.7.71,1.15.46h0a.5.5,0,0,0,.19-.44,1.53,1.53,0,0,0-.69-1.19.53.53,0,0,0-.46-.06l0,0a.05.05,0,0,0,0,0A.83.83,0,0,0,415.51,148.48Z" style="fill:#e0e0e0"></path><g style="opacity:0.15"><path d="M415.51,148.48c.27.46.7.71,1.15.46h0a.5.5,0,0,0,.19-.44,1.53,1.53,0,0,0-.69-1.19.53.53,0,0,0-.46-.06l0,0a.05.05,0,0,0,0,0A.83.83,0,0,0,415.51,148.48Z"></path></g><path d="M415,149.39l-.51-.87a5.24,5.24,0,0,0,1.08-.74l0,0v0h0a.32.32,0,0,1,.34,0,1,1,0,0,1,.45.78.32.32,0,0,1-.13.29h0l-.09,0A4.54,4.54,0,0,0,415,149.39Z" style="fill:#e0e0e0"></path><path d="M414,148.68a.53.53,0,0,1,.53-.53.58.58,0,0,1,.19,0h0l.09,0a1.22,1.22,0,0,1,.54,1,.53.53,0,0,1,0,.13.55.55,0,0,1-.53.44.54.54,0,0,1-.54-.53.43.43,0,0,1,0-.05A.53.53,0,0,1,414,148.68Z" style="fill:#e0e0e0"></path><g style="opacity:0.15"><path d="M414,148.68a.53.53,0,0,1,.53-.53.58.58,0,0,1,.19,0h0l.09,0a1.22,1.22,0,0,1,.54,1,.53.53,0,0,1,0,.13.55.55,0,0,1-.53.44.54.54,0,0,1-.54-.53.43.43,0,0,1,0-.05A.53.53,0,0,1,414,148.68Z"></path></g><path d="M414.55,148.41c-.3-.17-.54,0-.54.31a1.19,1.19,0,0,0,.54.94c.3.18.54,0,.54-.31A1.19,1.19,0,0,0,414.55,148.41Z" style="fill:#e0e0e0"></path></g></g><g id="freepik--sheet--inject-159"><polygon points="479.24 141.97 461.38 131.66 461.38 101.62 479.24 111.94 479.24 141.97" style="opacity:0.15"></polygon><path d="M477.94,142.26l-17-9.8a1,1,0,0,1-.45-.78v-29c0-.28.2-.4.45-.26l17,9.8a1,1,0,0,1,.45.78v29C478.39,142.28,478.19,142.4,477.94,142.26Z" style="fill:#fff"></path><path d="M476.22,116.61l-13.53-7.82a1,1,0,0,1-.5-.7c0-.22.22-.28.5-.12l13.53,7.81a1,1,0,0,1,.5.71C476.72,116.71,476.5,116.77,476.22,116.61Z" style="fill:#e0e0e0"></path><path d="M476.22,118.75l-13.53-7.82a1,1,0,0,1-.5-.7c0-.23.22-.28.5-.12l13.53,7.81a1,1,0,0,1,.5.71C476.72,118.85,476.5,118.91,476.22,118.75Z" style="fill:#e0e0e0"></path><path d="M476.22,123.19l-13.53-7.81a1,1,0,0,1-.5-.7c0-.23.22-.29.5-.12l13.53,7.81a1,1,0,0,1,.5.7C476.72,123.3,476.5,123.35,476.22,123.19Z" style="fill:#e0e0e0"></path><path d="M476.22,125.33l-13.53-7.81a1,1,0,0,1-.5-.7c0-.23.22-.29.5-.13l13.53,7.82a1,1,0,0,1,.5.7C476.72,125.44,476.5,125.49,476.22,125.33Z" style="fill:#e0e0e0"></path><path d="M476.22,131.91l-13.53-7.81a1,1,0,0,1-.5-.7c0-.23.22-.28.5-.12l13.53,7.81a1,1,0,0,1,.5.7C476.72,132,476.5,132.07,476.22,131.91Z" style="fill:#e0e0e0"></path><path d="M476.22,129.77,462.69,122a1,1,0,0,1-.5-.7c0-.23.22-.28.5-.12L476.22,129a1,1,0,0,1,.5.7C476.72,129.88,476.5,129.93,476.22,129.77Z" style="fill:#e0e0e0"></path><g id="freepik--pushpin--inject-159"><path d="M468.47,110.07l0,0,.06,0c.05,0,.07,0,.12,0l.34-.2.48-.29c.17-.1.36-.21.54-.33s0-.22-.11-.19l-.56.31-.49.27-.34.19s-.08,0-.08.09a.17.17,0,0,0,0,.07Z" style="fill:#e0e0e0"></path><path d="M468.12,110.31c.26.46.69.71,1.14.46h0a.48.48,0,0,0,.19-.44,1.52,1.52,0,0,0-.69-1.19.52.52,0,0,0-.46-.06l0,0,0,0A.83.83,0,0,0,468.12,110.31Z" style="fill:#e0e0e0"></path><g style="opacity:0.15"><path d="M468.12,110.31c.26.46.69.71,1.14.46h0a.48.48,0,0,0,.19-.44,1.52,1.52,0,0,0-.69-1.19.52.52,0,0,0-.46-.06l0,0,0,0A.83.83,0,0,0,468.12,110.31Z"></path></g><path d="M467.57,111.21l-.51-.86a5.27,5.27,0,0,0,1.07-.74l0,0,0,0h0a.32.32,0,0,1,.34,0,1,1,0,0,1,.44.78.32.32,0,0,1-.13.29h0l-.08,0A4.84,4.84,0,0,0,467.57,111.21Z" style="fill:#e0e0e0"></path><path d="M466.62,110.51a.54.54,0,0,1,.54-.53.63.63,0,0,1,.19,0h0l.08,0a1.22,1.22,0,0,1,.54.94.57.57,0,0,1,0,.14.53.53,0,0,1-1.06-.09v0A.55.55,0,0,1,466.62,110.51Z" style="fill:#e0e0e0"></path><g style="opacity:0.15"><path d="M466.62,110.51a.54.54,0,0,1,.54-.53.63.63,0,0,1,.19,0h0l.08,0a1.22,1.22,0,0,1,.54.94.57.57,0,0,1,0,.14.53.53,0,0,1-1.06-.09v0A.55.55,0,0,1,466.62,110.51Z"></path></g><path d="M467.16,110.24c-.3-.17-.55,0-.55.31a1.2,1.2,0,0,0,.55.94c.3.18.54,0,.54-.31A1.19,1.19,0,0,0,467.16,110.24Z" style="fill:#e0e0e0"></path></g></g><g id="freepik--Calendar--inject-159"><polygon points="400.97 168.43 360.99 145.35 360.99 74.05 400.97 97.13 400.97 168.43" style="opacity:0.15"></polygon><polygon points="399.8 135.2 359.82 112.11 359.82 74.8 399.8 97.88 399.8 135.2" style="fill:#fafafa"></polygon><polygon points="398.32 130.21 361.3 108.83 361.3 79.54 398.32 100.92 398.32 130.21" style="fill:#e0e0e0"></polygon><polygon points="398.32 130.21 361.3 108.83 361.3 79.54 398.32 100.92 398.32 130.21" style="fill:#fff;opacity:0.8"></polygon><polygon points="361.3 94.12 398.32 115.49 398.32 130.21 361.3 108.83 361.3 94.12" style="fill:#e0e0e0"></polygon><path d="M398.32,115.49,376.67,103s-8.67-2.52-6.76.53,9.27,5.32,13,12.74c2.94,5.77,15.36,12,15.36,12Z" style="fill:#e0e0e0"></path><path d="M398.32,115.49,376.67,103s-8.67-2.52-6.76.53,9.27,5.32,13,12.74c2.94,5.77,15.36,12,15.36,12Z" style="fill:#fff;opacity:0.65"></path><path d="M379.29,104.5S370.92,88.36,368.51,86s-3.51.68-4.14.41-3.07-6.86-3.07-6.86V94.12Z" style="fill:#e0e0e0"></path><path d="M379.29,104.5S370.92,88.36,368.51,86s-3.51.68-4.14.41-3.07-6.86-3.07-6.86V94.12Z" style="opacity:0.1"></path><path d="M388.43,109.78A6.39,6.39,0,0,0,386,106.9c-1.72-1-4.2-3.21-4.9-5.27s-2.67-7-4.61-7.75-6.32,5.35-6.32,5.35Z" style="fill:#e0e0e0"></path><path d="M391.38,102c0-1.89,1-2.85,2.23-2.14s2.22,2.82,2.22,4.71-1,2.85-2.22,2.14S391.38,103.89,391.38,102Z" style="fill:#fff"></path><g id="freepik--calendar--inject-159"><polygon points="398.66 135.94 358.55 112.78 358.55 147.18 398.66 170.34 398.66 135.94" style="fill:#fafafa"></polygon><polygon points="399.8 135.27 399.8 169.68 398.66 170.34 398.66 135.94 399.8 135.27" style="fill:#e0e0e0"></polygon><polygon points="358.55 112.78 359.69 112.11 399.8 135.27 398.66 135.94 358.55 112.78" style="fill:#e0e0e0"></polygon><g style="opacity:0.5"><polygon points="358.55 112.78 359.69 112.11 399.8 135.27 398.66 135.94 358.55 112.78" style="fill:#fff"></polygon></g><polygon points="399.8 135.27 398.66 135.94 398.66 142.55 399.8 141.89 399.8 135.27" style="fill:#e0e0e0"></polygon><g style="opacity:0.5"><polygon points="399.8 135.27 398.66 135.94 398.66 142.55 399.8 141.89 399.8 135.27" style="fill:#455a64"></polygon></g><polygon points="398.66 142.55 358.55 119.39 358.55 112.78 398.66 135.94 398.66 142.55" style="fill:#e0e0e0"></polygon><path d="M395.93,144.69c0,.36-.27.5-.61.3l-3-1.73a1.32,1.32,0,0,1-.62-1c0-.37.28-.51.62-.31l3,1.73A1.31,1.31,0,0,1,395.93,144.69Z" style="fill:#455a64"></path><path d="M390.86,141.76c0,.36-.27.5-.61.31l-3-1.74a1.32,1.32,0,0,1-.61-1c0-.37.28-.51.61-.31l3,1.73A1.31,1.31,0,0,1,390.86,141.76Z" style="fill:#455a64"></path><path d="M385.79,138.83c0,.36-.28.5-.61.31l-3-1.74a1.3,1.3,0,0,1-.61-1c0-.37.27-.51.61-.31l3,1.73A1.34,1.34,0,0,1,385.79,138.83Z" style="fill:#455a64"></path><path d="M380.72,135.9c0,.36-.28.5-.62.31l-3-1.74a1.3,1.3,0,0,1-.61-1c0-.37.27-.51.61-.31l3,1.73A1.35,1.35,0,0,1,380.72,135.9Z" style="fill:#455a64"></path><path d="M375.64,133c0,.36-.27.5-.61.31l-3-1.74a1.32,1.32,0,0,1-.61-1c0-.37.28-.5.61-.31l3,1.74A1.28,1.28,0,0,1,375.64,133Z" style="fill:#455a64"></path><path d="M370.57,130c0,.37-.27.5-.61.31l-3-1.74a1.28,1.28,0,0,1-.61-1c0-.37.27-.5.61-.31l3,1.74A1.3,1.3,0,0,1,370.57,130Z" style="fill:#455a64"></path><path d="M365.5,127.11c0,.37-.28.5-.61.31l-3-1.74a1.28,1.28,0,0,1-.61-1c0-.36.27-.5.61-.31l3,1.74A1.31,1.31,0,0,1,365.5,127.11Z" style="fill:#455a64"></path><polygon points="395.67 148.16 391.98 146.04 391.98 149.36 395.67 151.54 395.67 148.16" style="fill:#e0e0e0"></polygon><polygon points="395.67 152.83 391.98 150.71 391.98 154.03 395.67 156.21 395.67 152.83" style="fill:#e0e0e0"></polygon><polygon points="395.67 157.5 391.98 155.38 391.98 158.71 395.67 160.88 395.67 157.5" style="fill:#e0e0e0"></polygon><polygon points="395.67 162.18 391.98 160.05 391.98 163.38 395.67 165.55 395.67 162.18" style="fill:#e0e0e0"></polygon><polygon points="390.6 145.23 386.9 143.11 386.9 146.43 390.6 148.61 390.6 145.23" style="fill:#e0e0e0"></polygon><polygon points="390.6 149.9 386.9 147.78 386.9 151.1 390.6 153.28 390.6 149.9" style="fill:#e0e0e0"></polygon><polygon points="390.6 154.57 386.9 152.45 386.9 155.78 390.6 157.95 390.6 154.57" style="fill:#e0e0e0"></polygon><polygon points="390.6 159.24 386.9 157.12 386.9 160.45 390.6 162.62 390.6 159.24" style="fill:#e0e0e0"></polygon><polygon points="385.52 142.3 381.83 140.18 381.83 143.5 385.52 145.68 385.52 142.3" style="fill:#e0e0e0"></polygon><polygon points="385.52 146.97 381.83 144.85 381.83 148.17 385.52 150.35 385.52 146.97" style="fill:#e0e0e0"></polygon><polygon points="385.52 151.64 381.83 149.52 381.83 152.84 385.52 155.02 385.52 151.64" style="fill:#e0e0e0"></polygon><polygon points="385.52 156.31 381.83 154.19 381.83 157.51 385.52 159.69 385.52 156.31" style="fill:#e0e0e0"></polygon><polygon points="380.44 139.37 376.75 137.25 376.75 140.57 380.44 142.75 380.44 139.37" style="fill:#e0e0e0"></polygon><polygon points="380.44 144.04 376.75 141.92 376.75 145.24 380.44 147.42 380.44 144.04" style="fill:#e0e0e0"></polygon><polygon points="380.44 148.71 376.75 146.59 376.75 149.91 380.44 152.09 380.44 148.71" style="fill:#e0e0e0"></polygon><polygon points="380.44 153.38 376.75 151.26 376.75 154.58 380.44 156.76 380.44 153.38" style="fill:#e0e0e0"></polygon><polygon points="375.37 136.44 371.67 134.31 371.67 137.64 375.37 139.82 375.37 136.44" style="fill:#e0e0e0"></polygon><polygon points="375.37 141.11 371.67 138.99 371.67 142.31 375.37 144.49 375.37 141.11" style="fill:#e0e0e0"></polygon><polygon points="375.37 145.78 371.67 143.66 371.67 146.98 375.37 149.16 375.37 145.78" style="fill:#e0e0e0"></polygon><polygon points="375.37 150.45 371.67 148.33 371.67 151.65 375.37 153.83 375.37 150.45" style="fill:#e0e0e0"></polygon><polygon points="370.29 133.51 366.6 131.38 366.6 134.71 370.29 136.89 370.29 133.51" style="fill:#e0e0e0"></polygon><polygon points="370.29 138.18 366.6 136.06 366.6 139.38 370.29 141.56 370.29 138.18" style="fill:#e0e0e0"></polygon><polygon points="370.29 142.85 366.6 140.72 366.6 144.05 370.29 146.23 370.29 142.85" style="fill:#e0e0e0"></polygon><polygon points="370.29 147.52 366.6 145.4 366.6 148.72 370.29 150.9 370.29 147.52" style="fill:#e0e0e0"></polygon><polygon points="365.21 130.58 361.52 128.45 361.52 131.78 365.21 133.96 365.21 130.58" style="fill:#e0e0e0"></polygon><polygon points="365.21 135.25 361.52 133.12 361.52 136.45 365.21 138.63 365.21 135.25" style="fill:#e0e0e0"></polygon><polygon points="365.21 139.92 361.52 137.79 361.52 141.12 365.21 143.3 365.21 139.92" style="fill:#e0e0e0"></polygon><polygon points="365.21 144.59 361.52 142.47 361.52 145.79 365.21 147.97 365.21 144.59" style="fill:#e0e0e0"></polygon><path d="M361.62,127.26l-.29.61a.08.08,0,0,1-.1,0l-.64-.25c-.1,0-.14.11-.07.25l.47.87a.26.26,0,0,1,0,.17l-.11.79c0,.12.09.29.18.28l.58-.07s.08,0,.11.06l.58.74c.09.11.2.07.18-.07l-.11-.92a.13.13,0,0,1,0-.13l.46-.33c.08-.06,0-.25-.07-.33l-.64-.49a.26.26,0,0,1-.09-.15l-.29-.94C361.79,127.24,361.66,127.16,361.62,127.26Z" style="fill:#f28f8f"></path><path d="M375.93,147.8a1.59,1.59,0,0,1,1-1.56c.83-.3,1.53.36,2,.91.14.15-.11.22-.22.12-.53-.51-1.52-1-2.09-.34a2.39,2.39,0,0,0,0,2.4,3.41,3.41,0,0,0,3.14,2.29c3.1-.23-.26-5.69-2.09-6-.15,0-.26-.25-.06-.28.93-.16,1.59.67,2.17,1.29a7.18,7.18,0,0,1,1.48,2.36c.62,1.65-.29,3.67-2.3,3A4.36,4.36,0,0,1,375.93,147.8Z" style="fill:#f28f8f"></path><path d="M381.53,145.82a4.28,4.28,0,0,1,.56-.64c.07-.09.25,0,.21.12-.11.26-.33.4-.46.63l-.08.12a3.55,3.55,0,0,1,1.3-.43,4.49,4.49,0,0,1,2.66.24c.09,0,0,.11,0,.12a1.28,1.28,0,0,1-.39-.07,5,5,0,0,0-1.39-.1,4.35,4.35,0,0,0-1.95.5,1.26,1.26,0,0,1,1.24.3s0,.12,0,.12a7.72,7.72,0,0,1-.83-.06,3.1,3.1,0,0,0-1,.18c-.13,0-.22-.09-.22-.21A2,2,0,0,1,381.53,145.82Z" style="fill:#f28f8f"></path></g><g id="freepik--pushpin--inject-159"><path d="M379,89.31l0,0a.15.15,0,0,0,.06,0s.06,0,.11,0l.34-.2.48-.28.54-.34c.06,0,0-.22-.11-.19l-.56.31-.49.27-.34.2s-.08,0-.08.08,0,0,0,.07Z" style="fill:#455a64"></path><path d="M378.6,89.55c.26.46.69.71,1.15.46h0a.48.48,0,0,0,.19-.44,1.55,1.55,0,0,0-.68-1.19.53.53,0,0,0-.46-.06l0,0,0,0A.84.84,0,0,0,378.6,89.55Z" style="fill:#37474f"></path><path d="M378.05,90.46l-.51-.87a5,5,0,0,0,1.07-.74s0,0,0,0l0,0h0a.3.3,0,0,1,.34,0,1,1,0,0,1,.44.77.32.32,0,0,1-.13.29h0l-.08,0A4.36,4.36,0,0,0,378.05,90.46Z" style="fill:#455a64"></path><path d="M377.1,89.75a.54.54,0,0,1,.54-.53.63.63,0,0,1,.19,0h0l.08,0a1.2,1.2,0,0,1,.55.94.51.51,0,0,1,0,.13.53.53,0,0,1-1.06-.09v-.05A.55.55,0,0,1,377.1,89.75Z" style="fill:#37474f"></path><path d="M377.64,89.48c-.3-.17-.55,0-.55.32a1.23,1.23,0,0,0,.55.94c.3.17.54,0,.54-.32A1.22,1.22,0,0,0,377.64,89.48Z" style="fill:#455a64"></path></g></g><g id="freepik--Tube--inject-159"><path d="M482.61,102.29l3-5.17L355.23,21.86h0a1.46,1.46,0,0,0-1.53.11,4.68,4.68,0,0,0-2.1,3.66,1.52,1.52,0,0,0,.57,1.33h0l0,0h0Z" style="fill:#f0f0f0"></path><path d="M482,100.92a4.65,4.65,0,0,1,2.11-3.65c1.16-.67,2.1-.13,2.1,1.22a4.68,4.68,0,0,1-2.1,3.65C482.92,102.81,482,102.26,482,100.92Z" style="fill:#e0e0e0"></path></g><g id="freepik--sheet--inject-159"><polygon points="397.85 80 379.99 69.68 379.99 39.65 397.85 49.96 397.85 80" style="opacity:0.15"></polygon><path d="M396.55,80.28l-17-9.79a1,1,0,0,1-.45-.78v-29c0-.29.21-.4.45-.26l17,9.79A1,1,0,0,1,397,51V80C397,80.31,396.8,80.42,396.55,80.28Z" style="fill:#fff"></path><path d="M394.83,54.63,381.3,46.82a1,1,0,0,1-.5-.7c0-.23.22-.28.5-.12l13.53,7.81a1,1,0,0,1,.51.7C395.34,54.74,395.11,54.79,394.83,54.63Z" style="fill:#e0e0e0"></path><path d="M394.83,56.77,381.3,49a1,1,0,0,1-.5-.7c0-.23.22-.28.5-.12L394.83,56a1,1,0,0,1,.51.7C395.34,56.88,395.11,56.93,394.83,56.77Z" style="fill:#e0e0e0"></path><path d="M394.83,61.21,381.3,53.4a1,1,0,0,1-.5-.7c0-.23.22-.28.5-.12l13.53,7.81a1,1,0,0,1,.51.7C395.34,61.32,395.11,61.37,394.83,61.21Z" style="fill:#e0e0e0"></path><path d="M394.83,63.35,381.3,55.54a1,1,0,0,1-.5-.7c0-.23.22-.28.5-.12l13.53,7.81a1,1,0,0,1,.51.7C395.34,63.46,395.11,63.51,394.83,63.35Z" style="fill:#e0e0e0"></path><path d="M394.83,69.94,381.3,62.13a1,1,0,0,1-.5-.71c0-.22.22-.28.5-.12l13.53,7.81a1,1,0,0,1,.51.71C395.34,70,395.11,70.1,394.83,69.94Z" style="fill:#e0e0e0"></path><path d="M394.83,67.8,381.3,60a1,1,0,0,1-.5-.71c0-.22.22-.28.5-.12L394.83,67a1,1,0,0,1,.51.71C395.34,67.9,395.11,68,394.83,67.8Z" style="fill:#e0e0e0"></path><g id="freepik--pushpin--inject-159"><path d="M387.08,48.09l0,0,.07,0s.06,0,.11,0l.34-.2.48-.28.54-.34c.06,0,0-.21-.11-.18l-.56.3-.49.27-.34.2s-.08,0-.08.08,0,.05,0,.08Z" style="fill:#e0e0e0"></path><path d="M386.73,48.34a.85.85,0,0,0,1.15.46l0,0h0a.47.47,0,0,0,.19-.43,1.54,1.54,0,0,0-.68-1.19.5.5,0,0,0-.46-.06h0l0,0A.84.84,0,0,0,386.73,48.34Z" style="fill:#e0e0e0"></path><g style="opacity:0.15"><path d="M386.73,48.34a.85.85,0,0,0,1.15.46l0,0h0a.47.47,0,0,0,.19-.43,1.54,1.54,0,0,0-.68-1.19.5.5,0,0,0-.46-.06h0l0,0A.84.84,0,0,0,386.73,48.34Z"></path></g><path d="M386.18,49.24l-.51-.87a5,5,0,0,0,1.07-.74l0,0,0,0h0a.28.28,0,0,1,.34,0,1,1,0,0,1,.44.77.32.32,0,0,1-.13.29h0s-.05,0-.08,0A4.14,4.14,0,0,0,386.18,49.24Z" style="fill:#e0e0e0"></path><path d="M385.23,48.54a.54.54,0,0,1,.54-.54.43.43,0,0,1,.19,0h0l.08,0a1.2,1.2,0,0,1,.55.94.68.68,0,0,1,0,.14.53.53,0,0,1-.53.44.54.54,0,0,1-.53-.54v0A.53.53,0,0,1,385.23,48.54Z" style="fill:#e0e0e0"></path><g style="opacity:0.15"><path d="M385.23,48.54a.54.54,0,0,1,.54-.54.43.43,0,0,1,.19,0h0l.08,0a1.2,1.2,0,0,1,.55.94.68.68,0,0,1,0,.14.53.53,0,0,1-.53.44.54.54,0,0,1-.53-.54v0A.53.53,0,0,1,385.23,48.54Z"></path></g><path d="M385.77,48.26c-.3-.17-.55,0-.55.32a1.21,1.21,0,0,0,.55.94c.3.17.54,0,.54-.32A1.22,1.22,0,0,0,385.77,48.26Z" style="fill:#e0e0e0"></path></g><polygon points="394.88 51.02 393.42 50.18 393.42 44.6 394.88 45.44 394.88 51.02" style="fill:#e0e0e0"></polygon></g><g id="freepik--sheet--inject-159"><polygon points="377.23 68.09 359.37 57.77 359.37 27.74 377.23 38.05 377.23 68.09" style="opacity:0.15"></polygon><path d="M375.93,68.37l-17-9.79a1,1,0,0,1-.45-.78v-29c0-.29.21-.4.45-.26l17,9.8a1,1,0,0,1,.45.77v29C376.38,68.4,376.18,68.52,375.93,68.37Z" style="fill:#fff"></path><path d="M374.21,42.72l-13.53-7.81a1,1,0,0,1-.5-.7c0-.23.22-.28.5-.12l13.53,7.81a1,1,0,0,1,.51.7C374.72,42.83,374.49,42.88,374.21,42.72Z" style="fill:#e0e0e0"></path><path d="M374.21,44.86l-13.53-7.81a1,1,0,0,1-.5-.7c0-.23.22-.28.5-.12L374.21,44a1,1,0,0,1,.51.7C374.72,45,374.49,45,374.21,44.86Z" style="fill:#e0e0e0"></path><path d="M374.21,49.31l-13.53-7.82a1,1,0,0,1-.5-.7c0-.23.22-.28.5-.12l13.53,7.81a1,1,0,0,1,.51.71C374.72,49.41,374.49,49.47,374.21,49.31Z" style="fill:#e0e0e0"></path><path d="M374.21,51.45l-13.53-7.82a1,1,0,0,1-.5-.7c0-.23.22-.28.5-.12l13.53,7.81a1,1,0,0,1,.51.71C374.72,51.55,374.49,51.61,374.21,51.45Z" style="fill:#e0e0e0"></path><path d="M374.21,58l-13.53-7.81a1,1,0,0,1-.5-.71c0-.22.22-.28.5-.12l13.53,7.82a1,1,0,0,1,.51.7C374.72,58.14,374.49,58.19,374.21,58Z" style="fill:#e0e0e0"></path><path d="M374.21,55.89l-13.53-7.81a1,1,0,0,1-.5-.7c0-.23.22-.29.5-.13l13.53,7.82a1,1,0,0,1,.51.7C374.72,56,374.49,56.05,374.21,55.89Z" style="fill:#e0e0e0"></path><g id="freepik--pushpin--inject-159"><path d="M366.46,36.18l0,0,.07,0s.06,0,.11,0L367,36l.48-.29.54-.33c.06,0,0-.22-.11-.19l-.56.3-.49.28-.34.19s-.08,0-.08.08,0,.06,0,.08Z" style="fill:#e0e0e0"></path><path d="M366.11,36.43a.84.84,0,0,0,1.15.46l0,0h0a.5.5,0,0,0,.19-.44,1.54,1.54,0,0,0-.68-1.19.5.5,0,0,0-.46-.06h0l0,0A.84.84,0,0,0,366.11,36.43Z" style="fill:#e0e0e0"></path><g style="opacity:0.15"><path d="M366.11,36.43a.84.84,0,0,0,1.15.46l0,0h0a.5.5,0,0,0,.19-.44,1.54,1.54,0,0,0-.68-1.19.5.5,0,0,0-.46-.06h0l0,0A.84.84,0,0,0,366.11,36.43Z"></path></g><path d="M365.56,37.33l-.51-.87a4.64,4.64,0,0,0,1.07-.74l0,0h0a.28.28,0,0,1,.34,0,1,1,0,0,1,.44.77.3.3,0,0,1-.13.29h0a.11.11,0,0,1-.08,0A4.46,4.46,0,0,0,365.56,37.33Z" style="fill:#e0e0e0"></path><path d="M364.61,36.63a.54.54,0,0,1,.54-.54.65.65,0,0,1,.19,0h0l.08,0a1.2,1.2,0,0,1,.55.94.59.59,0,0,1,0,.14.53.53,0,0,1-.53.44.54.54,0,0,1-.53-.54v0A.53.53,0,0,1,364.61,36.63Z" style="fill:#e0e0e0"></path><g style="opacity:0.15"><path d="M364.61,36.63a.54.54,0,0,1,.54-.54.65.65,0,0,1,.19,0h0l.08,0a1.2,1.2,0,0,1,.55.94.59.59,0,0,1,0,.14.53.53,0,0,1-.53.44.54.54,0,0,1-.53-.54v0A.53.53,0,0,1,364.61,36.63Z"></path></g><path d="M365.15,36.36c-.3-.18-.55,0-.55.31a1.2,1.2,0,0,0,.55.94c.3.17.54,0,.54-.31A1.19,1.19,0,0,0,365.15,36.36Z" style="fill:#e0e0e0"></path></g><polygon points="374.26 39.11 372.8 38.27 372.8 32.69 374.26 33.53 374.26 39.11" style="fill:#e0e0e0"></polygon></g><g id="freepik--note--inject-159"><polygon points="398.87 91.31 390.17 86.29 390.17 72.88 398.87 77.91 398.87 91.31" style="opacity:0.15"></polygon><g id="freepik--note--inject-159"><path d="M388.7,85.87l6,3.36c.67.38,1.11-.7,1.11-1.36.67.43,2.05.7,2.12-.16l.56-7.6-9.05-5.23Z" style="fill:#fff"></path><polygon points="389.46 74.88 398.51 80.11 398.51 78.43 389.46 73.2 389.46 74.88" style="fill:#f0f0f0"></polygon><polygon points="397.67 88.17 395.19 89.26 395.96 87.24 397.67 88.17" style="fill:#f0f0f0"></polygon></g></g></g></g><g id="freepik--Cabinet--inject-159"><g id="freepik--cabinet--inject-159"><g id="freepik--cabinet--inject-159"><polygon points="211.23 247.72 170.96 224.47 170.96 98.25 211.23 121.5 211.23 247.72" style="fill:#e0e0e0"></polygon><polygon points="211.23 121.5 280.28 81.63 280.28 207.85 211.23 247.72 211.23 121.5" style="fill:#ebebeb"></polygon><polygon points="280.28 81.63 211.23 121.5 170.96 98.25 240.01 58.38 280.28 81.63" style="fill:#f5f5f5"></polygon><polygon points="216.98 203.3 274.53 170.08 274.53 202.06 275.58 202.68 218.04 235.9 216.98 235.29 216.98 203.3" style="fill:#e0e0e0"></polygon><polygon points="218.04 203.91 275.59 170.69 275.58 202.68 218.04 235.9 218.04 203.91" style="fill:#f5f5f5"></polygon><path d="M240.14,196.57l7.83-4.51c1-.59,1.84-.32,1.84.59a3.71,3.71,0,0,1-1.84,2.73l-7.83,4.52c-1,.58-1.84.31-1.84-.6A3.71,3.71,0,0,1,240.14,196.57Z" style="fill:#e0e0e0"></path><polygon points="216.98 164.68 274.53 131.45 274.53 163.44 275.58 164.05 218.04 197.28 216.98 196.66 216.98 164.68" style="fill:#e0e0e0"></polygon><polygon points="218.04 165.29 275.59 132.06 275.58 164.05 218.04 197.28 218.04 165.29" style="fill:#f5f5f5"></polygon><path d="M240.14,158l7.83-4.52c1-.59,1.84-.32,1.84.6a3.68,3.68,0,0,1-1.84,2.72l-7.83,4.52c-1,.59-1.84.32-1.84-.6A3.71,3.71,0,0,1,240.14,158Z" style="fill:#e0e0e0"></path><polygon points="216.98 126.05 274.53 92.83 274.52 124.82 275.58 125.43 218.04 158.65 216.98 158.04 216.98 126.05" style="fill:#e0e0e0"></polygon><polygon points="218.04 126.67 275.58 93.44 275.58 125.43 218.04 158.65 218.04 126.67" style="fill:#f5f5f5"></polygon><path d="M240.14,119.32l7.83-4.51c1-.59,1.84-.32,1.84.59a3.71,3.71,0,0,1-1.84,2.73l-7.83,4.52c-1,.58-1.84.31-1.84-.6A3.69,3.69,0,0,1,240.14,119.32Z" style="fill:#e0e0e0"></path></g></g></g><g id="freepik--Character--inject-159"><g id="freepik--character--inject-159"><g id="freepik--Top--inject-159"><path id="freepik--Hair--inject-159" d="M349.1,88.57a9.72,9.72,0,0,0-5.74,4.53,17,17,0,0,0-1.81,8.05c.07,1.35.49,2.67.43,4-.13,2.92-.55,4.24-3.61,6.54-2.35,1.76-4.31,4.36-4.42,7.28-.08,2.12,1.07,3.92,1.69,5.24a5.19,5.19,0,0,1,.46,4.21,9.19,9.19,0,0,1-1,1.46,10.52,10.52,0,0,0,0,11.89,14.22,14.22,0,0,0,3,3c7.14,5.5,16.78,6.67,25.74,5.76a28.65,28.65,0,0,0,6.93-1.42,25.07,25.07,0,0,0,7.27-4.4,24.67,24.67,0,0,0,7.71-10.32c1.46-4.09,1.28-8.9-1.14-12.51-1.14-1.69-2.77-3.16-3.23-5.15-.66-2.8,1.21-5.58,1.26-8.46s-1.57-5.28-3.14-7.59c-1.43-2.11-2.87-3.77-3.2-6.29-.21-1.62-.6-3.23-.9-4.84C375.46,89.59,349.16,88.55,349.1,88.57Z" style="fill:#37474f"></path><path d="M389.7,172.19c2.79,2.34,8.37,2.88,21.43,4.69,4.11.57,10.06.91,14.13,1.69a48,48,0,0,0,14.1.56,15.62,15.62,0,0,0,4.92-1.19,16.08,16.08,0,0,0,4.73-3.77,7.45,7.45,0,0,0,1.72-2.46,2.45,2.45,0,0,0-2.44-3.53,8.45,8.45,0,0,0-2.11.39,31.61,31.61,0,0,1-9.44,1.35c-.76,0-.79-.52-.29-.91a8.11,8.11,0,0,1,.92-.49,20.71,20.71,0,0,0,2.36-1.41c1.41-1,2.94-2.54,2.42-4.43-.13-.44-1.44-.09-5.47,1.28-2.8,1-4.59.49-7.46,1.84a8.5,8.5,0,0,1-5.07.88c-3.28-.53-22.58-5.92-24-6.63,0,0-5.11-13.08-7.07-17.86-5.39-13.12-7-16.52-17.88-14.69,0,0,4.7,21.57,9.95,35.55C386.68,167.05,388.73,171.38,389.7,172.19Z" style="fill:#ffa8a7"></path><path d="M382.08,145.23a1.72,1.72,0,0,0,.39,0c.93-.23,1.2-1.19,1.51-1.92a2.58,2.58,0,0,0,3,1,2.69,2.69,0,0,0,1.48-2.29c.81.82,2,1.38,3,.61.61-.46.51-.87.42-1.57,1.35.32,3-.73,1.76-1.91-.83-.8-1.91-1.31-2.47-2.36-.63-1.2-1.12-2.52-1.76-3.73a11.64,11.64,0,0,0-4.28-5c-2.71-1.51-5.31-1-10.56-.7l1.65,7.91q.76,3.68,1.54,7.34c.12.6.11,2.48.65,2.76s1.92-1,1.77-1.08A3.51,3.51,0,0,0,382.08,145.23Z" style="fill:#407BFF"></path><path d="M382.08,145.23a1.72,1.72,0,0,0,.39,0c.93-.23,1.2-1.19,1.51-1.92a2.58,2.58,0,0,0,3,1,2.69,2.69,0,0,0,1.48-2.29c.81.82,2,1.38,3,.61.61-.46.51-.87.42-1.57,1.35.32,3-.73,1.76-1.91-.83-.8-1.91-1.31-2.47-2.36-.63-1.2-1.12-2.52-1.76-3.73a11.64,11.64,0,0,0-4.28-5c-2.71-1.51-5.31-1-10.56-.7l1.65,7.91q.76,3.68,1.54,7.34c.12.6.11,2.48.65,2.76s1.92-1,1.77-1.08A3.51,3.51,0,0,0,382.08,145.23Z" style="fill:#fff;opacity:0.75"></path><g id="freepik--Chest--inject-159"><path d="M346.11,130l12.48-2.3,15.94-.42c2.28-.1,10.74,6.57,16.56,14.67,3.23,4.51,4.36,11.12-2.19,18.27-.54,6.76,2,10.74,0,13,.21,5.14.79,19.49.79,19.49-4.73,12-36.22,12.11-50.39,1.88,1.39-7.87,8.48-16.59,9.05-23.6-2.37-2.71-1-3-2.71-11.81-1.38-7-4.41-19.61-4.08-21.68A12.84,12.84,0,0,1,346.11,130Z" style="fill:#407BFF"></path><path d="M346.11,130l12.48-2.3,15.94-.42c2.28-.1,10.74,6.57,16.56,14.67,3.23,4.51,4.36,11.12-2.19,18.27-.54,6.76,2,10.74,0,13,.21,5.14.79,19.49.79,19.49-4.73,12-36.22,12.11-50.39,1.88,1.39-7.87,8.48-16.59,9.05-23.6-2.37-2.71-1-3-2.71-11.81-1.38-7-4.41-19.61-4.08-21.68A12.84,12.84,0,0,1,346.11,130Z" style="fill:#fff;opacity:0.5"></path></g><g id="freepik--Head--inject-159"><path d="M355.66,120.34c.25-1.07-1.8-5.09-3-6.74-3.55-4.91-5.34-6.26-6.71-12.38a14.37,14.37,0,0,1,3.14-12.65c2.6-6.51,6.78-9.35,14.23-10a31.33,31.33,0,0,1,9.78,1c1.38.42,2.73,1,4.14,1.29a7.56,7.56,0,0,0,4.27-.1c.72-.27,1.58-.68,2.19-.21a1.58,1.58,0,0,1,.48,1.21,5.11,5.11,0,0,1-2.38,4.5c4-.51,5.11,3.41,4.93,4.93a4,4,0,0,1-2.19,3.15,3.78,3.78,0,0,1,.5,4.38,7.49,7.49,0,0,1-3.42,2.59c-4.07,2-7.52,5-11.11,7.75l-10.27,7.81-3.35,2.55C356.77,119.5,355.66,120.16,355.66,120.34Z" style="fill:#37474f"></path><path d="M376.44,87.12c3.94,2,7.44,4.84,7.18,19.2-.2,11.07-3.47,13.9-5.25,14.74s-4.65,1.13-8,.66v6.75s5.47,6.09,4.73,12.11c-16.7-5.21-19.1-11.87-19.1-11.87l-.56-16.2a3.79,3.79,0,0,1-4.47.14,6.4,6.4,0,0,1-1.8-9.5,4,4,0,0,1,6.72.93s-1.6-10.55,4.28-14.91C367,84,371.81,84.78,376.44,87.12Z" style="fill:#ffa8a7"></path><path d="M370.46,112.74a1.67,1.67,0,1,0,3.3.53Z" style="fill:#b16668"></path><circle cx="367.95" cy="102.98" r="1.49" style="fill:#263238"></circle><path d="M380.45,102.25a1.49,1.49,0,1,1-3,0,1.49,1.49,0,0,1,3,0Z" style="fill:#263238"></path><polygon points="373.4 101.5 374.3 110.67 379.4 108.93 373.4 101.5" style="fill:#f28f8f"></polygon><path d="M370.33,121.72c-3.08-.53-9.91-2.18-12.83-7.46a11.12,11.12,0,0,0,2.48,5.31c3,3.09,10.35,4.75,10.35,4.75Z" style="fill:#f28f8f"></path><path d="M364.8,99l3.08-2.1a2,2,0,0,1-.51,2.66A1.82,1.82,0,0,1,364.8,99Z" style="fill:#263238"></path><path d="M381.26,98.31l-3.78-.13a1.82,1.82,0,0,1,1.88-1.85A2,2,0,0,1,381.26,98.31Z" style="fill:#263238"></path><path d="M372.73,91.28c-1.73.3-3.78-2.57-7.23-1.35-3.73,1.32-2.54,5.51-5.21,7.8-2,1.74,0,6.56-2.18,7.53-1,.43-2.27-1.18-2.27-1.18s-1.87-2.8-1.42-9.23,9-10.73,15.18-11,12.58,3.82,12.58,9.61c0,0-1.52-3.57-4.44-4S374.29,91,372.73,91.28Z" style="fill:#37474f"></path></g></g><g id="freepik--Bottom--inject-159"><path d="M378,343.08c-.29,2.35,1,8.54,1,8.54s1.24,2,4.93,3.06l.55-8.89Z" style="fill:#263238"></path><polygon points="383.95 354.68 391.41 351.21 393.99 343.81 384.27 349.55 383.95 354.68"></polygon><path d="M391.94,333.17l-.34-1.7c1.19-.26,2.39,8.51,7.68,14.28,4.11,4.49,9.69,6.83,11.81,8.93,2.83,2.8-3.18,8.08-11.07,7.35-3.91-.36-10-2.12-11.85-4.51s-3-7-4.48-8.8-4.81-3.56-5.71-5.64c-.49-1.14-.21-3.75.19-6,.37-2,.38-3.83,1.46-4.14l.3,1.36c.2,1,1.32,2,5.44,1.68C387.23,335.88,392.2,335.21,391.94,333.17Z" style="fill:#455a64"></path><path d="M313.73,301.76c-1,1.81-1.83,13.68-1.83,13.68s3.26,3.77,5,4.82l3.91-11.58Z" style="fill:#263238"></path><polygon points="316.9 320.26 326.15 316.99 328.85 309.27 319.27 313.16 316.9 320.26"></polygon><path d="M320.45,294.52c-.66-.61-1.52.67-3.22,2.59a23.64,23.64,0,0,0-3.41,4.42c-1,2,1.88,6.28,3.73,8.63s2.34,4.61,2.74,8.22c.48,4.36,0,7.11,5.8,10.38,4.65,2.61,13.42,2.19,15.14.17,2.92-3.44-5.22-6.78-7.17-12.92-2.71-8.48-3.09-9.9-3.52-16Z" style="fill:#37474f"></path><path d="M332,274.13c-4.83,8.43-9.36,16.56-9.36,16.56l-2.76,4.05c-.78,1.05.53,4.42,3.05,6.13s6.08,1.6,6.94.89l2.37-2.58s5.77-5.56,13.11-12.71Z" style="fill:#ffa8a7"></path><path d="M384.81,226.77c.26-1.38.5-2.73.71-4.06v0c.21-1.37.39-2.71.56-4,0-.29.07-.57.1-.86.15-1.31.29-2.6.4-3.9h0l-25-10.72-1.37,33.56-.11,2.75h0a116.63,116.63,0,0,0-9.12,7.44c1.85,3,5.29,8.56,7.85,11.91,0,0-1.11,7.89-1.39,14.92,4.44-4.36,8.66-8.55,11.9-11.82l2.19-2.25c1.59-1.64,2.77-2.89,3.39-3.62l.08-.1.16-.2a2.4,2.4,0,0,0,.22-.3c.2-.34.43-.75.69-1.22.52-.95,1.14-2.18,1.82-3.73a95.79,95.79,0,0,0,5.24-15.89c.2-.81.4-1.64.6-2.5.34-1.48.63-2.9.91-4.3C384.68,227.46,384.74,227.11,384.81,226.77Z" style="fill:#f28f8f"></path><path d="M353.09,210.15l10.37-19s19.75-10.43,25.39-18c0,0,1.47,19,.54,33.91-1.3,20.94-4.85,39.75-9.4,46.78S335.82,296,335.82,296s-9.63-3-10.77-10.26c0,0,8.81-16.21,12.57-23.1,4.23-7.73,10.84-14.82,20.22-21.48C356.13,233.69,353.09,210.15,353.09,210.15Z" style="fill:#37474f"></path><path d="M392,333.38l-.3-1.44c-.74-3.64-1-15.85-2.09-27.65l-17.87,6c3.91,11,7.46,20.23,7.9,22.73l.36,1.66C380.19,337.43,392.51,337,392,333.38Z" style="fill:#ffa8a7"></path><path d="M348.72,230.89c-4.12-10.15-7.24-15.7-8.84-22.86-2.26-10.2-1.2-16.6,0-20,3.32-9.5,7.87-13.68,8.44-17.1,0,0,6,7.51,19.59,7.6,15.35.1,21-5.37,21-5.37-.27,6.18-.57,12.62-2.26,17.85-3.41,10.5-10.19,13.36-10.19,13.36l6,28.6c2.48,15,5,20.88,6.68,50.57,1.49,25.67,2.38,41.55,2.38,41.55s-4.88,3.95-14,3.23c0,0-7.74-23.33-10.72-32-5.71-16.66-7.73-21.49-5.78-37.17C361,259.19,353.44,242.51,348.72,230.89Z" style="fill:#455a64"></path></g><g id="freepik--Box--inject-159"><polygon points="403.96 164.14 362.57 188.04 403.97 211.94 445.36 188.04 403.96 164.14" style="fill:#407BFF"></polygon><polygon points="403.96 164.14 362.57 188.04 403.97 211.94 445.36 188.04 403.96 164.14" style="opacity:0.35000000000000003"></polygon><path d="M404,129.38v34.76l11.28,6.52L445.36,188V153.27Zm17.75,15.72,5.9,3.39a4.8,4.8,0,0,1,2.21,3.69c0,1.32-1,1.82-2.21,1.11l-5.9-3.39a4.76,4.76,0,0,1-2.22-3.69C419.5,144.89,420.49,144.39,421.72,145.1Z" style="fill:#407BFF"></path><path d="M362.58,153.27V188l30.1-17.38L404,164.14V129.38Zm25.85-7.06a4.76,4.76,0,0,1-2.22,3.69l-5.89,3.39c-1.22.71-2.21.21-2.21-1.11a4.77,4.77,0,0,1,2.21-3.69l5.89-3.39C387.44,144.39,388.43,144.89,388.43,146.21Z" style="fill:#407BFF"></path><path d="M362.58,153.27V188l30.1-17.38L404,164.14V129.38Zm25.85-7.06a4.76,4.76,0,0,1-2.22,3.69l-5.89,3.39c-1.22.71-2.21.21-2.21-1.11a4.77,4.77,0,0,1,2.21-3.69l5.89-3.39C387.44,144.39,388.43,144.89,388.43,146.21Z" style="opacity:0.25"></path><g id="freepik--Pot--inject-159"><path d="M371.85,172.34c-5.83,3.36-5.83,8.81,0,12.17s15.26,3.37,21.08,0,5.82-8.81,0-12.17S377.67,169,371.85,172.34Z" style="opacity:0.15"></path><path d="M391.66,179.18c5.07-5.18,8-18.1,3.1-22.2H369.6c-4.94,4.1-2,17,3.1,22.19l.14.15.17.17.46.4.12.1.38.29q.33.22.66.42a16.73,16.73,0,0,0,15.1,0h0c.22-.13.44-.27.66-.43l.35-.26.15-.12a4.28,4.28,0,0,0,.44-.4l.2-.19Z" style="fill:#37474f"></path><path d="M371.79,155.33c-5.75,3.31-5.75,8.69,0,12s15,3.32,20.79,0,5.74-8.69,0-12S377.53,152,371.79,155.33Z" style="fill:#455a64"></path><path d="M374.44,156.86c-4.27,2.47-4.27,6.47,0,8.94a17.1,17.1,0,0,0,15.48,0c4.28-2.47,4.28-6.47,0-8.94A17.1,17.1,0,0,0,374.44,156.86Z" style="fill:#263238"></path><path d="M389.92,161.1a17.16,17.16,0,0,0-15.48,0,7.19,7.19,0,0,0-2.56,2.35,7.11,7.11,0,0,0,2.56,2.35,17.1,17.1,0,0,0,15.48,0,7.11,7.11,0,0,0,2.56-2.35A7.19,7.19,0,0,0,389.92,161.1Z" style="fill:#e0e0e0"></path><path d="M389.25,145.37v16.38a3.45,3.45,0,0,1-2,2.84l-.1,0a8.75,8.75,0,0,1-3.11,1,11.46,11.46,0,0,1-3.41,0,8.75,8.75,0,0,1-3.11-1,.31.31,0,0,1-.1,0,3.45,3.45,0,0,1-2-2.84V145.37a7,7,0,1,1,13.91,0Z" style="fill:#407BFF"></path><path d="M389.25,145.37v16.38a3.45,3.45,0,0,1-2,2.84l-.1,0a8.75,8.75,0,0,1-3.11,1,11.46,11.46,0,0,1-3.41,0,8.75,8.75,0,0,1-3.11-1,.31.31,0,0,1-.1,0,3.45,3.45,0,0,1-2-2.84V145.37a7,7,0,1,1,13.91,0Z" style="fill:#fff;opacity:0.1"></path><path d="M382.29,138.41h0c-.15,0-4.81,1.2-4.81,6.9v19.32a.31.31,0,0,1-.1,0,3.45,3.45,0,0,1-2-2.84V145.37A7,7,0,0,1,382.29,138.41Z" style="opacity:0.1"></path><path d="M389.25,145.37v16.38a3.45,3.45,0,0,1-2,2.84l-.1,0V145.32c0-5.7-4.67-6.87-4.81-6.9h0A7,7,0,0,1,389.25,145.37Z" style="opacity:0.1"></path><g style="opacity:0.1"><path d="M384,144v21.65a11.46,11.46,0,0,1-3.41,0V144a10.08,10.08,0,0,1,1.7-5.57l0,1.09s0-1.1,0-1.09A10.08,10.08,0,0,1,384,144Z"></path></g><path d="M384,165.87a.23.23,0,0,1-.23-.23v-1.86a.24.24,0,0,1,.47,0v1.86A.23.23,0,0,1,384,165.87Zm-3.41-1.2a.24.24,0,0,1-.24-.23v-1.86a.23.23,0,0,1,.24-.23.23.23,0,0,1,.23.23v1.86A.23.23,0,0,1,380.59,164.67Zm3.41-2.51a.24.24,0,0,1-.23-.24v-1.86a.24.24,0,0,1,.47,0v1.86A.24.24,0,0,1,384,162.16ZM380.59,161a.23.23,0,0,1-.24-.23v-1.86a.23.23,0,0,1,.24-.23.23.23,0,0,1,.23.23v1.86A.23.23,0,0,1,380.59,161Zm3.41-2.51a.24.24,0,0,1-.23-.24v-1.85a.24.24,0,1,1,.47,0v1.85A.24.24,0,0,1,384,158.44Zm-3.41-1.21a.23.23,0,0,1-.24-.23v-1.86a.23.23,0,0,1,.24-.23.23.23,0,0,1,.23.23V157A.23.23,0,0,1,380.59,157.23Zm3.41-2.51a.24.24,0,0,1-.23-.23v-1.86a.24.24,0,1,1,.47,0v1.86A.24.24,0,0,1,384,154.72Zm-3.41-1.21a.23.23,0,0,1-.24-.23v-1.86a.23.23,0,0,1,.24-.23.23.23,0,0,1,.23.23v1.86A.23.23,0,0,1,380.59,153.51ZM384,151a.23.23,0,0,1-.23-.23v-1.86a.24.24,0,0,1,.47,0v1.86A.23.23,0,0,1,384,151Zm-3.41-1.21a.23.23,0,0,1-.24-.23V147.7a.23.23,0,0,1,.24-.23.23.23,0,0,1,.23.23v1.86A.23.23,0,0,1,380.59,149.79Zm3.41-2.51a.23.23,0,0,1-.23-.23v-1.86a.24.24,0,0,1,.47,0v1.86A.23.23,0,0,1,384,147.28Zm-3.41-1.2a.24.24,0,0,1-.24-.24V144a.24.24,0,0,1,.24-.24.23.23,0,0,1,.23.23v1.86A.23.23,0,0,1,380.59,146.08Zm3.39-2.52a.24.24,0,0,1-.24-.21,10.14,10.14,0,0,0-.3-1.79.23.23,0,1,1,.44-.12,10.19,10.19,0,0,1,.33,1.87.24.24,0,0,1-.22.25Zm-3.21-1.19h0a.22.22,0,0,1-.18-.27,10.75,10.75,0,0,1,.52-1.82.23.23,0,0,1,.3-.13.24.24,0,0,1,.14.3,10.81,10.81,0,0,0-.51,1.74A.22.22,0,0,1,380.77,142.37ZM383,140a.23.23,0,0,1-.21-.14,10.59,10.59,0,0,0-.53-1,.24.24,0,0,1-.31,0,.23.23,0,0,1-.07-.32l.19-.28a.3.3,0,0,1,.18-.08h0c.06,0,.14,0,.18.06s0,0,0,0h0a10.45,10.45,0,0,1,.74,1.36.22.22,0,0,1-.11.3A.19.19,0,0,1,383,140Z" style="fill:#e6e6e6"></path><path d="M381.42,139a.23.23,0,0,1-.09-.44,4.47,4.47,0,0,1,.89-.32.22.22,0,0,1,.24.06.22.22,0,0,1,0,.32h0a.24.24,0,0,1-.11.06,4.31,4.31,0,0,0-.81.29A.16.16,0,0,1,381.42,139Z" style="fill:#fafafa"></path><path d="M377.48,162.16a.23.23,0,0,1-.23-.23v-1.77a.23.23,0,1,1,.46,0v1.77A.23.23,0,0,1,377.48,162.16Zm0-3.54a.23.23,0,0,1-.23-.23v-1.77a.23.23,0,1,1,.46,0v1.77A.23.23,0,0,1,377.48,158.62Zm0-3.53a.23.23,0,0,1-.23-.24v-1.77a.23.23,0,1,1,.46,0v1.77A.23.23,0,0,1,377.48,155.09Zm0-3.54a.23.23,0,0,1-.23-.23v-1.77a.23.23,0,1,1,.46,0v1.77A.23.23,0,0,1,377.48,151.55Zm0-3.54a.23.23,0,0,1-.23-.23V146a.23.23,0,1,1,.46,0v1.77A.23.23,0,0,1,377.48,148Zm.06-3.53h0a.22.22,0,0,1-.2-.25,7.71,7.71,0,0,1,.4-1.78.23.23,0,0,1,.29-.14.25.25,0,0,1,.15.3,6.9,6.9,0,0,0-.38,1.67A.24.24,0,0,1,377.54,144.48Zm1.19-3.3a.25.25,0,0,1-.14,0,.23.23,0,0,1,0-.32,6.29,6.29,0,0,1,1.24-1.34.23.23,0,1,1,.29.36,6.14,6.14,0,0,0-1.15,1.24A.23.23,0,0,1,378.73,141.18Z" style="fill:#e6e6e6"></path><path d="M377.48,164.87a.23.23,0,0,1-.23-.23v-.93a.23.23,0,1,1,.46,0v.93A.23.23,0,0,1,377.48,164.87Z" style="fill:#fafafa"></path><path d="M383.16,139l-.09,0a4.61,4.61,0,0,0-.81-.29.27.27,0,0,1-.13-.07.24.24,0,0,1,0-.34.25.25,0,0,1,.25,0,5.33,5.33,0,0,1,.87.32.22.22,0,0,1,.11.3A.23.23,0,0,1,383.16,139Z" style="fill:#fafafa"></path><path d="M387.11,162.16a.23.23,0,0,1-.23-.23v-1.77a.23.23,0,0,1,.23-.23.23.23,0,0,1,.24.23v1.77A.23.23,0,0,1,387.11,162.16Zm0-3.54a.23.23,0,0,1-.23-.23v-1.77a.23.23,0,0,1,.23-.23.23.23,0,0,1,.24.23v1.77A.23.23,0,0,1,387.11,158.62Zm0-3.54a.23.23,0,0,1-.23-.23v-1.77a.23.23,0,0,1,.23-.23.23.23,0,0,1,.24.23v1.77A.23.23,0,0,1,387.11,155.08Zm0-3.53a.23.23,0,0,1-.23-.24v-1.77a.23.23,0,0,1,.23-.23.24.24,0,0,1,.24.23v1.77A.24.24,0,0,1,387.11,151.55Zm0-3.54a.23.23,0,0,1-.23-.24V146a.23.23,0,0,1,.23-.24.24.24,0,0,1,.24.24v1.76A.24.24,0,0,1,387.11,148Zm-.06-3.54a.23.23,0,0,1-.23-.2,7.16,7.16,0,0,0-.38-1.67.24.24,0,0,1,.14-.3.23.23,0,0,1,.3.14,7.62,7.62,0,0,1,.4,1.77.22.22,0,0,1-.2.26Zm-1.19-3.29a.22.22,0,0,1-.19-.1,5.92,5.92,0,0,0-1.16-1.24.23.23,0,1,1,.3-.36,6.86,6.86,0,0,1,1.24,1.34.23.23,0,0,1-.06.32A.2.2,0,0,1,385.86,141.18Z" style="fill:#e6e6e6"></path><path d="M387.11,164.87a.23.23,0,0,1-.23-.23v-.93a.23.23,0,0,1,.23-.23.23.23,0,0,1,.24.23v.93A.23.23,0,0,1,387.11,164.87Z" style="fill:#fafafa"></path><path d="M389.88,140.89a2.47,2.47,0,0,1-.56.51c-1.81,1.19-4.84-.07-5.41-2.15a4.33,4.33,0,0,1,.49-3.39,1.44,1.44,0,0,1,.48-.5.65.65,0,0,1,.66,0,1.05,1.05,0,0,1,.33.52,5.9,5.9,0,0,1,.27,1.65,3,3,0,0,1,2.43-1.54.36.36,0,0,1,.23,0,.38.38,0,0,1,.13.23,3.69,3.69,0,0,1-.32,2.78,9.64,9.64,0,0,1,1.23-.46c.44-.13.82-.09.82.31A3.12,3.12,0,0,1,389.88,140.89Z" style="fill:#455a64"></path></g><g id="freepik--Files--inject-159"><g id="freepik--File--inject-159"><path d="M405.29,116.72a.69.69,0,0,0-.68-.07l-.74.43.46,47.59a2.13,2.13,0,0,0,1,1.67l37.24,21.5,0-49.63Z" style="fill:#37474f"></path><path d="M404.57,117.14c-.53-.31-1-.06-1,.56v47.38a2.11,2.11,0,0,0,1,1.67l37.25,21.51,0-49.63Z" style="fill:#263238"></path><path d="M432.66,183.64,405.1,167.72a2.13,2.13,0,0,1-1-1.67V122.34l-3.6-2.06,3.68-2.13.06,0a.59.59,0,0,1,.82-.09l31.58,18.24V186l-4,2.32Z" style="fill:#ebebeb"></path><path d="M401.08,120.42c-.54-.3-1-.06-1,.56v47.39a2.16,2.16,0,0,0,1,1.67l31.59,18.24,0-49.62Z" style="fill:#fafafa"></path><polygon points="432.65 138.66 436.67 136.34 436.68 185.97 432.67 188.28 432.65 138.66" style="fill:#e6e6e6"></polygon><path d="M431.34,140a1.17,1.17,0,0,0-.08-.37,1.05,1.05,0,0,0-.29-.49.44.44,0,0,0-.15-.12c-.28-.17-.51,0-.51.39a1.33,1.33,0,0,0,.13.5,1,1,0,0,0,.38.47l.07,0C431.15,140.53,431.34,140.37,431.34,140Z" style="fill:#263238"></path><path d="M436.91,142.41a2.55,2.55,0,0,0,1.15-1.23,1.71,1.71,0,0,0-.13-1.52h0a2.64,2.64,0,0,0-1-1l-.24-.14v.63c1.29.77,1.28,2,0,2.74a5.27,5.27,0,0,1-4.77,0,1.59,1.59,0,0,1-1-1.51,1.29,1.29,0,0,1,.37-.78,1.05,1.05,0,0,0-.29-.49,2.09,2.09,0,0,0-.53.77,1.71,1.71,0,0,0,.13,1.52,2.66,2.66,0,0,0,1,1A5.81,5.81,0,0,0,436.91,142.41Z" style="fill:#263238"></path><path d="M432.42,143.4l-34.22-23,.52-.31a1.1,1.1,0,0,1,1,0L433.15,143Z" style="fill:#37474f"></path><path d="M398.88,120.43c-.54-.31-1-.06-1,.55v47.39a2.17,2.17,0,0,0,1,1.67L433,193.36l0-49.63Z" style="fill:#455a64"></path><polygon points="442.52 138.21 442.54 187.84 432.98 193.36 432.98 143.73 442.52 138.21" style="fill:#37474f"></polygon><polygon points="442.52 138.21 432.98 143.73 432.95 149.59 433.15 143.9 442.52 138.21" style="fill:#263238"></polygon><path d="M440.63,149.1a1.75,1.75,0,0,0-1.26-.87,2.5,2.5,0,0,0-1.64.38,5.81,5.81,0,0,0-2.66,4.61,2.75,2.75,0,0,0,.32,1.37,2,2,0,0,0,2.9.49,5.8,5.8,0,0,0,2.67-4.61,2.86,2.86,0,0,0-.33-1.37Z" style="fill:#407BFF"></path><path d="M438,149.09c1.32-.76,2.39-.15,2.39,1.38A5.27,5.27,0,0,1,438,154.6c-1.32.76-2.39.15-2.39-1.38A5.3,5.3,0,0,1,438,149.09Z" style="fill:#f5f5f5"></path><path d="M437.54,159.36l.73-.41c1.44-.84,2.62-.16,2.62,1.51V182a5.82,5.82,0,0,1-2.62,4.54l-.73.42c-1.45.83-2.62.16-2.62-1.52v-21.5A5.8,5.8,0,0,1,437.54,159.36Z" style="fill:#f5f5f5"></path><polygon points="441.95 137.88 432.44 143.37 432.98 143.73 442.52 138.21 441.95 137.88" style="fill:#37474f"></polygon></g></g><g id="freepik--pencil-can--inject-159"><g id="freepik--Can--inject-159"><path d="M412.69,165.3h-19l2.13,17.52h0a3.79,3.79,0,0,0,2.15,2.79,11.59,11.59,0,0,0,10.48,0,3.81,3.81,0,0,0,2.15-2.79h0Z" style="fill:#407BFF"></path><path d="M412.69,165.3h-19l2.13,17.52h0a3.79,3.79,0,0,0,2.15,2.79,11.59,11.59,0,0,0,10.48,0,3.81,3.81,0,0,0,2.15-2.79h0Z" style="fill:#fff;opacity:0.65"></path><path d="M396.44,161.41a14.87,14.87,0,0,1,13.47,0c3.72,2.15,3.72,5.63,0,7.78a14.87,14.87,0,0,1-13.47,0C392.72,167,392.72,163.56,396.44,161.41Z" style="fill:#407BFF"></path><path d="M396.44,161.41a14.87,14.87,0,0,1,13.47,0c3.72,2.15,3.72,5.63,0,7.78a14.87,14.87,0,0,1-13.47,0C392.72,167,392.72,163.56,396.44,161.41Z" style="fill:#fff;opacity:0.8"></path><path d="M403.18,169.69a12.64,12.64,0,0,1-6.19-1.46c-1.44-.83-2.23-1.87-2.23-2.93s.79-2.1,2.23-2.93a13.75,13.75,0,0,1,12.37,0c1.44.83,2.24,1.87,2.24,2.93s-.8,2.1-2.24,2.93A12.6,12.6,0,0,1,403.18,169.69Z" style="fill:#263238"></path></g><path d="M407.55,134.72l-1.1,26.54-.32,8.14a5.71,5.71,0,0,1-.72.13,13.53,13.53,0,0,1-2.23.17,13.7,13.7,0,0,1-4.36-.67l.32-7.56L400.39,131l.72-.38Z" style="fill:#407BFF"></path><path d="M406.82,135.1l-1.06,26-.35,8.41a13.53,13.53,0,0,1-2.23.17,13.7,13.7,0,0,1-4.36-.67l.32-7.56L400.39,131Z" style="fill:#407BFF"></path><polygon points="407.55 134.72 406.82 135.1 400.39 131.03 401.11 130.64 407.55 134.72" style="fill:#fff;opacity:0.5"></polygon><path d="M407.55,134.72l-1.1,26.54-.32,8.14a5.71,5.71,0,0,1-.72.13l.35-8.41,1.06-26Z" style="opacity:0.25"></path><g id="freepik--Pencil--inject-159"><path d="M399.89,169.33a10,10,0,0,1-2.66-1l-.79-5.64-1.94-13.79a2.8,2.8,0,0,0,2.07.41,3.65,3.65,0,0,0,.66-.12,2.35,2.35,0,0,0,1.61-.93l1.79,12.83.43,3a.08.08,0,0,1,0,0l.76,5.43a1.07,1.07,0,0,1-.25,0A12.68,12.68,0,0,1,399.89,169.33Z" style="fill:#455a64"></path><path d="M396.28,144.05c-.63.16-.85,0-.85,0l-.92,4.85a2.58,2.58,0,0,0,2.76.57l0-.24Z" style="fill:#ffa8a7"></path><polygon points="398.84 148.29 398.84 148.29 398.84 148.29 398.84 148.29 398.84 148.29 396.58 143.8 396.58 143.8 398.84 148.29" style="fill:#fafafa"></polygon><polygon points="396.58 143.8 396.04 142.71 396.58 143.8 396.58 143.8" style="fill:#e0e0e0"></polygon><path d="M395.68,142.76l-.25,1.32s.21.15.85,0l-.24-1.34h0a.2.2,0,0,0-.25-.09A.18.18,0,0,0,395.68,142.76Z" style="fill:#455a64"></path><path d="M401.58,169.61a12.68,12.68,0,0,1-1.69-.28l-1-7.78-1.59-12a2.37,2.37,0,0,0,1.57-1.22l1.79,12.83.43,3a.08.08,0,0,1,0,0l.76,5.43A1.07,1.07,0,0,1,401.58,169.61Z" style="opacity:0.1"></path><path d="M398.84,148.29h0l-2.26-4.49a.57.57,0,0,1-.3.25l1,5.21,0,.24A2.3,2.3,0,0,0,398.84,148.29Z" style="fill:#f28f8f"></path><path d="M396.28,144.05a.41.41,0,0,0,.3-.25l-.54-1.09Z" style="fill:#37474f"></path></g><g id="freepik--pencil--inject-159"><path d="M411.31,149.49l-.08.55-.09.61v0l-.12.92h0l0,.24-.12.92v0h0l-1.34,9.63-.86,6.16a11.52,11.52,0,0,1-2.49.79,15.89,15.89,0,0,1-1.87.26l1.18-8.58,1.25-8.89.13-.9.15-1.12h0l0-.09v0l.16-1.13a.36.36,0,0,0,0,.1.21.21,0,0,0,.06.1l.09.09a1.61,1.61,0,0,0,.42.24l.18.07a5,5,0,0,0,.87.23l.1,0,.5.08.25,0h.25a3.22,3.22,0,0,0,1-.09l.14,0,.06,0h0s0,0,0,0A.22.22,0,0,0,411.31,149.49Z" style="fill:#455a64"></path><path d="M411,151.57l-.17,1.22c0,.35-.83.47-1.71.43-1.16-.05-2.48-.56-2.43-1l.13-.9.05-.32c-.05.47,1.26,1,2.43,1,.84,0,1.6-.07,1.69-.39h0A0,0,0,0,0,411,151.57Z" style="fill:#ebebeb"></path><path d="M411,151.87c-.08.83-4.22.23-4.13-.6l.17-1.22c-.09.83,4,1.43,4.13.6Z" style="fill:#407BFF"></path><path d="M411.3,149.49l-.16,1.21c-.08.81-4.08.26-4.15-.53v0l.18-1.21C407.1,149.73,411.22,150.31,411.3,149.49Z" style="fill:#ebebeb"></path><path d="M411.31,149.49l-.08.55-.09.61v0l-.12.92h0l0,.24-.12.92v0h0l-1.34,9.63-.86,6.16a11.52,11.52,0,0,1-2.49.79l1.1-7.92,1.16-8.35.14-1,0-.23.13-.93v-.06l.15-1.07h0s0,0,0,0,0,0,0-.07l.1,0,.5.08.25,0h.25a3.22,3.22,0,0,0,1-.09l.2-.09.05,0A.22.22,0,0,0,411.31,149.49Z" style="opacity:0.15"></path><path d="M412,144.38l-.71,5.11c0,.35-.81.48-1.68.44-1.17-.05-2.49-.55-2.45-1h0l.71-5.13c.15-1,2.25-1,3.42-.38A1.08,1.08,0,0,1,412,144.38Z" style="fill:#f28f8f"></path><path d="M410.82,145.15a3.28,3.28,0,0,1-2.73-.87.72.72,0,0,1-.17-.66c.33-.86,2.27-.79,3.38-.23a1.08,1.08,0,0,1,.71,1C412,144.74,411.52,145.05,410.82,145.15Z" style="opacity:0.1"></path></g></g><g id="freepik--Book--inject-159"><polygon points="426.23 151.49 407.98 162.16 407.89 197.13 426.13 186.46 426.23 151.49" style="fill:#407BFF"></polygon><path d="M408.56,162.73l17.66-10.25a7.4,7.4,0,0,0,4,2.21L412.74,164.9A17.29,17.29,0,0,1,408.56,162.73Z" style="fill:#f5f5f5"></path><path d="M414.43,164.84a3.73,3.73,0,0,1-3.38,0l-3-1.71a1,1,0,0,1,0-2l17.4-10.11.74.43-17.12,10c-.56.33-.57.86,0,1.18l2.75,1.57a2.24,2.24,0,0,0,2,0l17.12-10,.83.48Z" style="fill:#407BFF"></path><path d="M414.43,164.84a3.73,3.73,0,0,1-3.38,0l-3-1.71a1,1,0,0,1,0-2l17.4-10.11.74.43-17.12,10c-.56.33-.57.86,0,1.18l2.75,1.57a2.24,2.24,0,0,0,2,0l17.12-10,.83.48Z" style="fill:#fff;opacity:0.6000000000000001"></path><path d="M431.84,154.73l-.09,35-17.41,10.11a3.72,3.72,0,0,1-3.39,0l-3-1.71a1.18,1.18,0,0,1-.7-1l.09-35a1.2,1.2,0,0,0,.7,1l3,1.72a3.73,3.73,0,0,0,3.38,0Z" style="fill:#407BFF"></path><path d="M431.84,154.73l-.09,35-17.41,10.11a3.72,3.72,0,0,1-3.39,0l-3-1.71a1.18,1.18,0,0,1-.7-1l.09-35a1.2,1.2,0,0,0,.7,1l3,1.72a3.73,3.73,0,0,0,3.38,0Z" style="fill:#fff;opacity:0.4"></path><path d="M412.74,165.25a3.43,3.43,0,0,1-1.69-.4l-3-1.72a1.2,1.2,0,0,1-.7-1l-.09,35a1.18,1.18,0,0,0,.7,1l3,1.71a3.47,3.47,0,0,0,1.7.4Z" style="fill:#407BFF"></path><path d="M412.74,165.25a3.43,3.43,0,0,1-1.69-.4l-3-1.72a1.2,1.2,0,0,1-.7-1l-.09,35a1.18,1.18,0,0,0,.7,1l3,1.71a3.47,3.47,0,0,0,1.7.4Z" style="fill:#fff;opacity:0.7000000000000001"></path></g><polygon points="403.97 211.94 445.36 188.04 445.36 153.28 403.97 177.18 403.97 211.94" style="fill:#407BFF"></polygon><polygon points="403.97 211.94 445.36 188.04 445.36 153.28 403.97 177.18 403.97 211.94" style="opacity:0.15"></polygon><path d="M362.57,153.27V188L404,212V177.18Zm23.64,23.93-5.89-3.41a4.74,4.74,0,0,1-2.22-3.67c0-1.33,1-1.84,2.22-1.13l5.89,3.41a4.74,4.74,0,0,1,2.21,3.67C388.42,177.4,387.43,177.9,386.21,177.2Z" style="fill:#407BFF"></path><path d="M365.39,180.38v4.06a4.46,4.46,0,0,0,2,3.47l9.17,5.29c1.1.64,2,.12,2-1.16V188a4.44,4.44,0,0,0-2-3.47l-9.17-5.29C366.29,178.58,365.39,179.1,365.39,180.38Z" style="opacity:0.2"></path></g><g id="freepik--Arm--inject-159"><path d="M326.8,184.93c1.88,5,11.85,8.8,23.26,12,5.51,1.55,16,4.38,18.1,5a85.06,85.06,0,0,0,16.59,2.47c3.67,0,4.21-1.18,4.21-1.18l-8.31-4.8-7.34-4.21c0-.55,7.56-.59,7.54-4.72,0-.46-1-.27-4.51-.45a71.32,71.32,0,0,0-7.57-.43c-1.2,0-4.09.23-6.19-.61-3.09-1.23-18.35-9.53-19.56-10.53l7.8-23S355,137,347.3,130.35c-7,1.12-10.33,2.66-13.06,13-4.74,18-6.7,25.87-7.7,34C326,181.62,326.36,183.75,326.8,184.93Z" style="fill:#ffa8a7"></path><path d="M347,129.85c-4.44.5-6.56.89-9.34,4.31a13.55,13.55,0,0,0-1.94,3.33c-.48,1.13-.8,2.32-1.31,3.42s-1.3,2.42-2.51,2.75c-.07,1.58,1.61,1.86,2.86,2a2,2,0,0,0-.05,2c.67,1,2,.51,3,.39-.91,2.31,2.75,2.78,4.31,2.32-.39.64-.39,1.18.26,1.62,1.4,1,2.79.31,3.89,0a1.23,1.23,0,0,0,.32,1.94,3.3,3.3,0,0,0,2.87,0,1.57,1.57,0,0,0,1.59,1.82,27.1,27.1,0,0,1,1.48-4.86C354.31,146.25,353.57,132.75,347,129.85Z" style="fill:#407BFF"></path><path d="M347,129.85c-4.44.5-6.56.89-9.34,4.31a13.55,13.55,0,0,0-1.94,3.33c-.48,1.13-.8,2.32-1.31,3.42s-1.3,2.42-2.51,2.75c-.07,1.58,1.61,1.86,2.86,2a2,2,0,0,0-.05,2c.67,1,2,.51,3,.39-.91,2.31,2.75,2.78,4.31,2.32-.39.64-.39,1.18.26,1.62,1.4,1,2.79.31,3.89,0a1.23,1.23,0,0,0,.32,1.94,3.3,3.3,0,0,0,2.87,0,1.57,1.57,0,0,0,1.59,1.82,27.1,27.1,0,0,1,1.48-4.86C354.31,146.25,353.57,132.75,347,129.85Z" style="fill:#fff;opacity:0.75"></path></g></g></g><g id="freepik--Desk--inject-159"><g id="freepik--Table--inject-159"><polygon points="267.37 268.36 267.37 265.33 267.37 265.33 267.37 242.16 270.04 240.67 270.04 266.88 343.3 309.24 343.3 312.33 270.04 269.91 270.04 328.77 267.37 330.26 267.37 268.36 267.37 268.36" style="fill:#407BFF"></polygon><polygon points="267.37 268.36 267.37 265.33 267.37 265.33 267.37 242.16 270.04 240.67 270.04 266.88 343.3 309.24 343.3 312.33 270.04 269.91 270.04 328.77 267.37 330.26 267.37 268.36 267.37 268.36" style="fill:#fff;opacity:0.30000000000000004"></polygon><polygon points="267.37 268.36 267.37 265.33 267.37 265.33 267.37 242.16 270.04 240.67 270.04 266.88 343.3 309.24 343.3 312.33 270.04 269.91 270.04 328.77 267.37 330.26 267.37 268.36 267.37 268.36" style="opacity:0.1"></polygon><path d="M264.69,237.64v91.13l2.68,1.49V271.35l75.93,44v58.87l2.68,1.59V287.68h0v-3ZM267.37,248l75.93,43.73v20.62l-75.93-44Z" style="fill:#407BFF"></path><path d="M264.69,237.64v91.13l2.68,1.49V271.35l75.93,44v58.87l2.68,1.59V287.68h0v-3ZM267.37,248l75.93,43.73v20.62l-75.93-44Z" style="fill:#fff;opacity:0.5"></path><polygon points="117.41 355.13 117.41 352.1 117.41 352.1 117.41 328.93 120.08 327.44 120.08 353.64 193.34 396.01 193.34 399.1 120.08 356.68 120.08 415.54 117.41 417.02 117.41 355.13 117.41 355.13" style="fill:#407BFF"></polygon><polygon points="117.41 355.13 117.41 352.1 117.41 352.1 117.41 328.93 120.08 327.44 120.08 353.64 193.34 396.01 193.34 399.1 120.08 356.68 120.08 415.54 117.41 417.02 117.41 355.13 117.41 355.13" style="fill:#fff;opacity:0.30000000000000004"></polygon><polygon points="117.41 355.13 117.41 352.1 117.41 352.1 117.41 328.93 120.08 327.44 120.08 353.64 193.34 396.01 193.34 399.1 120.08 356.68 120.08 415.54 117.41 417.02 117.41 355.13 117.41 355.13" style="opacity:0.1"></polygon><polygon points="345.98 284.86 345.98 284.64 346.17 284.75 348.65 283.31 348.65 286.13 348.65 292.52 348.65 374.23 345.98 375.77 345.98 294.06 198.69 378.84 198.69 460.99 196.01 462.54 196.01 380.38 196.01 371.41 196.01 371.4 345.98 284.86" style="fill:#407BFF"></polygon><polygon points="345.98 284.86 345.98 284.64 346.17 284.75 348.65 283.31 348.65 286.13 348.65 292.52 348.65 374.23 345.98 375.77 345.98 294.06 198.69 378.84 198.69 460.99 196.01 462.54 196.01 380.38 196.01 371.41 196.01 371.4 345.98 284.86" style="fill:#fff;opacity:0.5"></polygon><polygon points="345.98 284.86 345.98 284.64 346.17 284.75 348.65 283.31 348.65 286.13 348.65 292.52 348.65 374.23 345.98 375.77 345.98 294.06 198.69 378.84 198.69 460.99 196.01 462.54 196.01 380.38 196.01 371.41 196.01 371.4 345.98 284.86" style="opacity:0.1"></polygon><path d="M114.73,324.4v91.14l2.68,1.48v-58.9l75.93,44v58.86l2.67,1.6V371.41Zm2.68,30.73V334.74l75.93,43.73v20.62Z" style="fill:#407BFF"></path><path d="M114.73,324.4v91.14l2.68,1.48v-58.9l75.93,44v58.86l2.67,1.6V371.41Zm2.68,30.73V334.74l75.93,43.73v20.62Z" style="fill:#fff;opacity:0.5"></path><polygon points="196.01 371.41 114.73 324.4 267.37 236.31 348.65 283.31 196.01 371.41" style="fill:#407BFF"></polygon><polygon points="196.01 371.41 114.73 324.4 267.37 236.31 348.65 283.31 196.01 371.41" style="fill:#fff;opacity:0.65"></polygon></g><g id="freepik--Computer--inject-159"><g id="freepik--Mouse--inject-159"><path d="M214.17,302.28a1.62,1.62,0,0,0,0-.22v0c-.21-5.79-7.78-11.21-14.19-12.28s-10.35,3.57-10.35,6.55l0,0c-.15,2.17,1.91,4.7,5.85,6.68,6.07,3,13.67,3.95,17,2a3.08,3.08,0,0,0,1.69-2.75Z" style="opacity:0.15"></path><path d="M213.8,301v-.25c-.2-5.52-7.41-10.69-13.53-11.71s-9.87,3.41-9.87,6.25l0,0c-.14,2.07,1.82,4.49,5.58,6.37,5.79,2.9,13,3.77,16.19,1.95a2.94,2.94,0,0,0,1.61-2.63Z" style="fill:#37474f"></path><path d="M210,293.78c-5.81,1.42-8.63,6.43-9.51,9.61l.63.18c.85-3.11,3.64-8.05,9.44-9.25Z" style="fill:#407BFF"></path><path d="M212.89,303.05a8.53,8.53,0,0,0-5.67-8.05l-.22.62a7.79,7.79,0,0,1,5.24,7.91A3,3,0,0,0,212.89,303.05Z" style="fill:#407BFF"></path></g><g id="freepik--Keyboard--inject-159"><path id="freepik--shadow--inject-159" d="M206.31,288.31l18,10.41a2.13,2.13,0,0,0,1.95,0L277.75,269c.54-.32.54-.82,0-1.13L259.8,257.48a2.15,2.15,0,0,0-2,0l-51.52,29.7C205.78,287.5,205.77,288,206.31,288.31Z" style="opacity:0.15"></path><g id="freepik--keyboard--inject-159"><path d="M275.65,266.35a.66.66,0,0,0-.4-.55l-16.06-9.27a2.08,2.08,0,0,0-1.91,0l-49,28.34a.66.66,0,0,0-.4.55v1.69a.68.68,0,0,0,.4.55l16,9.27a2.16,2.16,0,0,0,1.92,0l49-28.3a.66.66,0,0,0,.4-.55Z" style="fill:#263238"></path><path d="M224.32,295.2l-16-9.23c-.53-.3-.53-.79,0-1.1l49-28.34a2.08,2.08,0,0,1,1.91,0l16.06,9.27a.59.59,0,0,1,0,1.11l-49,28.29A2.1,2.1,0,0,1,224.32,295.2Z" style="fill:#37474f"></path><path d="M225.22,295.43v1.72a1.9,1.9,0,0,1-.9-.22l-16-9.27a.68.68,0,0,1-.4-.55v-1.69a.68.68,0,0,0,.4.55l16,9.24A2,2,0,0,0,225.22,295.43Z" style="fill:#263238"></path><path d="M258.12,258h0l1.59.91-2.15,1.25-1.65-.92L258.1,258Zm2.49,1.44h0l1.59.92-1.69,1-1.65-.92,1.69-1Zm-5.51.3h0l1.59.91-1.69,1-1.65-.92,1.69-1Zm8,1.13h0l1.59.92L262,263.37l-1.64-.93,2.73-1.57Zm-5,0s0,0,0,0l1.59.91-1.34.78-1.65-.92,1.35-.78Zm-5.51.3h0l1.59.92-1.69,1-1.65-.92,1.69-1Zm3.3,1h0l1.59.91-1.35.78-1.64-.92,1.34-.78Zm9.73.13h0l1.59.91-2.16,1.25-1.64-.92,2.15-1.25Zm-15.57.37h0l1.59.92-12.24,7.06-1.64-.92L250,262.68Zm9.49.27h0l1.59.92-1.35.78-1.64-.92,1.34-.78Zm-5.85.5h0l1.59.92-1.35.77-1.64-.92,1.34-.78Zm14.42.3h0l1.59.92-1.35.78-1.64-.93,1.34-.77Zm-5.5.3h0l1.59.91-1.34.78-1.65-.92,1.35-.78Zm-5.27.17h0l1.58.91-1.34.78-1.64-.92,1.34-.78Zm-5.85.5h0l1.59.92-1.35.77-1.64-.92,1.34-.78Zm14.42.3h0l1.59.91-1.34.78-1.65-.92,1.35-.78Zm-5.5.3h0l1.59.92-1.34.77-1.65-.92,1.35-.78Zm-5.27.17h0l1.59.91-1.34.78-1.65-.92,1.35-.78Zm16,0h0l1.59.92-1.7,1-1.64-.92,1.69-1Zm-21.84.5h0l1.58.92-1.34.77-1.64-.92,1.34-.77Zm14.42.3s0,0,0,0l1.59.91L264,268l-1.65-.92,1.35-.78Zm-5.5.3h0l1.59.92-1.34.77-1.65-.92,1.35-.78Zm-5.27.17h0l1.59.92-1.34.77-1.65-.92,1.35-.78Zm-5.85.51h0l1.59.92-1.34.78-1.65-.93,1.35-.77Zm20.53.25h0l1.59.92-1.35.78-1.64-.93,1.34-.77Zm-6.12,0h0l1.59.92-1.34.77-1.65-.92,1.34-.78Zm-5.5.3h0l1.59.92-1.35.77-1.64-.92,1.34-.78Zm-5.27.17h0l1.59.92-1.35.77-1.64-.92,1.34-.78Zm-5.84.51h0l1.59.92-1.34.78-1.65-.93,1.35-.77Zm20.53.25h0l1.59.92-1.35.78-1.64-.93,1.34-.77Zm-6.12,0h0l1.59.92-1.35.77-1.64-.92,1.34-.78Zm-5.5.3h0l1.59.92-1.35.78-1.64-.93,1.34-.77Zm-5.27.17h0l1.59.92-1.35.77-1.64-.92,1.34-.77Zm-5.85.51h0l1.59.92-1.35.78-1.64-.93,1.34-.77Zm20.54.25h0l1.58.92-1.34.78-1.64-.93,1.34-.77Zm-6.12,0h0l1.59.92-1.35.77-1.64-.92,1.34-.78Zm-20.15.14h0l1.59.92-1.7,1-1.64-.93,1.69-1Zm14.65.17h0l1.59.92-1.35.78-1.64-.93,1.34-.77Zm-5.27.16h0l1.59.92-1.35.78-1.64-.93,1.34-.77Zm-5.85.51h0l1.59.92-1.35.78-1.64-.93,1.34-.77Zm20.54.25h0l1.59.91-1.34.78-1.65-.92,1.35-.78Zm-6.12,0h0l1.59.92-1.35.77-1.64-.92,1.34-.77Zm-5.5.31h0l1.59.92-1.34.78-1.64-.93,1.34-.77Zm-15,0h0l1.59.92-1.7,1-1.64-.93,1.69-1Zm9.73.14h0l1.59.92-1.35.78-1.64-.93,1.34-.77Zm-5.85.5h0l1.59.91-1.35.78-1.64-.92,1.34-.78Zm14.42.29h0l1.59.92-1.34.78-1.65-.93,1.35-.77Zm-5.5.31h0l1.59.92-1.34.78-1.65-.92,1.35-.78Zm-5.27.17h0l1.59.92-1.34.78-1.65-.93,1.35-.77Zm15.93,0h0l1.59.92-1.34.77-1.65-.92,1.35-.78Zm-26,0h0l1.59.92-1.7,1-1.64-.92,1.69-1Zm4.23.43h0l1.59.91-1.34.78-1.64-.92,1.34-.78Zm14.42.3h0l1.59.92-1.34.78-1.65-.93,1.35-.77Zm-5.5.3s0,0,0,0l1.59.91-1.34.78-1.65-.92,1.35-.78Zm-5.27.17h0l1.59.92-1.34.78-1.65-.93,1.35-.77Zm15.93,0h0l1.59.92-1.34.78-1.65-.93,1.35-.77Zm-26.36.24s0,0,0,0l1.59.91-2.16,1.25-1.64-.93,2.15-1.24Zm4.58.23h0l1.59.92-4.24,2.45-1.64-.93,4.24-2.45Zm14.42.3h0l1.59.92-1.35.78-1.64-.93,1.35-.77Zm-5.51.3h0l1.59.91-1.35.78-1.64-.92,1.34-.78Zm-5.26.17s0,0,0,0l1.59.91-1.35.78-1.64-.92,1.34-.78Zm15.92,0h0l1.59.92-1.35.78-1.64-.93,1.35-.77Zm-7.36.76h0l1.59.92-1.35.78-1.64-.92,1.34-.78Zm-20.26.21h0l1.59.92-1.34.78-1.65-.93,1.35-.77Zm14.76.09h0l1.59.92-1.35.77-1.64-.92,1.34-.78Zm-5.27.17h0l1.59.91-1.23.71a.27.27,0,0,0-.14.23.26.26,0,0,0,.15.23l2.09,1.21-1.58.91-4.14-2.36,3.2-1.85Zm15.93,0h0l1.59.92-1.35.78-1.64-.93,1.34-.77Zm-7.36.76h0l1.59.91-1.35.78-1.64-.92,1.34-.78Zm-20.26.21h0l1.59.92-1.34.78-1.65-.93,1.35-.77Zm14.76.09h0L240,279l-1.35.77L237,278.8l1.34-.78Zm9.7.76h0l1.59.91-1.35.78-1.64-.92,1.34-.78Zm-6.4.21h0l1.59.91-1.35.78-1.64-.92,1.34-.78Zm-20.27.21h0l1.59.92-1.35.78L220,280l1.34-.78Zm4.69.16h0l1.59.92-1.35.77-1.64-.92,1.34-.78Zm19.78.69h0l1.59.92-1.35.77-1.64-.92,1.34-.78Zm-6.4.21h0l1.58.92-2.38,1.37-1.65-.92,2.39-1.38Zm-20.73.48h0l1.59.92-3.54,2-1.65-.92,3.55-2.05Zm14.53.23h0l1.59.92-1.35.78-1.64-.93,1.34-.77Zm10.4.35h0l1.59.92-1.35.77-1.64-.92,1.34-.78Zm-22.44.85h0l1.59.92-1.34.77-1.65-.92,1.35-.77Zm9.84.07h0l1.59.92-1.35.78-1.64-.93,1.34-.77Zm4.69.16h0l1.59.92-1.35.77-1.64-.92,1.34-.78Zm5.71.19h0l1.59.92-1.34.77-1.64-.92,1.34-.77Zm-27.13.69s0,0,0,0l1.59.91-1.34.78-1.65-.92,1.35-.78Zm4.69.16h0l1.59.92-1.34.78-1.65-.93,1.35-.77Zm9.84.07h0l1.58.92-1.34.78-1.64-.92,1.34-.78Zm-5.15.1h0l1.59.91-1.34.78-1.65-.92,1.35-.78Zm9.84.06h0l1.58.92-1.34.77-1.64-.92,1.34-.77Zm5.22.48h0l1.59.92-1.35.78-1.64-.93,1.34-.77Zm-26.65.4h0l4.08,2.35-1.35.78-4.13-2.36,1.34-.78Zm4.69.17h0l1.59.92-1.35.78-1.64-.93,1.34-.77Zm4.69.16h0l1.59.92-1.35.77-1.64-.92,1.34-.78Zm9.85.06h0l1.59.92-1.34.78-1.65-.93,1.35-.77Zm-5.16.11h0l1.59.92-1.35.78-1.64-.93,1.34-.77Zm10.38.37h0l1.59.92-1.34.78-1.64-.93,1.34-.77Zm-17.27.73h0l1.59.92-1.35.77-1.64-.92,1.34-.78Zm4.69.17h0l1.59.92-1.35.78-1.64-.93,1.34-.77Zm4.69.16h0l1.59.92-1.35.77-1.64-.92,1.34-.77Zm5.69.21h0l1.59.92-1.34.78-1.65-.92,1.35-.78Zm-17.27.73h0l4.08,2.35-1.35.78-4.13-2.36,1.34-.77Zm4.69.17h0l1.59.91-1.35.78-1.64-.92,1.34-.78Zm4.69.16h0l1.59.92-1.35.78-1.64-.93,1.34-.77Zm5.86.85h0l.69.39-1.35.78-.74-.4,1.34-.77Zm-8.06.43h0l1.59.92-1.34.78-1.64-.93,1.34-.77Zm5.86.84h0l.69.39-1.35.78-.74-.4,1.34-.77Zm-8.06.43h0l1.59.92-1.34.78-1.65-.93,1.35-.77Zm5.86.84h0l.69.39-1.34.78-.74-.4,1.34-.77Zm-2.2,1.27h0l.69.39-1.34.77-.74-.4,1.34-.77Z" style="fill:#407BFF"></path></g></g><path d="M322.93,281.8,319.65,280a4,4,0,0,0-3.72-.05l-16.35,9.44-2.15-1.26a3.64,3.64,0,0,0-3.31,0l-19.85,11.54a1,1,0,0,0,0,1.92l2.1,1.21-23.63,13.63a1.15,1.15,0,0,0,0,2.17l3.29,1.9a4.13,4.13,0,0,0,3.75,0l23.63-13.64a3.64,3.64,0,0,0,3.31,0l19.78-11.49c.89-.52.91-1.35.07-1.88L322.9,284A1.18,1.18,0,0,0,322.93,281.8Z" style="opacity:0.15"></path><path d="M318.78,265.61l4.61-54.79a4.67,4.67,0,0,0-2-4.1,5.17,5.17,0,0,0-4.7.09L247.8,246.56a6,6,0,0,0-2.66,4.19l-4.61,54.79a4.67,4.67,0,0,0,2,4.1,5.17,5.17,0,0,0,4.7-.09l68.86-39.75A6,6,0,0,0,318.78,265.61Z" style="fill:#263238"></path><path d="M318.78,265.61l4.61-54.79a4.67,4.67,0,0,0-2-4.1,5.17,5.17,0,0,0-4.7.09L247.8,246.56a5.38,5.38,0,0,0-1.77,1.78l8.44,4.87L254,305.7l62.18-35.9A6,6,0,0,0,318.78,265.61Z" style="fill:#455a64"></path><path d="M245.08,308.16l4.61-54.78a6,6,0,0,1,2.66-4.19l68-39.31c1.34-.77,1.9-.18,1.78,1.36l-3.35,54.37a6,6,0,0,1-2.65,4.19l-68.86,39.75C245.93,310.33,245,309.7,245.08,308.16Z" style="fill:#37474f"></path><path d="M282.52,259.93a9.41,9.41,0,0,1,4-6.68c2-1.15,3.42,0,3.21,2.51a9.43,9.43,0,0,1-4,6.68C283.75,263.59,282.31,262.46,282.52,259.93Z" style="fill:#407BFF"></path><polygon points="282.05 278.94 295.4 271.19 293.12 269.87 279.78 277.63 282.05 278.94" style="fill:#455a64"></polygon><path d="M301.59,294l-16.25,9.39a2.16,2.16,0,0,1-1,.23,2.12,2.12,0,0,1-.88-.22h0l-7.16-4.14,0,0a2.08,2.08,0,0,1-.93-1.66v-.38c0-.61.42-.87,1-.56l4.32,2.49,1,.56-.22-1.1-1.52-20.9,2.27,1.32,13.35-7.76,7,21.1A1.68,1.68,0,0,1,301.59,294Z" style="fill:#37474f"></path><polygon points="275.56 296.5 281.11 293.3 282.24 300.76 275.56 296.5"></polygon><path d="M282.05,279l-2.27-1.32,1.52,20.9c.13.61-.22.85-.75.54l-4.32-2.49c-.54-.31-1-.05-1,.56v.38a2.08,2.08,0,0,0,.93,1.66l0,0,7.16,4.14h0a2.12,2.12,0,0,0,.88.22Z" style="fill:#263238"></path></g><g id="freepik--files--inject-159"><path id="freepik--shadow--inject-159" d="M238.08,338.63a.65.65,0,0,0,0-1.24l-45.91-26.51a2.41,2.41,0,0,0-2.16,0l-41.66,24.06,48.08,27.74Z" style="opacity:0.15"></path><g id="freepik--file--inject-159"><path d="M234.38,338.45a.7.7,0,0,0,.41-.57V337l-42.1-23.76a2.18,2.18,0,0,0-2,0L152.9,335.09l43.67,25.19Z" style="fill:#407BFF"></path><path d="M234.38,338.45a.7.7,0,0,0,.41-.57V337l-42.1-23.76a2.18,2.18,0,0,0-2,0L152.9,335.09l43.67,25.19Z" style="opacity:0.2"></path><path d="M234.38,337.6a.6.6,0,0,0,0-1.13L192.69,312.4a2.18,2.18,0,0,0-2,0L152.9,334.25l43.67,25.19Z" style="fill:#407BFF"></path><path d="M234.38,337.6a.6.6,0,0,0,0-1.13L192.69,312.4a2.18,2.18,0,0,0-2,0L152.9,334.25l43.67,25.19Z" style="opacity:0.5"></path><path d="M161.61,328.54l28-16.17a2.18,2.18,0,0,1,2,0L230,334.57l3.64-2.12v4.31l-.06,0c.12.27,0,.56-.34.77l-32.08,18.51-43.67-25.19v-4.71Z" style="fill:#ebebeb"></path><path d="M233.27,332.86a.6.6,0,0,0,0-1.13l-41.69-24.07a2.18,2.18,0,0,0-2,0l-32.1,18.52,43.67,25.19Z" style="fill:#fafafa"></path><polygon points="201.19 351.37 201.19 356.08 157.53 330.89 157.53 326.18 201.19 351.37" style="fill:#e6e6e6"></polygon><path d="M200.67,349.53a1.4,1.4,0,0,0,.36.13,1.13,1.13,0,0,0,.58,0,.55.55,0,0,0,.18-.06c.3-.16.26-.46-.08-.65a1.44,1.44,0,0,0-.51-.15,1.1,1.1,0,0,0-.61.11.1.1,0,0,0-.05,0C200.31,349.1,200.35,349.35,200.67,349.53Z" style="fill:#263238"></path><path d="M195.73,353.22a2.54,2.54,0,0,0,.5,1.63,1.73,1.73,0,0,0,1.4.67h0a2.76,2.76,0,0,0,1.36-.41c.08-.05.17-.09.25-.15l-.56-.32c-1.33.75-2.4.12-2.4-1.42a5.38,5.38,0,0,1,2.42-4.2,1.62,1.62,0,0,1,1.83-.09,1.32,1.32,0,0,1,.49.73,1.13,1.13,0,0,0,.58,0,2,2,0,0,0-.41-.86,1.77,1.77,0,0,0-1.4-.65,2.69,2.69,0,0,0-1.37.41A5.9,5.9,0,0,0,195.73,353.22Z" style="fill:#263238"></path><path d="M197.13,348.76l37.66-18.4V331a1.1,1.1,0,0,1-.49.85l-37.17,17.79Z" style="fill:#407BFF"></path><path d="M197.13,348.76l37.66-18.4V331a1.1,1.1,0,0,1-.49.85l-37.17,17.79Z" style="opacity:0.2"></path><path d="M234.38,330.92a.6.6,0,0,0,0-1.13l-41.69-24.07a2.18,2.18,0,0,0-2,0L152.9,323.89l43.67,25.19Z" style="fill:#407BFF"></path><polygon points="196.57 360.28 152.9 335.09 152.9 323.87 196.56 349.08 196.57 360.28" style="fill:#407BFF"></polygon><polygon points="196.57 360.28 152.9 335.09 152.9 323.87 196.56 349.08 196.57 360.28" style="opacity:0.1"></polygon><path d="M188,353.09a1.76,1.76,0,0,0,1.41-.67,2.56,2.56,0,0,0,.5-1.63,5.91,5.91,0,0,0-2.71-4.69,2.76,2.76,0,0,0-1.37-.41c-1.14,0-1.9.93-1.9,2.3a5.9,5.9,0,0,0,2.7,4.69,2.76,2.76,0,0,0,1.37.41Z" style="fill:#455a64"></path><path d="M189.29,350.79c0,1.55-1.08,2.17-2.42,1.4a5.35,5.35,0,0,1-2.43-4.2c0-1.55,1.09-2.17,2.43-1.4A5.37,5.37,0,0,1,189.29,350.79Z" style="fill:#f5f5f5"></path><path d="M180.49,345.16V346c0,1.7-1.19,2.39-2.66,1.54l-18.92-10.93a5.86,5.86,0,0,1-2.67-4.61v-.85c0-1.7,1.19-2.39,2.67-1.54l18.92,10.93A5.88,5.88,0,0,1,180.49,345.16Z" style="fill:#f5f5f5"></path><polygon points="197.15 359.95 197.15 348.8 196.56 349.08 196.57 360.28 197.15 359.95" style="fill:#407BFF"></polygon><polygon points="197.15 359.95 197.15 348.8 196.56 349.08 196.57 360.28 197.15 359.95" style="opacity:0.2"></polygon></g></g></g><g id="freepik--trash-basket--inject-159"><g id="freepik--trash-can--inject-159"><path d="M102.8,440.19c0-6.5,9.37-11.76,20.92-11.76s20.91,5.26,20.91,11.76v1.54c0,6.5-9.36,11.76-20.91,11.76s-20.92-5.26-20.92-11.76Z" style="fill:#407BFF"></path><path d="M102.8,440.19c0-6.5,9.37-11.76,20.92-11.76s20.91,5.26,20.91,11.76v1.54c0,6.5-9.36,11.76-20.91,11.76s-20.92-5.26-20.92-11.76Z" style="fill:#fff;opacity:0.6000000000000001"></path><path d="M102.8,440.19c0-6.5,9.37-11.76,20.92-11.76s20.91,5.26,20.91,11.76v1.54c0,6.5-9.36,11.76-20.91,11.76s-20.92-5.26-20.92-11.76Z" style="opacity:0.1"></path><path d="M102.8,440.19c0,6.49,9.37,11.76,20.92,11.76s20.91-5.27,20.91-11.76-9.36-11.76-20.91-11.76S102.8,433.69,102.8,440.19Z" style="fill:#407BFF"></path><path d="M102.8,440.19c0,6.49,9.37,11.76,20.92,11.76s20.91-5.27,20.91-11.76-9.36-11.76-20.91-11.76S102.8,433.69,102.8,440.19Z" style="fill:#fff;opacity:0.75"></path><path d="M102.8,440.19c0,6.49,9.37,11.76,20.92,11.76s20.91-5.27,20.91-11.76-9.36-11.76-20.91-11.76S102.8,433.69,102.8,440.19Z" style="opacity:0.05"></path><path d="M143.14,406.31a.44.44,0,0,0,.44-.38L146.3,386a.44.44,0,0,0-.37-.51.45.45,0,0,0-.51.38l-2.73,19.95a.46.46,0,0,0,.38.51Z" style="fill:#fafafa"></path><path d="M138.74,411a.46.46,0,0,0,.44-.41l2.69-25.7a.45.45,0,0,0-.4-.49.44.44,0,0,0-.49.39l-2.69,25.71a.44.44,0,0,0,.4.49Z" style="fill:#fafafa"></path><path d="M133.28,413.61a.44.44,0,0,0,.44-.42l2-31.49a.44.44,0,0,0-.41-.47.43.43,0,0,0-.48.42l-2,31.48a.45.45,0,0,0,.42.48Z" style="fill:#fafafa"></path><path d="M127,414.92a.44.44,0,0,0,.44-.44l.66-34.19a.45.45,0,0,0-.44-.46.42.42,0,0,0-.46.44l-.65,34.19a.45.45,0,0,0,.44.46Z" style="fill:#fafafa"></path><path d="M103.78,406.31a.44.44,0,0,1-.44-.38L100.61,386a.45.45,0,0,1,.38-.51.46.46,0,0,1,.51.38l2.72,19.95a.45.45,0,0,1-.38.51Z" style="fill:#fafafa"></path><path d="M108.18,411a.45.45,0,0,1-.44-.41l-2.69-25.7a.44.44,0,0,1,.4-.49.45.45,0,0,1,.49.39l2.69,25.71a.45.45,0,0,1-.4.49Z" style="fill:#fafafa"></path><path d="M113.64,413.61a.45.45,0,0,1-.45-.42l-2-31.49a.45.45,0,0,1,.42-.47.42.42,0,0,1,.47.42l2,31.48a.46.46,0,0,1-.42.48Z" style="fill:#fafafa"></path><path d="M119.92,414.92a.45.45,0,0,1-.45-.44l-.65-34.19a.44.44,0,0,1,.44-.46.41.41,0,0,1,.45.44l.65,34.19a.45.45,0,0,1-.43.46Z" style="fill:#fafafa"></path><path d="M143.12,419.58c-1.13-1.39-2.66-2.71-3-4.54-.29-1.41-.24-3-1.07-4.12a12.79,12.79,0,0,0-2.16-1.92,6.06,6.06,0,0,1-1.64-2.5c-.32-.9-.17-2-.63-2.74-1-1.57-3.71-3-5.5-2.48-1.32.36-1.85,1.88-2.56,2.83-1.14,1.53-3.61,1.3-5.24,2.13a6.85,6.85,0,0,0-2.66,2.14,5.72,5.72,0,0,0-.48,2.2c-.19,1-1,1.85-1,2.82s.63,1.43.83,2.31c.78,3.39-3.2,1.3-4,3.43-.57,1.48,1,3.56,0,4.57-1.28,1.21-3.67.49-5.14,1.5a5.71,5.71,0,0,0-1.7,2.45c-.5,1.09-1,2.18-1.39,3.31a14.51,14.51,0,0,0-.32,9.18c.42,1.29,1.13,3.2,2.51,3.63,1.85.59,3.58,0,5.26,1.38.67.56,1.17,1.3,1.83,1.87a6.72,6.72,0,0,0,4.4,1.47c1.28,0,2.5-.47,3.74-.49a9.71,9.71,0,0,1,2.46.55c1.84.43,4.14.43,5.51-1.06,1-1.07,1.34-2.76,2.64-3.42s3,.13,4.51.09c2.57-.07,4.47-2.62,4.88-5.15s-.25-5.1-.56-7.65c-.43-3.38,2-5.88,1.9-9A4.74,4.74,0,0,0,143.12,419.58Z" style="fill:#fafafa"></path><path d="M143.12,419.58c-.47-.57-1-1.14-1.5-1.73-.5,1.61-1.61,3-2.24,4.52a16.14,16.14,0,0,0-.79,6c0,2.19,0,4.38,0,6.58a1.65,1.65,0,0,1-.29,1.13c-.52.56-1.48.13-2-.43s-1-1.3-1.81-1.31-1.65,1-2.54.84-1.08-1.26-.75-2a6.53,6.53,0,0,1,1.61-1.84,2.48,2.48,0,0,0,.9-2.18c-2.5-.31-4.67,1.59-6.46,3.36-.79.78-1.64,1.87-1.18,2.88.35.77,1.33,1.07,1.74,1.81a2.07,2.07,0,0,1-.77,2.55,6.15,6.15,0,0,1-2.74.88,5,5,0,0,1-2,0,1.69,1.69,0,0,1-1.33-1.36c-.07-.67.63-1.36,1.27-1.12a7.24,7.24,0,0,0-3.88-1.78c-1.45,0-3,1.22-2.69,2.63l-5.74-.12c.78-1.14-.15-2.66-1.12-3.64a8.21,8.21,0,0,1-1.63-2,2.31,2.31,0,0,1,.08-2.42c.49-.63,1.45-.94,1.57-1.73a1.29,1.29,0,0,0-1.12-1.32,1.89,1.89,0,0,0-.67,0c-.47,1-1,2.08-1.32,3.16a14.51,14.51,0,0,0-.32,9.18c.42,1.29,1.13,3.2,2.51,3.63,1.85.59,3.58,0,5.26,1.38.67.56,1.17,1.3,1.83,1.87a6.72,6.72,0,0,0,4.4,1.47c1.28,0,2.5-.47,3.74-.49a9.71,9.71,0,0,1,2.46.55c1.84.43,4.14.43,5.51-1.06,1-1.07,1.34-2.76,2.64-3.42s3,.13,4.51.09c2.57-.07,4.47-2.62,4.88-5.15s-.25-5.1-.56-7.65c-.43-3.38,2-5.88,1.9-9A4.74,4.74,0,0,0,143.12,419.58Z" style="fill:#ebebeb"></path><path d="M114.54,427.12a2.07,2.07,0,0,1,.33,1.72,4.94,4.94,0,0,0-.25.89.67.67,0,0,0,.42.74,1,1,0,0,0,.7-.2,2.74,2.74,0,0,1,1.94-.4,1.38,1.38,0,0,1,1.11,1.46,2.73,2.73,0,0,0,0-2.71,1.77,1.77,0,0,0-2.47-.53,1.63,1.63,0,0,0-1-1.92,2.68,2.68,0,0,0-2.13.08A2.58,2.58,0,0,1,114.54,427.12Z" style="fill:#ebebeb"></path><path d="M124,421c-.23.16-.51.27-.73.45a.78.78,0,0,0-.34.75c.51-.09,1,.34,1.25.78a2.92,2.92,0,0,0,1,1.17c.38.19.86.16,1.19.42.49.38.41,1.13.28,1.74l2.43-1.63a1.79,1.79,0,0,0,.39-.33,1,1,0,0,0-.24-1.36,2.42,2.42,0,0,0-1.42-.47,7,7,0,0,1-1.51-.15c-.12,0-.26-.1-.29-.22s.18-.35.37-.43l2.35-.89a.37.37,0,0,0,0-.52,1.19,1.19,0,0,0-.55-.21,33.6,33.6,0,0,0-4.51-.73C123.72,420,125.23,420.23,124,421Z" style="fill:#ebebeb"></path><path d="M129.85,411.26a2.64,2.64,0,0,0-3,1.7,4,4,0,0,1,2.51,1.71l1.08,1.26a3,3,0,0,1,.79,1.33c.09.48,0,1,.25,1.41a1.5,1.5,0,0,0,.8.48,2.11,2.11,0,0,0,1.94,0,1.41,1.41,0,0,0,.38-1.55,4.25,4.25,0,0,0-.94-1.41,5.9,5.9,0,0,1,3.45.32,1.15,1.15,0,0,0,.84.13.79.79,0,0,0,.4-.55,2,2,0,0,0-.81-2,3.71,3.71,0,0,0-2.17-.61C133.12,413.47,132,411.59,129.85,411.26Z" style="fill:#ebebeb"></path><path d="M143.58,441.33,149,404a.45.45,0,0,0-.37-.51.46.46,0,0,0-.51.38l-5.46,37.29a.46.46,0,0,0,.38.51h.07a.44.44,0,0,0,.44-.38" style="fill:#fafafa"></path><path d="M138.74,446.37a.45.45,0,0,0,.44-.4l3.9-37.29a.45.45,0,0,0-.4-.49.44.44,0,0,0-.49.4l-3.9,37.29a.45.45,0,0,0,.4.49Z" style="fill:#fafafa"></path><path d="M133.28,449a.44.44,0,0,0,.44-.42l2.34-37.29a.45.45,0,0,0-.42-.47.42.42,0,0,0-.47.42l-2.34,37.29a.45.45,0,0,0,.42.47Z" style="fill:#fafafa"></path><path d="M127,450.32a.44.44,0,0,0,.44-.43l.78-37.29a.44.44,0,0,0-.43-.46.42.42,0,0,0-.46.44l-.78,37.29a.45.45,0,0,0,.44.45Z" style="fill:#fafafa"></path><path d="M120.43,450.32h0a.44.44,0,0,0,.44-.45l-.78-37.29a.44.44,0,0,0-.44-.44h0a.44.44,0,0,0-.44.46l.78,37.29A.44.44,0,0,0,120.43,450.32Z" style="fill:#fafafa"></path><path d="M114.16,449h0a.45.45,0,0,0,.42-.47l-2.34-37.29a.41.41,0,0,0-.47-.42.45.45,0,0,0-.42.47l2.34,37.29A.45.45,0,0,0,114.16,449Z" style="fill:#fafafa"></path><path d="M108.7,446.37h0a.45.45,0,0,0,.4-.49l-3.9-37.29a.44.44,0,1,0-.88.09L108.25,446A.45.45,0,0,0,108.7,446.37Z" style="fill:#fafafa"></path><path d="M104.29,441.71h.07a.46.46,0,0,0,.38-.51l-5.46-37.29a.45.45,0,0,0-.5-.38.45.45,0,0,0-.38.51l5.45,37.29A.46.46,0,0,0,104.29,441.71Z" style="fill:#fafafa"></path><g id="freepik--Bin--inject-159"><path d="M94.62,396.73a10.92,10.92,0,0,0,1.75,4.1,19.62,19.62,0,0,0,6.62,5.88c11.44,6.6,30,6.6,41.45,0a19.62,19.62,0,0,0,6.62-5.88,11.09,11.09,0,0,0,1.75-4.1h0c1-5-1.78-10.15-8.38-14-11.45-6.61-30-6.61-41.45,0C96.39,386.58,93.6,391.77,94.62,396.73Zm11.82,8c-3.68-2.14-5.94-4.77-6.78-7.52.82-3,3.08-5.8,6.78-8.1,9.54-5.91,25-5.91,34.55,0,3.7,2.3,5.95,5.14,6.78,8.11-.84,2.75-3.11,5.38-6.79,7.51C131.45,410.22,116,410.22,106.44,404.71Z" style="fill:#407BFF"></path><path d="M94.62,396.73a10.92,10.92,0,0,0,1.75,4.1,19.62,19.62,0,0,0,6.62,5.88c11.44,6.6,30,6.6,41.45,0a19.62,19.62,0,0,0,6.62-5.88,11.09,11.09,0,0,0,1.75-4.1h0c1-5-1.78-10.15-8.38-14-11.45-6.61-30-6.61-41.45,0C96.39,386.58,93.6,391.77,94.62,396.73Zm11.82,8c-3.68-2.14-5.94-4.77-6.78-7.52.82-3,3.08-5.8,6.78-8.1,9.54-5.91,25-5.91,34.55,0,3.7,2.3,5.95,5.14,6.78,8.11-.84,2.75-3.11,5.38-6.79,7.51C131.45,410.22,116,410.22,106.44,404.71Z" style="fill:#fff;opacity:0.75"></path><path d="M96.37,400.83A19.49,19.49,0,0,0,103,406.7c11.44,6.61,30,6.61,41.45,0a19.39,19.39,0,0,0,6.62-5.87,11.26,11.26,0,0,0,1.75-4.1h0l-1.3,5.17c-.6,3.6-3.28,7.1-8.05,9.86-10.91,6.29-28.59,6.29-39.5,0-4.71-2.72-7.39-6.18-8-9.73l-.07-.46-1.26-4.84A11.28,11.28,0,0,0,96.37,400.83Z" style="fill:#407BFF"></path><path d="M96.37,400.83A19.49,19.49,0,0,0,103,406.7c11.44,6.61,30,6.61,41.45,0a19.39,19.39,0,0,0,6.62-5.87,11.26,11.26,0,0,0,1.75-4.1h0l-1.3,5.17c-.6,3.6-3.28,7.1-8.05,9.86-10.91,6.29-28.59,6.29-39.5,0-4.71-2.72-7.39-6.18-8-9.73l-.07-.46-1.26-4.84A11.28,11.28,0,0,0,96.37,400.83Z" style="fill:#fff;opacity:0.6000000000000001"></path><path d="M99.42,396.17a9.41,9.41,0,0,0,.24,1c.82-3,3.08-5.8,6.78-8.1,9.54-5.91,25-5.91,34.55,0,3.7,2.3,5.95,5.14,6.78,8.11.1-.34.18-.69.25-1,.7-4.06-1.64-8.27-7-11.4-9.53-5.51-25-5.51-34.54,0C101.05,387.89,98.71,392.1,99.42,396.17Z" style="fill:#407BFF"></path><path d="M99.42,396.17a9.41,9.41,0,0,0,.24,1c.82-3,3.08-5.8,6.78-8.1,9.54-5.91,25-5.91,34.55,0,3.7,2.3,5.95,5.14,6.78,8.11.1-.34.18-.69.25-1,.7-4.06-1.64-8.27-7-11.4-9.53-5.51-25-5.51-34.54,0C101.05,387.89,98.71,392.1,99.42,396.17Z" style="fill:#fff;opacity:0.6000000000000001"></path></g></g></g></svg>