<svg xmlns="http://www.w3.org/2000/svg" viewBox="0 0 500 500"><g id="freepik--Floor--inject-190"><g id="freepik--floor--inject-190"><ellipse id="freepik--Grass--inject-190" cx="250" cy="340.14" rx="234.28" ry="135.26" style="fill:#407BFF"></ellipse><g id="freepik--Way--inject-190"><path d="M431.08,254.31,250,358.86,68.91,254.31C30,281.58,12.48,315.58,16.22,348.92L234.78,475.11c10.13.38,20.29.38,30.41,0L483.78,348.92C487.51,315.57,470,281.58,431.08,254.31Z" style="fill:#f5f5f5"></path><path d="M141.71,421.38l93.08,53.73c1.28.05,2.56.1,3.84.13l-95.11-54.9Z" style="fill:#ebebeb"></path><polygon points="139.91 420.33 141.71 421.38 249.99 358.86 248.19 357.82 139.91 420.33" style="fill:#ebebeb"></polygon><path d="M356.46,420.34l-95.11,54.9c1.28,0,2.56-.08,3.84-.13l93.08-53.73Z" style="fill:#ebebeb"></path><polygon points="249.99 358.86 358.27 421.38 360.07 420.33 251.79 357.82 249.99 358.86" style="fill:#ebebeb"></polygon><polygon points="139.91 295.31 31.63 357.82 33.44 358.86 141.72 296.35 139.91 295.31" style="fill:#ebebeb"></polygon><polygon points="468.35 357.82 360.07 295.31 358.26 296.35 466.54 358.86 468.35 357.82" style="fill:#ebebeb"></polygon></g></g></g><g id="freepik--Shadows--inject-190"><ellipse id="freepik--Shadow--inject-190" cx="134.64" cy="357" rx="33.49" ry="56" transform="translate(-222.95 490.07) rotate(-89.75)" style="fill:#e6e6e6"></ellipse><ellipse id="freepik--shadow--inject-190" cx="363.57" cy="360.32" rx="31.81" ry="55.1" transform="translate(1.65 722.29) rotate(-89.75)" style="fill:#e6e6e6"></ellipse><path id="freepik--shadow--inject-190" d="M96.69,262,245,347.57a6.74,6.74,0,0,0,6.09,0l51-29.46c1.68-1,1.68-2.54,0-3.51L153.8,229a6.74,6.74,0,0,0-6.09,0l-51,29.45C95,259.41,95,261,96.69,262Z" style="opacity:0.1"></path></g><g id="freepik--Clouds--inject-190"><g id="freepik--clouds--inject-190"><path d="M99.82,38.41l-8.3,4.79a10.32,10.32,0,0,0,.07-1.1V39.7c0-4.28-3-6-6.71-3.87a13,13,0,0,0-4,3.84c-.6-5.38-4.82-7.38-9.95-4.42-5.54,3.2-10,11-10,17.38v3.6a9.55,9.55,0,0,0,.85,4.17l-6.89,4a8.2,8.2,0,0,0-3.72,6.44c0,2.37,1.66,3.34,3.72,2.15l45-26a8.26,8.26,0,0,0,3.72-6.45C103.54,38.19,101.87,37.23,99.82,38.41Z" style="fill:#ebebeb"></path><path d="M133.27,56.5,127,60.11a7.91,7.91,0,0,0,.06-.83V57.47c0-3.23-2.27-4.54-5.07-2.92a9.88,9.88,0,0,0-3,2.9c-.45-4.06-3.64-5.58-7.51-3.34a16.74,16.74,0,0,0-7.57,13.12v2.71a7.18,7.18,0,0,0,.64,3.15l-5.2,3A6.22,6.22,0,0,0,96.52,81c0,1.79,1.26,2.51,2.81,1.62L133.27,63a6.19,6.19,0,0,0,2.8-4.86C136.07,56.33,134.82,55.6,133.27,56.5Z" style="fill:#ebebeb"></path></g></g><g id="freepik--Bench--inject-190"><g id="freepik--bench--inject-190"><g id="freepik--bench--inject-190"><path d="M182.8,262.34a3.67,3.67,0,0,0,1.79-.48l38.66-22.33a13.73,13.73,0,0,0,6.85-11.86V183a3.59,3.59,0,0,0-7.18,0v44.64a6.55,6.55,0,0,1-3.26,5.65L181,255.64a3.59,3.59,0,0,0,1.8,6.7Z" style="fill:#455a64"></path><path d="M249.53,299.86a3.61,3.61,0,0,0,1.79-.48L290,277.05a13.71,13.71,0,0,0,6.85-11.86V220.55a3.59,3.59,0,1,0-7.17,0v44.64a6.54,6.54,0,0,1-3.27,5.65l-38.66,22.32a3.59,3.59,0,0,0,1.8,6.7Z" style="fill:#455a64"></path><path d="M118.77,224.48a3.54,3.54,0,0,0,1.79-.48l38.66-22.32a13.74,13.74,0,0,0,6.85-11.87V145.17a3.59,3.59,0,0,0-7.18,0v44.64a6.56,6.56,0,0,1-3.26,5.66L117,217.79a3.59,3.59,0,0,0,1.8,6.69Z" style="fill:#455a64"></path><path d="M242.84,295.41v41.32a2,2,0,0,0,1.19,1.66,6.38,6.38,0,0,0,5.77,0,2,2,0,0,0,1.19-1.66V295.41Z" style="fill:#455a64"></path><path d="M276.94,276V317.3a2,2,0,0,0,1.19,1.67,6.44,6.44,0,0,0,5.77,0,2,2,0,0,0,1.19-1.67V276Z" style="fill:#455a64"></path><path d="M112.21,220V261.3a2,2,0,0,0,1.2,1.67,6.36,6.36,0,0,0,5.76,0,2,2,0,0,0,1.19-1.67V220Z" style="fill:#455a64"></path><path d="M146.31,200.57v41.31a2,2,0,0,0,1.19,1.66,6.38,6.38,0,0,0,5.77,0,2,2,0,0,0,1.19-1.66V200.57Z" style="fill:#455a64"></path><path d="M304.83,230.68l.71-.42a4.55,4.55,0,0,0,2.07-3.59v-6.43a4.57,4.57,0,0,0-2.07-3.59l-146-84.31a4.58,4.58,0,0,0-4.14,0l-.72.42a4.57,4.57,0,0,0-2.07,3.58v6.44a4.61,4.61,0,0,0,2.07,3.59l146,84.31A4.6,4.6,0,0,0,304.83,230.68Z" style="fill:#407BFF"></path><path d="M304.83,230.68l.71-.42a4.55,4.55,0,0,0,2.07-3.59v-6.43a4.57,4.57,0,0,0-2.07-3.59l-146-84.31a4.58,4.58,0,0,0-4.14,0l-.72.42a4.57,4.57,0,0,0-2.07,3.58v6.44a4.61,4.61,0,0,0,2.07,3.59l146,84.31A4.6,4.6,0,0,0,304.83,230.68Z" style="opacity:0.4"></path><path d="M297.9,223.46,307,218.2a4.28,4.28,0,0,1,.6,2v6.43a4.55,4.55,0,0,1-2.07,3.59l-.71.42a4.6,4.6,0,0,1-4.15,0l-2.78-1.61Z" style="fill:#407BFF"></path><path d="M297.9,223.46,307,218.2a4.28,4.28,0,0,1,.6,2v6.43a4.55,4.55,0,0,1-2.07,3.59l-.71.42a4.6,4.6,0,0,1-4.15,0l-2.78-1.61Z" style="opacity:0.5"></path><path d="M300.68,219.46l-146-84.31c-1.14-.66-2.07-.13-2.07,1.19v6.44a4.61,4.61,0,0,0,2.07,3.59l146,84.31c1.15.66,2.07.12,2.07-1.2V223A4.56,4.56,0,0,0,300.68,219.46Z" style="fill:#407BFF"></path><path d="M300.68,219.46l-146-84.31c-1.14-.66-2.07-.13-2.07,1.19v6.44a4.61,4.61,0,0,0,2.07,3.59l146,84.31c1.15.66,2.07.12,2.07-1.2V223A4.56,4.56,0,0,0,300.68,219.46Z" style="opacity:0.30000000000000004"></path><path d="M304.83,250.35l.71-.41a4.57,4.57,0,0,0,2.07-3.59v-6.44a4.55,4.55,0,0,0-2.07-3.58L159.51,152a4.58,4.58,0,0,0-4.14,0l-.72.41a4.59,4.59,0,0,0-2.07,3.59v6.43a4.59,4.59,0,0,0,2.07,3.59l146,84.31A4.6,4.6,0,0,0,304.83,250.35Z" style="fill:#407BFF"></path><path d="M304.83,250.35l.71-.41a4.57,4.57,0,0,0,2.07-3.59v-6.44a4.55,4.55,0,0,0-2.07-3.58L159.51,152a4.58,4.58,0,0,0-4.14,0l-.72.41a4.59,4.59,0,0,0-2.07,3.59v6.43a4.59,4.59,0,0,0,2.07,3.59l146,84.31A4.6,4.6,0,0,0,304.83,250.35Z" style="opacity:0.4"></path><path d="M297.9,243.13l9.11-5.26a4.28,4.28,0,0,1,.6,2v6.44a4.57,4.57,0,0,1-2.07,3.59l-.71.41a4.6,4.6,0,0,1-4.15,0l-2.78-1.61Z" style="fill:#407BFF"></path><path d="M297.9,243.13l9.11-5.26a4.28,4.28,0,0,1,.6,2v6.44a4.57,4.57,0,0,1-2.07,3.59l-.71.41a4.6,4.6,0,0,1-4.15,0l-2.78-1.61Z" style="opacity:0.5"></path><path d="M300.68,239.13l-146-84.31c-1.14-.66-2.07-.12-2.07,1.2v6.43a4.59,4.59,0,0,0,2.07,3.59l146,84.31c1.15.66,2.07.12,2.07-1.2v-6.43A4.58,4.58,0,0,0,300.68,239.13Z" style="fill:#407BFF"></path><path d="M300.68,239.13l-146-84.31c-1.14-.66-2.07-.12-2.07,1.2v6.43a4.59,4.59,0,0,0,2.07,3.59l146,84.31c1.15.66,2.07.12,2.07-1.2v-6.43A4.58,4.58,0,0,0,300.68,239.13Z" style="opacity:0.30000000000000004"></path><path d="M304.83,270l.71-.41a4.57,4.57,0,0,0,2.07-3.59v-6.43a4.57,4.57,0,0,0-2.07-3.59l-146-84.31a4.58,4.58,0,0,0-4.14,0l-.72.41a4.59,4.59,0,0,0-2.07,3.59v6.44a4.57,4.57,0,0,0,2.07,3.58l146,84.31A4.6,4.6,0,0,0,304.83,270Z" style="fill:#407BFF"></path><path d="M304.83,270l.71-.41a4.57,4.57,0,0,0,2.07-3.59v-6.43a4.57,4.57,0,0,0-2.07-3.59l-146-84.31a4.58,4.58,0,0,0-4.14,0l-.72.41a4.59,4.59,0,0,0-2.07,3.59v6.44a4.57,4.57,0,0,0,2.07,3.58l146,84.31A4.6,4.6,0,0,0,304.83,270Z" style="opacity:0.4"></path><path d="M297.9,262.81l9.11-5.26a4.28,4.28,0,0,1,.6,2V266a4.57,4.57,0,0,1-2.07,3.59l-.71.41a4.6,4.6,0,0,1-4.15,0l-2.78-1.6Z" style="fill:#407BFF"></path><path d="M297.9,262.81l9.11-5.26a4.28,4.28,0,0,1,.6,2V266a4.57,4.57,0,0,1-2.07,3.59l-.71.41a4.6,4.6,0,0,1-4.15,0l-2.78-1.6Z" style="opacity:0.5"></path><path d="M300.68,258.81l-146-84.31c-1.14-.66-2.07-.13-2.07,1.19v6.44a4.57,4.57,0,0,0,2.07,3.58l146,84.31c1.15.66,2.07.13,2.07-1.19v-6.44A4.56,4.56,0,0,0,300.68,258.81Z" style="fill:#407BFF"></path><path d="M300.68,258.81l-146-84.31c-1.14-.66-2.07-.13-2.07,1.19v6.44a4.57,4.57,0,0,0,2.07,3.58l146,84.31c1.15.66,2.07.13,2.07-1.19v-6.44A4.56,4.56,0,0,0,300.68,258.81Z" style="opacity:0.30000000000000004"></path><path d="M297.9,281.94v.82a4.59,4.59,0,0,1-2.07,3.59l-5.58,3.22a4.58,4.58,0,0,1-4.14,0l-146-84.31a4.59,4.59,0,0,1-2.07-3.59v-.83a4.57,4.57,0,0,1,2.07-3.58l5.57-3.22a4.6,4.6,0,0,1,4.15,0l146,84.31A4.58,4.58,0,0,1,297.9,281.94Z" style="fill:#407BFF"></path><path d="M297.9,281.94v.82a4.59,4.59,0,0,1-2.07,3.59l-5.58,3.22a4.58,4.58,0,0,1-4.14,0l-146-84.31a4.59,4.59,0,0,1-2.07-3.59v-.83a4.57,4.57,0,0,1,2.07-3.58l5.57-3.22a4.6,4.6,0,0,1,4.15,0l146,84.31A4.58,4.58,0,0,1,297.9,281.94Z" style="opacity:0.30000000000000004"></path><path d="M288.18,279.54v10.52a4.22,4.22,0,0,0,2.07-.49l5.58-3.22a4.59,4.59,0,0,0,2.07-3.59v-.82a4.58,4.58,0,0,0-2.07-3.59L293,276.74Z" style="fill:#407BFF"></path><path d="M288.18,279.54v10.52a4.22,4.22,0,0,0,2.07-.49l5.58-3.22a4.59,4.59,0,0,0,2.07-3.59v-.82a4.58,4.58,0,0,0-2.07-3.59L293,276.74Z" style="opacity:0.5"></path><path d="M286.11,284l-146-84.31a1.26,1.26,0,0,1,0-2.39l5.57-3.22a4.6,4.6,0,0,1,4.15,0l146,84.31a1.26,1.26,0,0,1,0,2.39L290.25,284A4.58,4.58,0,0,1,286.11,284Z" style="fill:#407BFF"></path><path d="M286.11,284l-146-84.31a1.26,1.26,0,0,1,0-2.39l5.57-3.22a4.6,4.6,0,0,1,4.15,0l146,84.31a1.26,1.26,0,0,1,0,2.39L290.25,284A4.58,4.58,0,0,1,286.11,284Z" style="opacity:0.4"></path><path d="M280.9,291.75v.83a4.56,4.56,0,0,1-2.08,3.58l-5.57,3.22a4.58,4.58,0,0,1-4.14,0l-146-84.31a4.57,4.57,0,0,1-2.07-3.58v-.83a4.59,4.59,0,0,1,2.07-3.59l5.57-3.22a4.58,4.58,0,0,1,4.14,0l146,84.31A4.58,4.58,0,0,1,280.9,291.75Z" style="fill:#407BFF"></path><path d="M280.9,291.75v.83a4.56,4.56,0,0,1-2.08,3.58l-5.57,3.22a4.58,4.58,0,0,1-4.14,0l-146-84.31a4.57,4.57,0,0,1-2.07-3.58v-.83a4.59,4.59,0,0,1,2.07-3.59l5.57-3.22a4.58,4.58,0,0,1,4.14,0l146,84.31A4.58,4.58,0,0,1,280.9,291.75Z" style="opacity:0.30000000000000004"></path><path d="M271.18,289.36v10.52a4.23,4.23,0,0,0,2.07-.5l5.57-3.22a4.56,4.56,0,0,0,2.08-3.58v-.83a4.58,4.58,0,0,0-2.08-3.59l-2.78-1.6Z" style="fill:#407BFF"></path><path d="M271.18,289.36v10.52a4.23,4.23,0,0,0,2.07-.5l5.57-3.22a4.56,4.56,0,0,0,2.08-3.58v-.83a4.58,4.58,0,0,0-2.08-3.59l-2.78-1.6Z" style="opacity:0.5"></path><path d="M269.11,293.77l-146-84.31a1.26,1.26,0,0,1,0-2.39l5.57-3.22a4.58,4.58,0,0,1,4.14,0l146,84.31a1.27,1.27,0,0,1,0,2.4l-5.57,3.21A4.58,4.58,0,0,1,269.11,293.77Z" style="fill:#407BFF"></path><path d="M269.11,293.77l-146-84.31a1.26,1.26,0,0,1,0-2.39l5.57-3.22a4.58,4.58,0,0,1,4.14,0l146,84.31a1.27,1.27,0,0,1,0,2.4l-5.57,3.21A4.58,4.58,0,0,1,269.11,293.77Z" style="opacity:0.4"></path><path d="M263.89,301.57v.82a4.57,4.57,0,0,1-2.07,3.59l-5.57,3.22a4.58,4.58,0,0,1-4.14,0l-146-84.31A4.57,4.57,0,0,1,104,221.3v-.82a4.55,4.55,0,0,1,2.07-3.59l5.57-3.22a4.58,4.58,0,0,1,4.14,0l146,84.31A4.57,4.57,0,0,1,263.89,301.57Z" style="fill:#407BFF"></path><path d="M263.89,301.57v.82a4.57,4.57,0,0,1-2.07,3.59l-5.57,3.22a4.58,4.58,0,0,1-4.14,0l-146-84.31A4.57,4.57,0,0,1,104,221.3v-.82a4.55,4.55,0,0,1,2.07-3.59l5.57-3.22a4.58,4.58,0,0,1,4.14,0l146,84.31A4.57,4.57,0,0,1,263.89,301.57Z" style="opacity:0.30000000000000004"></path><path d="M254.18,299.18v10.51a4.22,4.22,0,0,0,2.07-.49l5.57-3.22a4.57,4.57,0,0,0,2.07-3.59v-.82a4.57,4.57,0,0,0-2.07-3.59L259,296.37Z" style="fill:#407BFF"></path><path d="M254.18,299.18v10.51a4.22,4.22,0,0,0,2.07-.49l5.57-3.22a4.57,4.57,0,0,0,2.07-3.59v-.82a4.57,4.57,0,0,0-2.07-3.59L259,296.37Z" style="opacity:0.5"></path><path d="M252.11,303.59l-146-84.31a1.26,1.26,0,0,1,0-2.39l5.57-3.22a4.58,4.58,0,0,1,4.14,0l146,84.31a1.26,1.26,0,0,1,0,2.39l-5.57,3.22A4.58,4.58,0,0,1,252.11,303.59Z" style="fill:#407BFF"></path><path d="M252.11,303.59l-146-84.31a1.26,1.26,0,0,1,0-2.39l5.57-3.22a4.58,4.58,0,0,1,4.14,0l146,84.31a1.26,1.26,0,0,1,0,2.39l-5.57,3.22A4.58,4.58,0,0,1,252.11,303.59Z" style="fill:#407BFF"></path><path d="M252.11,303.59l-146-84.31a1.26,1.26,0,0,1,0-2.39l5.57-3.22a4.58,4.58,0,0,1,4.14,0l146,84.31a1.26,1.26,0,0,1,0,2.39l-5.57,3.22A4.58,4.58,0,0,1,252.11,303.59Z" style="opacity:0.4"></path><g style="opacity:0.2"><path d="M293.25,219a3,3,0,0,1,1.33,2.31c0,.85-.6,1.19-1.33.77a3,3,0,0,1-1.34-2.31C291.91,218.93,292.51,218.58,293.25,219Z"></path><path d="M293.25,238.64a3,3,0,0,1,1.33,2.31c0,.85-.6,1.19-1.33.77a3,3,0,0,1-1.34-2.31C291.91,238.56,292.51,238.21,293.25,238.64Z"></path><path d="M293.25,258.27a3,3,0,0,1,1.33,2.31c0,.85-.6,1.2-1.33.77a2.94,2.94,0,0,1-1.34-2.31C291.91,258.19,292.51,257.85,293.25,258.27Z"></path></g><g style="opacity:0.2"><path d="M162.48,144a2.92,2.92,0,0,1,1.34,2.3c0,.86-.6,1.2-1.34.77a2.94,2.94,0,0,1-1.33-2.3C161.15,143.94,161.75,143.59,162.48,144Z"></path><path d="M162.48,163.31a2.94,2.94,0,0,1,1.34,2.31c0,.85-.6,1.19-1.34.77a3,3,0,0,1-1.33-2.31C161.15,163.23,161.75,162.88,162.48,163.31Z"></path><path d="M162.48,182.94a3,3,0,0,1,1.34,2.31c0,.85-.6,1.2-1.34.77a3,3,0,0,1-1.33-2.31C161.15,182.86,161.75,182.52,162.48,182.94Z"></path></g><g style="opacity:0.2"><path d="M282.19,274.47a.71.71,0,0,1,0,1.35,2.63,2.63,0,0,1-2.35,0,.71.71,0,0,1,0-1.35A2.63,2.63,0,0,1,282.19,274.47Z"></path><path d="M265.14,284.36a.72.72,0,0,1,0,1.36,2.61,2.61,0,0,1-2.34,0,.72.72,0,0,1,0-1.36A2.63,2.63,0,0,1,265.14,284.36Z"></path><path d="M248.09,294.26a.71.71,0,0,1,0,1.35,2.54,2.54,0,0,1-2.34,0,.71.71,0,0,1,0-1.35A2.63,2.63,0,0,1,248.09,294.26Z"></path></g><g style="opacity:0.2"><path d="M151.56,199.1a.71.71,0,0,1,0,1.35,2.54,2.54,0,0,1-2.34,0,.71.71,0,0,1,0-1.35A2.63,2.63,0,0,1,151.56,199.1Z"></path><path d="M134.51,209a.71.71,0,0,1,0,1.35,2.61,2.61,0,0,1-2.34,0,.71.71,0,0,1,0-1.35A2.56,2.56,0,0,1,134.51,209Z"></path><path d="M117.46,218.89a.72.72,0,0,1,0,1.36,2.61,2.61,0,0,1-2.34,0,.72.72,0,0,1,0-1.36A2.61,2.61,0,0,1,117.46,218.89Z"></path></g><g style="opacity:0.2"><path d="M226.51,181.53a2.94,2.94,0,0,1,1.33,2.31c0,.85-.59,1.2-1.33.77a2.93,2.93,0,0,1-1.33-2.31C225.18,181.45,225.77,181.11,226.51,181.53Z"></path><path d="M226.51,201.17a2.93,2.93,0,0,1,1.33,2.31c0,.85-.59,1.19-1.33.77a2.94,2.94,0,0,1-1.33-2.31C225.18,201.09,225.77,200.74,226.51,201.17Z"></path><path d="M226.51,220.8a2.94,2.94,0,0,1,1.33,2.31c0,.85-.59,1.19-1.33.77a2.94,2.94,0,0,1-1.33-2.31C225.18,220.72,225.77,220.37,226.51,220.8Z"></path></g><g style="opacity:0.2"><path d="M215.59,237a.71.71,0,0,1,0,1.35,2.63,2.63,0,0,1-2.35,0,.71.71,0,0,1,0-1.35A2.56,2.56,0,0,1,215.59,237Z"></path><path d="M198.54,246.85a.72.72,0,0,1,0,1.36,2.63,2.63,0,0,1-2.35,0,.72.72,0,0,1,0-1.36A2.63,2.63,0,0,1,198.54,246.85Z"></path><path d="M181.49,256.75a.71.71,0,0,1,0,1.35,2.56,2.56,0,0,1-2.35,0,.71.71,0,0,1,0-1.35A2.63,2.63,0,0,1,181.49,256.75Z"></path></g></g></g></g><g id="freepik--Plants--inject-190"><g id="freepik--plants--inject-190"><path d="M425.92,257.29l5.16-3s3.07-12.76,1.85-24.24c-1.72-16.15-12.35-22.22-16.39-20.83S411.33,215.33,418,225C422,230.62,426.81,242.43,425.92,257.29Z" style="fill:#407BFF"></path><path d="M425.92,257.29l5.16-3s3.07-12.76,1.85-24.24c-1.72-16.15-12.35-22.22-16.39-20.83S411.33,215.33,418,225C422,230.62,426.81,242.43,425.92,257.29Z" style="opacity:0.35000000000000003"></path><path d="M428.06,251H428a.36.36,0,0,1-.29-.41c2.83-14.89-2.37-31.62-8.81-38.58a.37.37,0,0,1,0-.51.36.36,0,0,1,.51,0c6.55,7.09,11.86,24.09,9,39.2A.36.36,0,0,1,428.06,251Z" style="fill:#fff"></path><path d="M412.4,265.09c-.81.42-3-1.44-3.58-1.89a7.51,7.51,0,0,1-2.37-3,7.16,7.16,0,0,1-.42-4.29,15.84,15.84,0,0,1,.66-2.23c.24-.72.49-1.44.74-2.17a5.55,5.55,0,0,0,.43-2.19c-.11-1.52-1.39-2.64-2.56-3.6s-2.62-2.47-2.52-4.28a6.38,6.38,0,0,1,1.78-3.7c.92-1.06,2-2,2.84-3.09a4.47,4.47,0,0,0,1.05-2.76,4.73,4.73,0,0,0-.52-1.79,25.52,25.52,0,0,1-1.75-3.61,3.58,3.58,0,0,1,.8-3.72,4.15,4.15,0,0,1,3.15-.61,7,7,0,0,1,2.84,1.16c2.79,1.74,4.26,5.22,7.25,6.61a29.9,29.9,0,0,0,3.64,1.08,4.57,4.57,0,0,1,2.93,2.24c1,2.29-1.21,4.94-.54,7.35.59,2.13,2.59,3,3.64,5a4.5,4.5,0,0,1,.39,2.78,12.86,12.86,0,0,1-1.39,4.58,41,41,0,0,1-2.75,4.24S412.53,265,412.4,265.09Z" style="fill:#407BFF"></path><path d="M412.4,265.09c-.81.42-3-1.44-3.58-1.89a7.51,7.51,0,0,1-2.37-3,7.16,7.16,0,0,1-.42-4.29,15.84,15.84,0,0,1,.66-2.23c.24-.72.49-1.44.74-2.17a5.55,5.55,0,0,0,.43-2.19c-.11-1.52-1.39-2.64-2.56-3.6s-2.62-2.47-2.52-4.28a6.38,6.38,0,0,1,1.78-3.7c.92-1.06,2-2,2.84-3.09a4.47,4.47,0,0,0,1.05-2.76,4.73,4.73,0,0,0-.52-1.79,25.52,25.52,0,0,1-1.75-3.61,3.58,3.58,0,0,1,.8-3.72,4.15,4.15,0,0,1,3.15-.61,7,7,0,0,1,2.84,1.16c2.79,1.74,4.26,5.22,7.25,6.61a29.9,29.9,0,0,0,3.64,1.08,4.57,4.57,0,0,1,2.93,2.24c1,2.29-1.21,4.94-.54,7.35.59,2.13,2.59,3,3.64,5a4.5,4.5,0,0,1,.39,2.78,12.86,12.86,0,0,1-1.39,4.58,41,41,0,0,1-2.75,4.24S412.53,265,412.4,265.09Z" style="opacity:0.2"></path><path d="M420.3,261h0a.37.37,0,0,1-.33-.39c1.31-14.16-4.59-30.17-9.22-35a.36.36,0,0,1,.52-.5C416,230,422,246.29,420.68,260.65A.36.36,0,0,1,420.3,261Z" style="fill:#fff"></path><path d="M418.9,243.52l-.11,0a47.77,47.77,0,0,0-10.21-2.18.37.37,0,0,1-.33-.39.35.35,0,0,1,.39-.33,49.34,49.34,0,0,1,10.4,2.22.36.36,0,0,1-.14.7Z" style="fill:#fff"></path></g><g id="freepik--plants--inject-190"><path d="M74.83,257.73l-5.92-3.42a76.94,76.94,0,0,1-4.59-17.56c-1.44-12.4,3.23-28.7,13.32-27.29s-.86,16.71-1.66,27.66S74.83,257.73,74.83,257.73Z" style="fill:#407BFF"></path><path d="M74.83,257.73l-5.92-3.42a76.94,76.94,0,0,1-4.59-17.56c-1.44-12.4,3.23-28.7,13.32-27.29s-.86,16.71-1.66,27.66S74.83,257.73,74.83,257.73Z" style="opacity:0.35000000000000003"></path><path d="M71.56,256.28h0a.32.32,0,0,0,.23-.39c-6.76-26.77,4-41.88,4.15-42a.31.31,0,0,0-.09-.44.32.32,0,0,0-.45.09c-.11.16-11.06,15.51-4.23,42.55A.31.31,0,0,0,71.56,256.28Z" style="fill:#fff"></path><path d="M78.54,259.87l-4.14-2.39s-2.28-6.85-.55-17c1.51-8.8,8.16-17.27,12.54-16.74s4.91,3.44,3.58,6.9S78.08,244.38,78.54,259.87Z" style="fill:#407BFF"></path><path d="M78.54,259.87l-4.14-2.39s-2.28-6.85-.55-17c1.51-8.8,8.16-17.27,12.54-16.74s4.91,3.44,3.58,6.9S78.08,244.38,78.54,259.87Z" style="opacity:0.2"></path><path d="M76.44,259.09h0a.32.32,0,0,0,.25-.38c-3.77-17,9.74-32,9.88-32.18a.32.32,0,0,0,0-.45.33.33,0,0,0-.46,0c-.14.15-13.87,15.39-10,32.75A.32.32,0,0,0,76.44,259.09Z" style="fill:#fff"></path></g></g><g id="freepik--character-2--inject-190"><g id="freepik--Character--inject-190"><g id="freepik--Bottom--inject-190"><path d="M383.86,341.29c-1.12-1.68-1.29-4-1.19-7.43s1.75-31.77,2.27-40.07c.44-6.72.8-13.82.73-18.93-.19-13.76.71-51.24-4.78-79.93l-38.77-3.29a91.25,91.25,0,0,0-7.37,19.14c-2.92,11.57-2.65,16-1.72,34.2.8,15.77,2,28.89,2,28.89-.25,2.79-3.43,7-3.18,19.37.25,12.58.85,16.62,1.89,27.81.89,9.6,1.49,16.54,1.68,24.53,0,2-.12,15.42.61,19.5,1.1,6.14,8.38,5.34,8.78,1.68s-.38-19.36-.35-21c0-6,9.26-55,11.6-69.4,2.14-13.07,3.72-22.62,3.72-22.62l4.32,22.45a92.16,92.16,0,0,0-.35,11.53,110.91,110.91,0,0,0,2.25,16h0c3.16,16.64,4.63,28,4.89,32.39,0,0,0,.72,0,1a1.22,1.22,0,0,0-.08.6c0,4,5.09,6.13,8.57,8.79a66.15,66.15,0,0,0,9.42,6.21c2.53,1.28,7.69,1.42,8.33-.21C393,349.28,386.64,345.46,383.86,341.29Z" style="fill:#ffbda7"></path><path d="M404.41,357.07c.22,0,.46,2.17-.72,3.19a14.36,14.36,0,0,1-10.62,2.47c-5.3-.71-8.16-2.22-10.27-4s-4.64-3.86-7.47-4.84c-2.16-.74-4.64-1.52-5.35-2.21s-.6-3.75-.6-3.75Z" style="fill:#263238"></path><path d="M383.63,338.58a2.12,2.12,0,0,0-.66-1.47,2.45,2.45,0,0,0-1.53-.3c-.93,0-1.87.1-2.81.18a3.45,3.45,0,0,0-1.89.57,2.29,2.29,0,0,0-.75,1.76,6.73,6.73,0,0,0,.32,1.93c-1.18.17-1.86-1.35-2.48-2.13-.29-.36-1.12-.58-1.51-.81a9.25,9.25,0,0,1-1.55-.95c-.37-.37.17-.72.16-1.21a.85.85,0,0,0-.81.71c-.17.84-.56,4.34-.92,5.72a10.12,10.12,0,0,0,.28,6.39c1.36,1.71,3.91,2.68,6.22,3.57a29.56,29.56,0,0,1,7.5,4.78c2.48,2.07,7.71,4.23,11.16,4.22,4.09,0,8.7-1.32,9.76-3.21,1.32-2.34.3-3.7-5.75-6.53-1.14-.54-5.16-2.94-6.53-3.82a29.47,29.47,0,0,1-5.06-4,24.41,24.41,0,0,1-2.06-2.26A8,8,0,0,1,383.63,338.58Z" style="fill:#407BFF"></path><path d="M383.63,338.58a2.12,2.12,0,0,0-.66-1.47,2.45,2.45,0,0,0-1.53-.3c-.93,0-1.87.1-2.81.18a3.45,3.45,0,0,0-1.89.57,2.29,2.29,0,0,0-.75,1.76,6.73,6.73,0,0,0,.32,1.93c-1.18.17-1.86-1.35-2.48-2.13-.29-.36-1.12-.58-1.51-.81a9.25,9.25,0,0,1-1.55-.95c-.37-.37.17-.72.16-1.21a.85.85,0,0,0-.81.71c-.17.84-.56,4.34-.92,5.72a10.12,10.12,0,0,0,.28,6.39c1.36,1.71,3.91,2.68,6.22,3.57a29.56,29.56,0,0,1,7.5,4.78c2.48,2.07,7.71,4.23,11.16,4.22,4.09,0,8.7-1.32,9.76-3.21,1.32-2.34.3-3.7-5.75-6.53-1.14-.54-5.16-2.94-6.53-3.82a29.47,29.47,0,0,1-5.06-4,24.41,24.41,0,0,1-2.06-2.26A8,8,0,0,1,383.63,338.58Z" style="opacity:0.30000000000000004"></path><path d="M383.2,357.32c-1.06-.87-2.17-1.72-3.3-2.48h0s7.11,4.37,10,2.42c1.86-1.26,1-2.81.94-3.3s4.55-2.58,6.35-2.78h0c.5.28.92.5,1.18.63,6.05,2.83,7.07,4.19,5.75,6.53-1.06,1.89-4.4,3.36-9.68,3.33C391,361.65,385.68,359.39,383.2,357.32Z" style="opacity:0.30000000000000004"></path><path d="M390.35,352.51c3.76,1.53,2.13,2.63,1.1,2.37-3.06-.78-7.48-3.15-11.33-6.22-4-3.22-7.09-7.16-8.58-8.34a9.84,9.84,0,0,1-1.71-1.51c.1-.83.16-1.6.23-2a.78.78,0,0,1,.87-.66c0,.49,0,1,0,1a4.13,4.13,0,0,0,1.46,1.15,4.6,4.6,0,0,1,1.43.82,15.43,15.43,0,0,0,1.62,2C378.73,345.28,386.59,351,390.35,352.51Z" style="fill:#455a64"></path><path d="M391.18,354.33a.38.38,0,0,1-.29-.61,9,9,0,0,1,6.92-2.7.39.39,0,0,1,.33.42.37.37,0,0,1-.41.33,8.31,8.31,0,0,0-6.26,2.42A.37.37,0,0,1,391.18,354.33Z" style="fill:#ebebeb"></path><path d="M387.9,352.29a.35.35,0,0,1-.23-.09.36.36,0,0,1-.05-.52,8.92,8.92,0,0,1,6.91-2.69.37.37,0,0,1,.33.41.36.36,0,0,1-.41.33,8.31,8.31,0,0,0-6.26,2.42A.37.37,0,0,1,387.9,352.29Z" style="fill:#ebebeb"></path><path d="M384.62,350.36a.35.35,0,0,1-.23-.09.37.37,0,0,1-.05-.52,8.94,8.94,0,0,1,6.91-2.69.37.37,0,0,1,.33.41.38.38,0,0,1-.41.33,8.27,8.27,0,0,0-6.26,2.42A.37.37,0,0,1,384.62,350.36Z" style="fill:#ebebeb"></path><path d="M381.59,348.16a.36.36,0,0,1-.24-.09.37.37,0,0,1-.05-.52,9,9,0,0,1,6.92-2.7.37.37,0,0,1,.32.42.38.38,0,0,1-.41.33,8.21,8.21,0,0,0-6.25,2.42A.4.4,0,0,1,381.59,348.16Z" style="fill:#ebebeb"></path><path d="M378.61,346a.34.34,0,0,1-.23-.08.37.37,0,0,1-.06-.52c1.47-1.84,4.78-3,7.55-2.73a.37.37,0,0,1,.33.41.37.37,0,0,1-.41.33c-2.49-.28-5.58.82-6.89,2.46A.36.36,0,0,1,378.61,346Z" style="fill:#ebebeb"></path><path d="M347.58,369.55c.14,3.6-.19,6-1.26,8.26s-3.41,3.11-5.9,2.73-5.75-1.73-6.75-4.75a19.89,19.89,0,0,1-.82-8.54Z" style="fill:#263238"></path><path d="M335.42,344.52c-1,.17-.83,5-.94,9.89-.12,5.23-1.46,7.51-1.61,11.8-.16,4.9.3,7,2.28,9.8s8.25,5.05,10.8.58c2.09-3.65,1.82-7.45,1.14-12.26a122.24,122.24,0,0,1-1.41-12.27c-.15-3.65-.24-7.18-1.15-7.5,0,.54,0,1.22,0,1.75s.07,2.38-.49,2.45a7.75,7.75,0,0,1-.14-1.36,1.61,1.61,0,0,0-.39-1.15,1.93,1.93,0,0,0-1.16-.39,27.65,27.65,0,0,0-3-.17c-.5,0-1,0-1.5.08a3.81,3.81,0,0,0-1.25.3.88.88,0,0,0-.5.55,1.45,1.45,0,0,0,0,.55,4.26,4.26,0,0,1,0,1c0,.15-.1.33-.25.31s-.18-.16-.19-.28c-.06-.58,0-1-.07-1.69,0-.32-.05-.75-.07-1.06S335.43,344.83,335.42,344.52Z" style="fill:#407BFF"></path><path d="M335.42,344.52c-1,.17-.83,5-.94,9.89-.12,5.23-1.46,7.51-1.61,11.8-.16,4.9.3,7,2.28,9.8s8.25,5.05,10.8.58c2.09-3.65,1.82-7.45,1.14-12.26a122.24,122.24,0,0,1-1.41-12.27c-.15-3.65-.24-7.18-1.15-7.5,0,.54,0,1.22,0,1.75s.07,2.38-.49,2.45a7.75,7.75,0,0,1-.14-1.36,1.61,1.61,0,0,0-.39-1.15,1.93,1.93,0,0,0-1.16-.39,27.65,27.65,0,0,0-3-.17c-.5,0-1,0-1.5.08a3.81,3.81,0,0,0-1.25.3.88.88,0,0,0-.5.55,1.45,1.45,0,0,0,0,.55,4.26,4.26,0,0,1,0,1c0,.15-.1.33-.25.31s-.18-.16-.19-.28c-.06-.58,0-1-.07-1.69,0-.32-.05-.75-.07-1.06S335.43,344.83,335.42,344.52Z" style="opacity:0.30000000000000004"></path><path d="M333,364.81c0,.71-.18,5.38,1.16,6.1S336,368,336,368s3.1-1.28,7.94.31c-.16.77.79,3.17,2,2.53s1.21-6,1.21-6.06c.63,4.61.83,8.3-1.2,11.84-2.55,4.47-8.83,2.18-10.8-.58s-2.44-4.9-2.28-9.8C332.89,365.72,332.92,365.26,333,364.81Z" style="opacity:0.30000000000000004"></path><path d="M336.37,368.25c.15,1.75-1.63,1.32-1.95-1.14s.48-8.45.06-12.7c.11-4.87-.05-9.75.95-9.92,0,.06,0,.2,0,.26l.09,2.41c0,.36,0,.68.05,1,.32,3.57.48,10.52.48,13.81A58,58,0,0,0,336.37,368.25Z" style="fill:#455a64"></path><path d="M343.38,368.27a57.41,57.41,0,0,0,.36-6.23c0-3.26.26-10.12.6-13.71a8.85,8.85,0,0,0,.16-2c0-.49,0-1.12,0-1.63a.45.45,0,0,0,0-.11c.66.24.88,2.17,1,4.6,0,1.41,0,3.17-.16,5.29-.45,4.24.29,10.28,0,12.74S343.22,370,343.38,368.27Z" style="fill:#455a64"></path><path d="M344,368.41a.32.32,0,0,1-.14,0,11.82,11.82,0,0,0-7.79-.06.37.37,0,0,1-.26-.7,12.41,12.41,0,0,1,8.33.07.36.36,0,0,1,.2.48A.37.37,0,0,1,344,368.41Z" style="fill:#ebebeb"></path><path d="M344.51,364.53l-.13,0a14.71,14.71,0,0,0-8.72-.06.37.37,0,0,1-.24-.71,15.19,15.19,0,0,1,9.22.07.37.37,0,0,1-.13.72Z" style="fill:#ebebeb"></path><path d="M335.56,360.82a.38.38,0,0,1-.34-.22.38.38,0,0,1,.18-.5c4.34-2,9-.09,9.2,0a.36.36,0,0,1,.2.48.37.37,0,0,1-.48.21c-.05,0-4.57-1.81-8.61,0A.28.28,0,0,1,335.56,360.82Z" style="fill:#ebebeb"></path><path d="M335.49,357.39a.38.38,0,0,1-.34-.21.37.37,0,0,1,.18-.5,11.56,11.56,0,0,1,9.37-.06.37.37,0,0,1,.18.5.38.38,0,0,1-.5.17,11,11,0,0,0-8.73.07Z" style="fill:#ebebeb"></path><path d="M344.56,353.58a.45.45,0,0,1-.16,0s-4.67-2.07-8.81-.05a.36.36,0,0,1-.5-.17.38.38,0,0,1,.17-.5c4.46-2.18,9.25-.05,9.45,0a.37.37,0,0,1,.19.49A.38.38,0,0,1,344.56,353.58Z" style="fill:#ebebeb"></path></g><g id="freepik--Top--inject-190"><polygon points="326.26 214.76 342.75 170.62 344.23 175.01 329.87 213.17 326.26 214.76" style="fill:#407BFF"></polygon><polygon points="326.26 214.76 342.75 170.62 344.23 175.01 329.87 213.17 326.26 214.76" style="opacity:0.30000000000000004"></polygon><path d="M366.89,138.21c.22,2.14.36,5.35,4.14,6.85,0,0-1.81,4.45,2.6,6.21,0,0-1.31,4.37,2.36,6a5.28,5.28,0,0,0,2.08,5.84s-2.37,4.27.46,6.76a5.84,5.84,0,0,0-1.46,3.28c-.13,1.91,1.11,4.44,3,4.85,0,0-1.38-1.57-.2-3s2.27-3,.55-4.92c0,0,3.41-2,.75-7.2,0,0,2.73-4.08-1.25-6.71,0,0,2.31-4.63-2.23-6.53,0,0,2.26-3.16-1.25-6.73,0,0,4.15-6.5-2.84-11.17Z" style="fill:#37474f"></path><path d="M404.23,153.27a17.34,17.34,0,0,0-.15-2.78c-.49-4.44,1-8.76,2.77-12.78.3-.69.61-1.37.92-2.06a9.55,9.55,0,0,0,.41-1c.1-.33.2-.61.63-.6a1.21,1.21,0,0,1,.81.38,3.64,3.64,0,0,1,1,2.79,18.21,18.21,0,0,1-.51,3c-.15.76.65.38,1,.15,1.74-1.16,3.12-4.16,4-6a27.43,27.43,0,0,1,1.67-3.66,4.1,4.1,0,0,1,1.87-1.6c.52-.21,1.08-.21,1.27.47a3,3,0,0,1-.09,1.3,3,3,0,0,0,.21,2.49,7.2,7.2,0,0,1,1,1.53,21.15,21.15,0,0,1,.22,2.29,17,17,0,0,0,.85,1.77,5.68,5.68,0,0,1-.15,2.35,18.37,18.37,0,0,1-1.44,4.64,35.26,35.26,0,0,1-3.86,6.29,9.74,9.74,0,0,0-2,3.58,21,21,0,0,0-.34,4.12c0,1.72,0,3.45,0,5.17-.21,18.65-1.86,20-3.68,23.15-1.09,1.89-4.87,4.2-11.52-.44-7.36-5.15-22.29-19.33-22.29-19.33l-6.7-21.44s2.3.16,5.22.42c2.72.24,5.94,2.3,8.34,4.85,5,5.27,17.78,19,17.78,19S403.94,155.75,404.23,153.27Z" style="fill:#ffbda7"></path><path d="M401.42,171.3a35.1,35.1,0,0,0-.87,10.35s-2.52-6.57-.83-12.17Z" style="fill:#f0997a"></path><path d="M410.36,143.29a13.45,13.45,0,0,1-.29,7.46,7.9,7.9,0,0,0,1.4-3.8C411.52,144.83,411,144,410.36,143.29Z" style="fill:#f0997a"></path><path d="M381.68,180.38c7-7.39,4.58-13,1.46-18.11-6.06-9.91-11.11-15.16-13.38-15.17L355.45,147c-6.84.79-13.76,1.38-13.76,1.38-4.22.9-5.6,3.24-6.31,8.68a29,29,0,0,0,1.44,14.12s4.78,12.92,4.67,18.13c0,1.81-1,4.42-3.09,9.25-2.37,5.47-12.83,24.15-8.77,68.54,0,0,6.31,0,9.05-8.26,0,0,4.33,11,24.72,10.46,20.54-.57,24.52-10,24.52-10,.86-21.18-1.31-43-5.19-59.72-1-4.23-2-7.64-1.72-12C381.14,185.34,381.46,182.28,381.68,180.38Z" style="fill:#455a64"></path><path d="M351.25,177.23a11.19,11.19,0,0,0,10.52,6.06,11.79,11.79,0,0,0,10.12-6.11s-.44,8.22-10.15,8.08S351.25,177.23,351.25,177.23Z" style="opacity:0.1"></path><path d="M326.07,215.77l.19-1,.11.08,0-.07,3.48-1.6c.38,1.22.84,2.86,1.31,4.7,6.81,4.28,18.3,11.44,18.3,11.44l-4.7,25.58L321.7,240.21h0a2.08,2.08,0,0,1-.93-1.21C319.89,236.27,324.78,220,326.07,215.77Z" style="fill:#407BFF"></path><path d="M326.07,215.77l.19-1,.11.08,0-.07,3.48-1.6c.38,1.22.84,2.86,1.31,4.7,6.81,4.28,18.3,11.44,18.3,11.44l-4.7,25.58L321.7,240.21h0a2.08,2.08,0,0,1-.93-1.21C319.89,236.27,324.78,220,326.07,215.77Z" style="opacity:0.2"></path><polygon points="326.26 214.76 349.48 229.31 352.96 227.7 329.87 213.17 326.26 214.76" style="fill:#407BFF"></polygon><path d="M347.84,234.74s.12.6-2.22.9-11.94-.47-13.18-1.27-4.46-5-5.88-7.69a34.68,34.68,0,0,1-2.18-5.19Z" style="opacity:0.2"></path><path d="M353,227.7c1.74,5.51,2.19,20.58,1.53,22.59s-2.47,3-4.22,3.84-5.4,2.54-6.41-.6,5.62-24.22,5.62-24.22Z" style="fill:#407BFF"></path><path d="M353,227.7c1.74,5.51,2.19,20.58,1.53,22.59s-2.47,3-4.22,3.84-5.4,2.54-6.41-.6,5.62-24.22,5.62-24.22Z" style="opacity:0.30000000000000004"></path><path d="M349.48,229.31c-.05.31-.71,4.21-1.64,5.43s-12.58-.36-14.56-1-8.72-10.73-8.9-12.23,1.88-6.73,1.88-6.73Z" style="fill:#407BFF"></path><path d="M349.48,229.31c-.05.31-.71,4.21-1.64,5.43s-12.58-.36-14.56-1-8.72-10.73-8.9-12.23,1.88-6.73,1.88-6.73Z" style="opacity:0.1"></path><path d="M333.82,231.76c-.08.48-.47.61-.87.29a1.65,1.65,0,0,1-.58-1.42c.08-.48.47-.61.87-.29A1.65,1.65,0,0,1,333.82,231.76Z" style="fill:#455a64"></path><path d="M366.85,147.09c3.2,7.77,3.35,20.58-2.45,37.14s-14.92,45.08-14.92,45.08L353,227.7s11.25-33.57,16.1-49.18c4.7-15.13,2.66-26.56.7-31.42Z" style="fill:#407BFF"></path><path d="M366.85,147.09c3.2,7.77,3.35,20.58-2.45,37.14s-14.92,45.08-14.92,45.08L353,227.7s11.25-33.57,16.1-49.18c4.7-15.13,2.66-26.56.7-31.42Z" style="opacity:0.2"></path><path d="M337.75,222.43c-1.8-1.75-2.56-3.49-4.6-5a8.78,8.78,0,0,1-2.76-3.19c-2.29-8.86-2.36-16.51-3.06-23.09,3-6,11.92-20.89,11.92-20.89,8.11-8.21,4.1-18.74,2.44-21.82a18.3,18.3,0,0,0-5.61,1.17c-6.82,2.79-12,10.81-22.81,34.82a12,12,0,0,0-.77,7.87c.95,5,6.47,25,6.92,26,.61,2.44,1.68,5,2.27,6.71,2.95,8.81,8.44,12.36,12.86,12.2,7.05-.24,6.2-3.07,2.7-7-2.38-2.67-4.31-6.69-4.07-7a11.08,11.08,0,0,0,4,2.3c1.77.45,2.66-.24,2.94-.82S339.16,223.8,337.75,222.43Z" style="fill:#ffbda7"></path><path d="M365.2,142.41c2.42-2.75,3.81-4.41,7.41-8.4,4.13-4.59,5.06-11.84,4.1-16.5-.56-2.75-2.89-8.48-8.28-10.05-2.34-4.47-7.06-6.6-11.93-7.08-4.05-.4-8.12.18-12.18.49s-7.6.24-11-2.51c-.76,2.81-.72,6.07,3.11,9.24,0,0-1.21.81-4.24.55a2.37,2.37,0,0,0-1.75.24A1.81,1.81,0,0,0,330,110a6.67,6.67,0,0,0,2,3.65,10.4,10.4,0,0,0,3.59,2.18,5.39,5.39,0,0,0-1.45.07,1.89,1.89,0,0,0-1.2.77,2.39,2.39,0,0,0,.1,2.23c1,2.12,2.92,3.58,4.47,5.27a8.71,8.71,0,0,1,1.91,2.85c.44,1.23,1.17,2.42,1.73,3.62a20,20,0,0,0,1.63,3,19,19,0,0,0,11.09,7.12c2.49.48,4.94,1.13,7.45,1.51C362.05,142.39,364.61,143.08,365.2,142.41Z" style="fill:#37474f"></path><path d="M341.05,109.31c-1.48.89-4.73,6-3.79,19.32.73,10.44,3.05,13.24,5.62,14.11,1.76.6,5,.43,8.19,0l.16,6.34s4.12,9,13.88,6.11c4.58-1.36.11-7.32.11-7.32l0-12.43s1.82,1.87,5.09-.82c2.7-2.23,3.69-6.08,1.7-8.22a4.58,4.58,0,0,0-7.33,1.25s-1.88.1-3.65-3.43a22.85,22.85,0,0,1-9.89-1.89C342.74,118.62,341.14,112.84,341.05,109.31Z" style="fill:#ffbda7"></path><path d="M351.24,125.21a1.45,1.45,0,1,0,1.56-1.39A1.48,1.48,0,0,0,351.24,125.21Z" style="fill:#263238"></path><path d="M352,133.58l-5.45,1.57a2.77,2.77,0,0,0,3.45,2A3,3,0,0,0,352,133.58Z" style="fill:#b16668"></path><path d="M351.51,135a3.83,3.83,0,0,0-3.42,2.08,2.69,2.69,0,0,0,1.86.14,2.91,2.91,0,0,0,2-2.18A3.42,3.42,0,0,0,351.51,135Z" style="fill:#f28f8f"></path><path d="M338.63,121.18l2.72-1.77a1.56,1.56,0,0,0-2.2-.51A1.7,1.7,0,0,0,338.63,121.18Z" style="fill:#263238"></path><path d="M351.93,119.31l3,1.25a1.55,1.55,0,0,0-.81-2.11A1.71,1.71,0,0,0,351.93,119.31Z" style="fill:#263238"></path><path d="M339.68,124.86a1.41,1.41,0,0,0,1.26,1.54,1.43,1.43,0,0,0,1.5-1.33,1.39,1.39,0,1,0-2.76-.21Z" style="fill:#263238"></path><polygon points="346.55 124.29 346.11 132.21 341.98 130.8 346.55 124.29" style="fill:#f0997a"></polygon><path d="M351.07,142.73c3.37-.34,9.94-3,11.1-5.71a7.82,7.82,0,0,1-2.6,4.15c-2.12,1.72-8.43,3.62-8.43,3.62Z" style="fill:#f0997a"></path><path d="M364.65,127.64l-.16,5.5h0a3.74,3.74,0,0,1-3.64-3.85l.15-5.08Z" style="fill:#37474f"></path></g></g></g><g id="freepik--character-1--inject-190"><g id="freepik--character--inject-190"><g id="freepik--bottom--inject-190"><path d="M116.1,205.84l30.11,6.6-8.8,50.76s7.09,7.59,11,16.15c2.8,6.21,10.91,31.72,12.47,35.63.65,1.62,1.3,3.25,1.94,4.87a16.44,16.44,0,0,1,1.33,3.51,19.18,19.18,0,0,1-4.37,15.09,11.27,11.27,0,0,1-3.34,2.77,6.43,6.43,0,0,1-4.23.69,2.71,2.71,0,0,1-2-1.48,3.5,3.5,0,0,1,0-1.95,62.79,62.79,0,0,0,1.36-7.14,20.85,20.85,0,0,0-4.17-14.07c-3.9-5.44-29.71-43.49-31.12-46.06-2.1-3.86-4.51-7.16-4.2-19.55C112.29,239.09,114.56,212.12,116.1,205.84Z" style="fill:#ffa8a7"></path><path d="M111.88,207.16S111.29,218,110.1,236c-1.07,16.32-2.6,23.76,3.49,34.45C119,280,145.29,316,147.78,319.33c0,0,8.72.66,13.36-6.44,0,0-4.35-14.34-8.95-25.48s-9.08-22-9.08-22l14-47.41Z" style="fill:#455a64"></path><path d="M116.23,213c2,13.93,17,22.95,17,22.95s-7.33,32.51-8.09,37c-.2,1.16-.49,6.05-.82,12.66,7.21,10.86,16,23.43,20.6,29.81.67-2.45,1.34-5,2-7.61,3-12.6,1.88-23.05,2.22-24.16.1-.34.34-1,.68-2l-6.7-16.24,14-47.41Z" style="fill:#37474f"></path><path d="M118.1,222.06a20.74,20.74,0,0,0,3,6.82,17.52,17.52,0,0,0,6.78,5.72s-4.27,28.08-5.14,33.5c-1,6.43.28,15.39.28,15.39l8.54-50Z" style="fill:#37474f"></path><path d="M167.74,327.77c.64-.07,1.51,2.19,1.52,2.93a9.53,9.53,0,0,1-1.75,3.78,18.47,18.47,0,0,0-3.07,5.61c-.59,2-.76,5-3,8.06s-5.73,6.65-14.38,5.57a7.12,7.12,0,0,1-4.28-2.14c-.59-.85-.53-1.75-.74-3Z" style="fill:#37474f"></path><path d="M162.06,341.25a4.81,4.81,0,0,1,.2-.53,58,58,0,0,1,2.44-5.67c1.09-2,3.11-4.19,3.2-6.24,0-1.12-1-3.23-2.1-5-.46-.75-1.42-3.22-2.59-3l.59,1.37a8.17,8.17,0,0,1-.27,2.12,16.33,16.33,0,0,1-1.16,3.15,4.53,4.53,0,0,0-.43.95l-.48,1.06c-.29.65-.6,1.28-.88,1.93a14.46,14.46,0,0,1-2.07,3.57,1.24,1.24,0,0,1-.59.45c-.94.23-.54-1.45-.5-1.89a2.32,2.32,0,0,0-.49-1.87,2.47,2.47,0,0,0-1.57-.52,18,18,0,0,0-2.94,0,5,5,0,0,0-1.14.21c-.29.09-.62.08-.81.36a1.91,1.91,0,0,0-.21.75,17.19,17.19,0,0,1-1.77,5,30.75,30.75,0,0,1-4.37,6.64c-1.11,1.3-2.39,2.8-2.09,4.48a3.44,3.44,0,0,0,1.47,2.13,7.13,7.13,0,0,0,2.46,1,14.56,14.56,0,0,0,10.47-1.63,12.07,12.07,0,0,0,3.67-3.72C161.27,344.7,161.47,343,162.06,341.25Z" style="fill:#455a64"></path><path d="M121.19,352.93c.21-1.34.48-3.6.55-4.88.27-4.81.74-9.24,1-14.05q.41-9.74.78-19.46l.75-20q.3-8,.59-15.91a359.19,359.19,0,0,1,8.46-44.52,31,31,0,0,1-9.51-8.51c-6.79-8.86-7-16.56-7-16.56l3.67-.42,39.88-.19c.18,6.58.85,15.81.34,24.37-1,17.57-16.61,49.28-16.61,49.28.27,2.41,2.48,12.56.42,21.61-3.24,14.27-6.86,31.63-8.11,39.39S134.72,354,134.72,354a5.74,5.74,0,0,1-1,2.43,37.85,37.85,0,0,0-1.6,3.62,17.84,17.84,0,0,1-4.59,6.27,15.87,15.87,0,0,1-5.55,2.79,12.49,12.49,0,0,1-7.55.21c-.86-.3-1.77-.88-1.86-1.78a2.83,2.83,0,0,1,.8-1.88c2.73-3.6,3.31-4.9,5.78-8.68A21.38,21.38,0,0,0,121.19,352.93Z" style="fill:#ffa8a7"></path><path d="M163.15,206c-.06,7.46-.33,14.35-.66,19.77a87.08,87.08,0,0,1-3.28,20.11c-2.16,7.6-11,32.6-11.77,35.28-.34,1.11.81,11.55-2.23,24.16-4.32,17.91-8.75,40.9-8.75,40.9s-8.94,1.72-14.66-2c0,0,.9-69.28,1.67-73.73s8.09-37,8.09-37-16.69-6.15-17.21-24.69Z" style="fill:#455a64"></path><path d="M135.32,363c.67.23.6,2.36.25,3.09s-1.4,1.57-3.09,2.55a13.53,13.53,0,0,0-4.94,4.25,22.44,22.44,0,0,1-7.52,6.5,16,16,0,0,1-13,1.1c-4.43-1.71-4.77-3.7-4.63-5.42Z" style="fill:#37474f"></path><path d="M120.63,356.4l-1.17-.31a2,2,0,0,0-2.08.65,7.41,7.41,0,0,0-1,1.81c-2.31,5-7.3,8-11.19,11.69-1.06,1-2.51,2.26-3,3.73-1.16,3.79,6,5.26,9.34,5.21A17.19,17.19,0,0,0,120,377a23,23,0,0,0,3.64-2.71c2.25-2,3.68-3.86,5.4-5.37,1.94-1.69,4-1.8,6.32-4.94.9-2.15.43-4.67.21-6.9a17.68,17.68,0,0,1,0-2.52c0-.37,0-1.48-.71-1.7l-.13.91a52.91,52.91,0,0,1-5.87,6.83,14,14,0,0,1-3.09,2.66c-.2.12-.51.21-.64,0a.41.41,0,0,1,0-.33,5.83,5.83,0,0,1,.78-1.84,3.73,3.73,0,0,0,.57-1.9c-.08-1.59-2.1-1.78-3.28-2.1Z" style="fill:#455a64"></path></g><g id="freepik--top--inject-190"><path d="M90.82,152.61a19,19,0,0,1,0-3c.27-4.86-1.64-9.46-3.77-13.72-.37-.73-.74-1.46-1.12-2.18a8.72,8.72,0,0,1-.51-1.07c-.13-.35-.25-.64-.72-.61a1.36,1.36,0,0,0-.86.46,4,4,0,0,0-.9,3.09,19,19,0,0,0,.73,3.24c.21.82-.68.45-1.08.22-2-1.15-3.63-4.33-4.69-6.28a29.18,29.18,0,0,0-2-3.88,4.53,4.53,0,0,0-2.12-1.63c-.59-.19-1.19-.16-1.35.59a3,3,0,0,0,.17,1.41,3.28,3.28,0,0,1-.08,2.71,7.86,7.86,0,0,0-1,1.72,22.9,22.9,0,0,0-.11,2.5,18.24,18.24,0,0,1-.81,2,6.15,6.15,0,0,0,.3,2.54,19.82,19.82,0,0,0,1.85,4.95,38.86,38.86,0,0,0,4.56,6.61A10.46,10.46,0,0,1,79.66,156a22.82,22.82,0,0,1,.61,4.44c.13,1.88.21,3.75.35,5.62,1.35,20.25,3.09,24.51,5.3,27.05,1.56,1.79,5.17,4.71,12.11-.73,7.68-6,23.52-24.9,23.52-24.9l5.67-22.43a22.73,22.73,0,0,0-6.72-.29,17.15,17.15,0,0,0-9.64,5.33C105.79,156.12,95,172,95,172S91.28,155.29,90.82,152.61Z" style="fill:#ffa8a7"></path><path d="M125.58,144.64c-4-.45-6.75-.23-10.12,1.43s-5.28,4.2-8.46,8.44-8.84,12.86-8.84,12.86,2,10.67,11.06,14.08L124.7,164Z" style="fill:#407BFF"></path><path d="M95,172a38.4,38.4,0,0,1,1.57,11.19s2.34-7.75.18-13.73Z" style="fill:#f28f8f"></path><path d="M83.56,142.14a14.7,14.7,0,0,0,.77,8.08,8.58,8.58,0,0,1-1.75-4C82.4,143.88,82.88,142.94,83.56,142.14Z" style="fill:#f28f8f"></path><path d="M113.21,181.45c-.32-18.5-1.71-31,11.25-36.92,5.54.1,14,1.16,14,1.16C149,147.56,157.76,149,157.76,149c4.78,2.88,4.39,13.05,6,32.66,1.31,15.78.63,21.84,0,37.55-10.42,5.62-45.65,5.41-52.57-5.65C111.49,203.93,113.52,199.78,113.21,181.45Z" style="fill:#407BFF"></path><path d="M113.21,181.45c-.32-18.5-1.71-31,11.25-36.92,5.54.1,14,1.16,14,1.16C149,147.56,157.76,149,157.76,149c4.78,2.88,4.39,13.05,6,32.66,1.31,15.78.63,21.84,0,37.55-10.42,5.62-45.65,5.41-52.57-5.65C111.49,203.93,113.52,199.78,113.21,181.45Z" style="fill:#fff;opacity:0.7000000000000001"></path><polygon points="130.71 159.89 129.95 172.8 134.05 173.65 129.31 173.34 130.71 159.89" style="opacity:0.1"></polygon><path d="M161.85,116a14.39,14.39,0,0,0-28.71-1.39l-6.49-4.72a5.12,5.12,0,0,0-4.22,1.51c-1.81,1.86-.77,7.68,1.52,13.36,0,0,2.25,10.36,3.14,12.06a4.73,4.73,0,0,0,2.73,2.18l-.16-6.29,23.59-3.48A14.39,14.39,0,0,0,161.85,116Z" style="fill:#37474f"></path><path d="M129.35,125.18c-.83.5-1.56-1.26-3.06-2.17-1.27-.77-4.12-2.14-6.05,1-2.08,3.4,1.58,8.16,4.16,9.16,3.82,1.48,5.23-1.52,5.23-1.52l.41,14.45c-2.13,2.92-.67,9,1.64,10.9,7.5-2.19,11.69-4.71,14-9.37l0-5a21.79,21.79,0,0,0,5.37.24c3.35-.53,5.44-3.19,6.44-6.81,1.61-5.83,1.58-10.79.77-22-.91-12.61-16.17-12.62-24-7.62S129.35,125.18,129.35,125.18Z" style="fill:#ffa8a7"></path><path d="M145.61,143.2v1c-.22,1.12-2.42,4.68-8,7.16s-6,5.63-6,5.63a10.14,10.14,0,0,1,5.11.91c2.37,1.24,4.13,3.47,5.32,3.44s2.84-3.33,6-6.61a20.81,20.81,0,0,0,4-6.69,26.75,26.75,0,0,1-3.08-2.51C147.83,144.44,146.56,143.21,145.61,143.2Z" style="fill:#407BFF"></path><path d="M131.68,157c-3.21-1.92-6.44.64-6.94.43-1-.43-.68-4.25-.08-7.44s3.78-7.36,5.28-7.48l.1,3.59a15.17,15.17,0,0,0-.1,5.83C130.57,154.37,131.81,155.26,131.68,157Z" style="fill:#407BFF"></path><path d="M145.6,142.64s-7.85-1.47-10.47-2.85c-1.75-.93-2.71-3.6-3.14-4.63a8.43,8.43,0,0,0,1.35,5.1c1.92,2.44,12.27,4.37,12.27,4.37Z" style="fill:#f28f8f"></path><path d="M151.29,143.06a5.69,5.69,0,0,0,3.2-1.41,4.72,4.72,0,0,0,1.31-3.3,16.1,16.1,0,0,0,0-4.37,3.52,3.52,0,0,0-2.6-2.46,16.38,16.38,0,0,0-4.28-.43c-2.64.13-4.59.75-5.61,2.33a8.62,8.62,0,0,0-1.32,4.74,7,7,0,0,0,.78,3.29c.49.92,1.88,1.2,2.74,1.42A18.9,18.9,0,0,0,151.29,143.06Zm2.7-4.69c-.37,1.35-2.25,1.56-3,1.13-.36-.2-.59-2,0-2.27s.29-.74-1.35-.61-1.63.58-1,.72.84,1.81.09,2.13a3.83,3.83,0,0,1-3.22-.1c-1.18-.89-1.41-4.18-.39-5.51,1.17-1.52,3.3-1.55,4.68-1.48s3,.12,4.07,1.35S154.34,137.06,154,138.37Z" style="fill:#37474f"></path><path d="M146.58,133.72l4.79.06c0,1.4-.91,2.34-2.6,2.29A2.14,2.14,0,0,1,146.58,133.72Z" style="fill:#b16668"></path><path d="M161.49,102.42A5.38,5.38,0,0,0,158,102a4.27,4.27,0,0,0-2.52-4.32,5,5,0,0,0-5.41.66c.36-1.26-.78-2.57-2.07-2.87a6.93,6.93,0,0,0-3.86.6c-1.84.68-3.65,1.44-5.52,2-3.3,1.07-6.8,1.66-9.79,3.41a6,6,0,0,0-1.88,1.55,5.17,5.17,0,0,0-.87,3.26,6,6,0,0,0,.15,1.12,3,3,0,0,0-.78-.62,2.78,2.78,0,0,0-3.81,1.28l4.92,2.61c-.13,1-.26,2-.37,3-.3,2.64-.84,5.71-.27,8.34a2,2,0,0,0,.31.89,15.6,15.6,0,0,1,2.55,2.53c.38.47.83,1.23,1.45,1.41a1.48,1.48,0,0,0,1.72-.76,2.83,2.83,0,0,0,.07-1.16c-.15-1.63-.29-3.26-.43-4.89a2.67,2.67,0,0,1,.09-1.29,3.61,3.61,0,0,1,1.21-1.25,5.66,5.66,0,0,0,2-3.89,6.52,6.52,0,0,1,.14-1.4c.11-.34.39-.88.78-.87.76,0,4.9,1,5.94,1.1,5.41.8,11.23,1,16.05-1.61,1.87-1,5-3.13,5.38-5.43A3.08,3.08,0,0,0,161.49,102.42Z" style="fill:#37474f"></path><path d="M145,123.42a1.4,1.4,0,1,1-1.41-1.46A1.42,1.42,0,0,1,145,123.42Z" style="fill:#263238"></path><path d="M142.57,118.13l-3.65,1.73a2.12,2.12,0,0,1,1-2.76A2,2,0,0,1,142.57,118.13Z" style="fill:#263238"></path><path d="M157.35,119.1l-3.43-1.84a1.88,1.88,0,0,1,2.58-.79A2,2,0,0,1,157.35,119.1Z" style="fill:#263238"></path><path d="M155.72,122.9a1.43,1.43,0,0,1-1.4,1.46,1.45,1.45,0,0,1-1.41-1.46,1.41,1.41,0,1,1,2.81,0Z" style="fill:#263238"></path><path d="M148.46,120.3l.45,9.79,5.32-.7A27.14,27.14,0,0,0,148.46,120.3Z" style="fill:#f28f8f"></path><path d="M171.3,212.3c.44,5.8.94,8.61-.1,11.26a20.33,20.33,0,0,1-2,3.77,72,72,0,0,0-3.16,6.54c-1,1.95-2.08,2.7-1.74,3.12a2.47,2.47,0,0,0,3.36.14,12.77,12.77,0,0,0,2.46-2.52,30.76,30.76,0,0,1-1.83,8.52c-2.12,5.25-.68,7.14,6.24,5.07,4.33-1.3,7.37-6.86,9-17.27a152.9,152.9,0,0,0,.79-19.11c0-10.11-.77-19.89-1.4-23s-4.63-13.93-9-25.06c-4.31-11-9.73-13.3-16.11-14.7,0,0-4,12.8.37,23.52l10.35,21.37S170.86,206.49,171.3,212.3Z" style="fill:#ffa8a7"></path><path d="M157.31,148.91s6,.49,10.24,4.2c1.28,1.11,3.42,3.65,5.64,8.17A149.94,149.94,0,0,1,181,182.37s-2.66,7.8-14.69,9L157.59,172S149.69,159.59,157.31,148.91Z" style="fill:#407BFF"></path></g></g></g><g id="freepik--speech-bubble--inject-190"><g id="freepik--speech-bubble--inject-190"><g id="freepik--speech-bubble--inject-190"><ellipse cx="250" cy="92.61" rx="31.32" ry="27.43" style="fill:#407BFF"></ellipse><path d="M278.53,102.2c1.08,3.52,5.72,9.12,11.77,10a.39.39,0,0,1,.12.73A16.9,16.9,0,0,1,272,110.91Z" style="fill:#407BFF"></path><path d="M221.46,102.2c-1.07,3.52-5.71,9.12-11.76,10a.39.39,0,0,0-.12.73A16.9,16.9,0,0,0,228,110.91Z" style="fill:#407BFF"></path></g><path d="M227.43,100.67a.61.61,0,0,1-.44-.19.58.58,0,0,1-.19-.44V85.14a.58.58,0,0,1,.19-.44.61.61,0,0,1,.44-.19h7.43a7,7,0,0,1,2.6.43,4.61,4.61,0,0,1,1.7,1.11,4,4,0,0,1,.91,1.54,5.48,5.48,0,0,1,.28,1.72,4.06,4.06,0,0,1-.15,1.17,4,4,0,0,1-.36.85,2.82,2.82,0,0,1-.43.58,3.17,3.17,0,0,1-.35.33,3.47,3.47,0,0,1,1.25,1.45,4.85,4.85,0,0,1,.36,2,6,6,0,0,1-.28,1.84,4.1,4.1,0,0,1-.91,1.61,4.44,4.44,0,0,1-1.65,1.13,6.5,6.5,0,0,1-2.49.43Zm8.63-11.26a1.3,1.3,0,0,0-.36-1,1.42,1.42,0,0,0-1-.36h-3.58v2.63h3.58a1.42,1.42,0,0,0,1-.36A1.27,1.27,0,0,0,236.06,89.41Zm-5,7.68h3.81a1.53,1.53,0,0,0,1.11-.4,1.38,1.38,0,0,0,.41-1,1.36,1.36,0,0,0-.41-1,1.53,1.53,0,0,0-1.11-.41h-3.81Z" style="fill:#fafafa"></path><path d="M248.63,104.5a1.17,1.17,0,0,1-.23.37.56.56,0,0,1-.44.18h-3a.51.51,0,0,1-.39-.16.53.53,0,0,1-.16-.39.39.39,0,0,1,0-.16l1.75-4.13L241.5,89.38a.7.7,0,0,1,0-.16.55.55,0,0,1,.55-.55h3a.54.54,0,0,1,.43.18,1.17,1.17,0,0,1,.23.37l2.57,6,2.53-6a1.7,1.7,0,0,1,.23-.37.57.57,0,0,1,.44-.18h3a.55.55,0,0,1,.55.55.7.7,0,0,1,0,.16Z" style="fill:#fafafa"></path><path d="M259.29,96a1.76,1.76,0,0,0,.2.88,1.66,1.66,0,0,0,.5.55,1.71,1.71,0,0,0,.66.29,3.05,3.05,0,0,0,.72.08,3.3,3.3,0,0,0,1.1-.14,2,2,0,0,0,.68-.39,1.7,1.7,0,0,1,.37-.26.87.87,0,0,1,.39-.06h3a.45.45,0,0,1,.51.51,2,2,0,0,1-.35.84A4.67,4.67,0,0,1,266,99.43a6.9,6.9,0,0,1-1.88,1,8.66,8.66,0,0,1-5.42,0,5.32,5.32,0,0,1-2-1.23,5.25,5.25,0,0,1-1.2-2,7.76,7.76,0,0,1-.4-2.6,7.33,7.33,0,0,1,.4-2.48,5.46,5.46,0,0,1,1.2-2,5.6,5.6,0,0,1,2-1.3,7,7,0,0,1,2.67-.47,6.74,6.74,0,0,1,2.87.56,5.6,5.6,0,0,1,1.94,1.47,5.74,5.74,0,0,1,1.09,2,7.76,7.76,0,0,1,.33,2.22v.65A.61.61,0,0,1,267,96Zm2.08-4.43a1.85,1.85,0,0,0-1.48.58,2.33,2.33,0,0,0-.6,1.29h4.16a2.4,2.4,0,0,0-.6-1.29A1.85,1.85,0,0,0,261.37,91.55Z" style="fill:#fafafa"></path><path d="M273.35,95.08a.65.65,0,0,1-.63.63h-2.91a.61.61,0,0,1-.43-.19.58.58,0,0,1-.19-.44V85.14a.58.58,0,0,1,.19-.44.61.61,0,0,1,.43-.19h2.91a.65.65,0,0,1,.63.63Zm0,5a.65.65,0,0,1-.63.63h-2.91a.61.61,0,0,1-.43-.19.58.58,0,0,1-.19-.44V97.71a.59.59,0,0,1,.19-.44.6.6,0,0,1,.43-.18h2.91a.6.6,0,0,1,.44.18.63.63,0,0,1,.19.44Z" style="fill:#fafafa"></path></g></g></svg>